<svg width="139" height="304" viewBox="0 0 139 304" fill="none" xmlns="http://www.w3.org/2000/svg">
<path d="M10.7411 96.7746C2.38417 63.7173 15.8017 35.4198 15.8017 35.4198C29.1548 7.78058 63.3295 8.0412 63.3295 8.0412C107.69 8.30181 117.862 46.7772 117.862 46.7772C122.588 61.4266 121.107 72.0022 119.214 78.0376C118.287 81.0004 116.691 83.6752 114.54 85.8012C108.668 91.576 106.711 97.6388 106.711 97.6388C103.312 112.096 97.5043 117.007 97.5043 117.007C89.0185 119.586 82.9665 120.367 82.9665 120.367C77.3394 124.29 72.4977 123.92 70.7851 123.618V128.241C72.0342 132.081 77.0561 133.659 80.095 134.276C82.5673 134.77 84.7306 136.334 86.1084 138.583C91.1174 146.745 93.6799 162.903 93.6799 162.903C98.0451 170.461 103.492 191.763 103.492 191.763C99.4358 191.502 89.8555 194.863 89.8555 194.863C85.1298 183.629 83.3142 170.077 83.3142 170.077C78.5884 160.914 78.5884 157.677 78.5884 157.677C77.6227 168.129 79.5542 173.424 79.5542 173.424C83.5588 181.681 85.9796 198.47 85.9796 198.47C86.2887 201.2 86.5591 204.766 86.7909 208.634C87.4089 207.962 88.233 207.304 89.2889 206.783C89.2117 205.534 89.1473 204.506 89.0958 203.738C89.0443 202.956 89.3791 202.242 89.9328 201.817C89.6881 201.68 89.5336 201.584 89.5336 201.584C88.5292 198.223 89.5336 196.769 89.5336 196.769C91.4007 193.669 99.4615 193.34 102.874 193.34C103.852 193.34 104.792 193.875 105.269 194.781C107.406 198.772 106.827 202.489 106.827 202.489C107.703 203.422 107.921 204.698 107.857 205.918C109.866 206.412 112.48 208.154 112.892 213.833V220.609L112.274 220.746C116.703 221.72 120.27 223.421 122.292 225.52C132.992 232.186 130.211 247.288 130.211 247.288C126.696 264.324 110.098 267.685 110.098 267.685C104.677 268.851 100.118 268.933 96.487 268.563C94.5812 268.371 92.7528 267.877 91.0273 267.136C90.7955 277.3 89.9714 286.01 89.9714 286.01C87.6665 297.244 74.8284 295.955 74.8284 295.955C65.2482 295.05 65.4928 290.276 65.4928 290.276C65.8534 286.271 69.4975 285.119 69.4975 285.119C69.7421 270.14 63.806 253.625 63.806 253.625C60.1747 242.131 60.2906 219.155 60.2906 219.155C55.9254 226.768 56.4147 256.341 56.4147 256.341C57.2646 269.77 50.8391 288.356 50.8391 288.356C46.2293 297.135 35.6962 295.063 35.6962 295.063C27.2104 293.39 28.3049 287.574 28.3049 287.574C28.5496 283.569 33.52 281.635 33.52 281.635C35.5803 261.499 34.0093 247.549 34.0093 247.549C33.8419 246.602 33.7003 245.642 33.5715 244.654C33.52 244.462 33.4942 244.298 33.5071 244.161C32.6186 237.014 32.7217 228.99 33.1723 221.789C33.0564 221.844 32.9534 221.926 32.8375 221.967C32.7989 221.967 32.7603 221.994 32.7216 222.008C31.846 222.255 30.9575 221.624 30.7644 220.678C30.4038 218.908 29.9017 215.561 30.803 213.408L31.0992 207.139C31.0348 207.139 30.9575 207.139 30.8932 207.139L30.391 212.859C30.391 212.859 30.288 213.737 30.0948 218.497C30.0433 219.841 29.2063 221.034 27.9959 221.418C27.9573 221.418 27.9186 221.446 27.88 221.46C27.0044 221.706 26.1159 221.075 25.9228 220.129C25.7425 219.251 25.5236 217.975 25.4721 216.645C25.4721 216.947 25.4463 217.262 25.4334 217.605C25.3819 218.949 24.545 220.143 23.3346 220.527C23.2959 220.527 23.2573 220.554 23.2187 220.568C22.343 220.815 21.4546 220.184 21.2614 219.237C20.9009 217.468 20.3987 214.121 21.3 211.968L21.4159 209.444C21.0039 210.171 20.3729 211.323 19.3943 213.12C18.7633 214.286 17.5143 214.93 16.2652 214.683C16.2266 214.683 16.188 214.67 16.1494 214.656C15.2609 214.45 14.7587 213.449 14.9905 212.516C15.4283 210.761 16.4455 207.551 18.171 206.083L21.7636 199.568L21.8924 199.636C22.3302 197.771 23.1929 195.398 24.9184 192.709C24.9184 192.709 30.2493 170.118 36.3142 161.6C36.3142 161.6 43.3449 137.074 47.826 133.069L53.7622 130.23L53.6205 125.484C46.8216 127.582 42.7268 123.262 42.7268 123.262C34.2411 127.651 29.6699 121.972 29.6699 121.972C19.948 123.783 17.0378 113.962 17.0378 113.962C15.1063 110.052 13.5611 106.171 12.3121 102.316C10.5351 101.644 9.33759 100.478 9.33759 99.1476C9.33759 98.2697 9.87841 97.4742 10.7283 96.8295L10.7411 96.7746ZM98.9464 204.876C98.9464 204.876 98.9207 204.876 98.9078 204.876C98.9078 204.89 98.9078 204.917 98.9078 204.931C98.9078 204.917 98.9207 204.89 98.9336 204.876H98.9464ZM93.6928 205.987H94.3237C94.3108 205.754 94.298 205.521 94.2851 205.329C94.2465 204.807 94.3881 204.327 94.6456 203.93C94.3495 203.834 94.0791 203.724 93.8086 203.628C93.9117 204.423 93.8344 205.246 93.6928 205.987ZM103.118 204.533C103.118 204.533 103.144 204.588 103.157 204.615C103.157 204.588 103.157 204.547 103.157 204.519C103.144 204.519 103.131 204.519 103.118 204.519V204.533ZM25.5751 214.327C25.6524 213.792 25.7682 213.271 25.9614 212.804L26.2576 206.577C26.2576 206.577 26.206 206.563 26.1932 206.563L25.7167 211.899C25.7167 211.899 25.6652 212.352 25.5751 214.313V214.327Z" stroke="white" stroke-width="15" stroke-miterlimit="10"/>
<path d="M122.755 225.451C133.456 232.117 130.675 247.22 130.675 247.22C127.159 264.256 110.561 267.616 110.561 267.616C105.14 268.782 100.582 268.865 96.9506 268.494C89.8941 267.781 83.8421 263.076 80.7903 256.259C77.1977 248.207 76.7857 240.375 76.7857 240.375C78.9232 231.98 83.5331 229.415 83.5331 229.415C88.864 240.114 122.755 225.437 122.755 225.437V225.451Z" fill="#F7941D" stroke="#D8770E" stroke-miterlimit="10" stroke-linecap="round"/>
<path d="M104.058 239.086C92.7226 239.086 83.533 234.756 83.533 229.415C83.533 224.075 92.7226 219.745 104.058 219.745C115.394 219.745 124.584 224.075 124.584 229.415C124.584 234.756 115.394 239.086 104.058 239.086Z" fill="#282728" stroke="#231F20" stroke-miterlimit="10" stroke-linecap="round"/>
<path d="M109.171 247.343L110.832 249.99C111.102 250.429 110.87 251.019 110.394 251.129L107.909 251.65C107.406 251.76 106.969 251.252 107.11 250.731L107.934 247.576C108.089 246.973 108.849 246.835 109.183 247.357L109.171 247.343Z" fill="#282728" stroke="#231F20" stroke-miterlimit="10" stroke-linecap="round"/>
<path d="M124.017 235.725C122.318 240.114 113.356 247.014 113.356 247.014C119.897 248.509 124.017 247.014 124.017 247.014C125.833 243.475 124.017 235.725 124.017 235.725Z" fill="#282728" stroke="#231F20" stroke-linecap="round" stroke-linejoin="round"/>
<path d="M92.4566 240.731C94.8516 244.339 104.316 248.605 104.316 248.605C98.676 251.403 94.6456 250.95 94.6456 250.95C92.3149 248.138 92.4566 240.731 92.4566 240.731Z" fill="#282728" stroke="#231F20" stroke-width="0.93" stroke-linecap="round" stroke-linejoin="round"/>
<path d="M118.622 250.978C116.072 256.382 109.814 259.523 109.814 259.523C105.333 260.621 96.8089 254.256 96.8089 254.256C101.11 265.545 110.381 265.024 110.381 265.024C118.622 260.758 118.622 250.978 118.622 250.978Z" fill="#282728" stroke="#231F20" stroke-width="0.93" stroke-linecap="round" stroke-linejoin="round"/>
<path d="M113.343 220.527V213.751C112.673 204.382 105.951 205.713 105.951 205.713L91.9158 205.973C86.5848 207.084 85.4131 211.721 85.4131 211.721V226.932" stroke="#231F20" stroke-width="2" stroke-linecap="round" stroke-linejoin="round"/>
<path d="M22.2143 199.472L18.6217 205.987C18.9565 207.263 22.5491 208.154 22.5491 208.154L26.4121 201.776L22.2143 199.458V199.472Z" fill="white" stroke="#BCBEC0" stroke-miterlimit="10"/>
<path d="M18.6217 205.987C16.8963 207.455 15.879 210.665 15.4412 212.42C15.2094 213.353 15.7116 214.354 16.6001 214.56C16.6387 214.56 16.6774 214.574 16.716 214.588C17.9521 214.835 19.2141 214.19 19.845 213.024C22.0856 208.895 22.5491 208.154 22.5491 208.154L18.6217 205.987Z" fill="white" stroke="#BCBEC0" stroke-miterlimit="10"/>
<path d="M31.6014 205.768L31.2408 213.326C32.0907 214.3 35.6704 213.326 35.6704 213.326L36.34 205.768H31.6143H31.6014Z" fill="white" stroke="#BCBEC0" stroke-miterlimit="10"/>
<path d="M31.2408 213.326C30.3394 215.479 30.8416 218.826 31.2022 220.596C31.3953 221.542 32.2838 222.187 33.1594 221.926C33.1981 221.926 33.2367 221.899 33.2753 221.885C34.4857 221.501 35.3227 220.308 35.3742 218.963C35.5674 214.204 35.6704 213.326 35.6704 213.326H31.2408Z" fill="white" stroke="#BCBEC0" stroke-miterlimit="10"/>
<path d="M26.7726 205.219L26.4121 212.777C27.2619 213.751 30.8416 212.777 30.8416 212.777L31.5112 205.219H26.7855H26.7726Z" fill="white" stroke="#BCBEC0" stroke-miterlimit="10"/>
<path d="M26.3992 212.777C25.4978 214.93 26 218.277 26.3605 220.047C26.5537 220.993 27.4422 221.638 28.3178 221.377C28.3564 221.377 28.395 221.35 28.4337 221.336C29.6441 220.952 30.4811 219.759 30.5326 218.414C30.7257 213.655 30.8287 212.777 30.8287 212.777H26.3992Z" fill="white" stroke="#BCBEC0" stroke-miterlimit="10"/>
<path d="M22.0984 204.314L21.7379 211.872C22.5877 212.846 26.1675 211.872 26.1675 211.872L26.837 204.314H22.1113H22.0984Z" fill="white" stroke="#BCBEC0" stroke-miterlimit="10"/>
<path d="M21.7378 211.872C20.8365 214.025 21.3387 217.372 21.6992 219.141C21.8924 220.088 22.7809 220.733 23.6565 220.472C23.6951 220.472 23.7337 220.445 23.7724 220.431C24.9828 220.047 25.8197 218.853 25.8713 217.509C26.0644 212.749 26.1674 211.872 26.1674 211.872H21.7378Z" fill="white" stroke="#BCBEC0" stroke-miterlimit="10"/>
<path d="M36.8422 195.453L25.3691 192.613C21.2485 199.074 21.9696 203.71 21.9696 203.71C25.1244 208.621 36.6619 206.673 36.6619 206.673C37.3573 199.568 36.8422 195.439 36.8422 195.439V195.453Z" fill="white" stroke="#BCBEC0" stroke-miterlimit="10"/>
<path d="M54.2 130.12L48.2638 132.959C43.7827 136.965 36.752 161.49 36.752 161.49C30.6871 170.008 25.3562 192.6 25.3562 192.6C26.9271 198.8 37.1126 196.728 37.1126 196.728L50.9293 160.599L54.2 130.12Z" fill="#282728" stroke="#231F20" stroke-miterlimit="10" stroke-linecap="round"/>
<path d="M45.7786 144.07L40.3189 158.212C38.5934 160.859 37.5504 162.999 36.9195 164.645C36.237 166.414 36.9195 168.335 38.3745 169.446C38.4518 169.5 38.5162 169.555 38.5806 169.624C39.997 170.996 42.1345 171.105 43.4737 169.624C43.7699 169.295 43.9501 169.062 43.9501 169.062C44.8644 156.867 49.2167 149.694 49.2167 149.694L45.7658 144.083L45.7786 144.07Z" fill="white" stroke="#BCBEC0" stroke-width="1.55" stroke-miterlimit="10"/>
<path d="M38.1428 173.616C37.911 173.506 37.6921 173.355 37.4989 173.177C36.3529 172.134 34.5373 172.752 34.254 174.329C34.0866 175.303 34.151 176.222 34.151 176.222C33.9707 184.548 30.1463 187.84 30.1463 187.84C26.8756 190.94 30.1463 192.106 30.1463 192.106C32.1422 194.822 35.0523 192.106 35.0523 192.106C36.1469 183.972 39.057 177.964 39.057 177.964C39.4047 177.511 39.6236 177.072 39.7395 176.675C40.1129 175.385 39.3017 174.151 38.1428 173.629V173.616Z" fill="white" stroke="#BCBEC0" stroke-width="1.55" stroke-miterlimit="10"/>
<path d="M71.2358 121.862V128.186C72.4849 132.026 77.5068 133.604 80.5457 134.221C83.018 134.715 85.1813 136.279 86.5591 138.528C91.5681 146.69 94.1306 162.848 94.1306 162.848C98.4958 170.406 103.943 191.708 103.943 191.708C99.8865 191.447 90.3062 194.808 90.3062 194.808C85.5805 183.574 83.7649 170.022 83.7649 170.022C79.0391 160.859 79.0391 157.622 79.0391 157.622C78.0734 168.074 80.0049 173.369 80.0049 173.369C84.0095 181.626 86.4303 198.415 86.4303 198.415C87.7695 210.417 88.4906 238.441 88.4906 238.441C93.9503 248.893 90.435 285.955 90.435 285.955C88.1301 297.189 75.292 295.9 75.292 295.9C65.7117 294.995 65.9564 290.221 65.9564 290.221C66.317 286.216 69.961 285.064 69.961 285.064C70.2057 270.085 64.2696 253.57 64.2696 253.57C60.6383 242.076 60.7542 219.1 60.7542 219.1C56.389 226.713 56.8783 256.286 56.8783 256.286C57.7282 269.715 51.3027 288.301 51.3027 288.301C46.6929 297.08 36.1597 295.008 36.1597 295.008C27.674 293.335 28.7685 287.519 28.7685 287.519C29.0132 283.514 33.9836 281.58 33.9836 281.58C36.0439 261.444 34.4729 247.494 34.4729 247.494C31.0734 228.647 36.0439 200.761 36.0439 200.761C36.7649 186.427 42.1088 174.425 42.1088 174.425C44.5296 158.417 45.3795 145.51 45.3795 145.51C49.0107 136.608 54.2257 130.147 54.2257 130.147L53.9811 121.89H71.2487L71.2358 121.862Z" fill="#282728" stroke="#231F20" stroke-miterlimit="10" stroke-linecap="round"/>
<path d="M65.8405 120.834V128.844C63.7802 132.328 60.7542 130.271 60.7542 130.271L60.2649 120.847H65.8405V120.834Z" fill="white" stroke="#BCBEC0" stroke-miterlimit="10"/>
<path d="M61.1148 134.509C62.3767 134.413 63.3553 134.578 64.0764 134.811C65.0551 135.14 65.583 136.265 65.2869 137.307C64.4499 140.311 64.9521 144.824 64.9521 144.824C65.3641 146.635 63.0592 147.403 63.0592 147.403C59.531 147.403 59.5438 145.469 59.5438 145.469C60.883 142.506 60.2649 138.117 60.2649 138.117C59.1704 135.277 61.1148 134.496 61.1148 134.496V134.509Z" fill="white" stroke="#BCBEC0" stroke-miterlimit="10"/>
<path d="M60.7027 150.146C61.9646 150.023 62.9433 150.229 63.6644 150.544C64.643 150.969 65.1709 152.451 64.8748 153.822C64.0378 157.759 64.54 163.671 64.54 163.671C64.952 166.044 62.6471 167.045 62.6471 167.045C59.1189 167.045 59.1318 164.508 59.1318 164.508C60.4709 160.626 59.8529 154.879 59.8529 154.879C58.7583 151.161 60.7027 150.146 60.7027 150.146Z" fill="white" stroke="#BCBEC0" stroke-width="1.14" stroke-miterlimit="10"/>
<path d="M77.0304 138.103C78.1378 137.403 79.1679 137.362 80.0307 137.609C81.2024 137.938 82.6189 140.215 83.2112 142.629C84.8981 149.57 89.0701 159.295 89.0701 159.295C90.9372 163.108 89.4178 165.714 89.4178 165.714C86.1471 167.1 84.5633 162.848 84.5633 162.848C83.3657 155.797 79.2066 146.388 79.2066 146.388C75.8586 140.572 77.0304 138.103 77.0304 138.103Z" fill="white" stroke="#BCBEC0" stroke-width="1.54" stroke-miterlimit="10"/>
<path d="M87.9369 169.459C89.0572 168.801 90.0616 168.691 90.8857 168.842C92.006 169.034 93.2421 170.817 93.6542 172.765C94.8517 178.375 98.2769 186.125 98.2769 186.125C99.8479 189.143 98.2125 191.406 98.2125 191.406C94.9418 192.791 93.6799 189.39 93.6799 189.39C92.9717 183.642 89.5336 176.167 89.5336 176.167C86.6621 171.599 87.9498 169.473 87.9498 169.473L87.9369 169.459Z" fill="white" stroke="#BCBEC0" stroke-width="1.38" stroke-miterlimit="10"/>
<path d="M74.2232 210.87C76.0002 210.541 77.378 210.898 78.421 211.487C79.8246 212.283 80.6873 215.218 80.3911 217.975C79.5284 225.917 80.7002 237.741 80.7002 237.741C81.4728 242.46 78.2922 244.641 78.2922 244.641C73.3218 244.86 73.1287 239.785 73.1287 239.785C74.6997 231.912 73.3862 220.431 73.3862 220.431C71.5577 213.051 74.2103 210.884 74.2103 210.884L74.2232 210.87Z" fill="white" stroke="#BCBEC0" stroke-width="1.93" stroke-miterlimit="10"/>
<path d="M77.6098 249.99C79.3868 249.661 80.7646 250.018 81.8076 250.608C83.2111 251.403 84.0739 254.338 83.7777 257.096C82.915 265.038 84.0868 276.861 84.0868 276.861C84.8594 281.58 81.6788 283.761 81.6788 283.761C76.7084 283.98 76.5153 278.905 76.5153 278.905C78.0862 271.032 76.7728 259.551 76.7728 259.551C74.9443 252.171 77.5969 250.004 77.5969 250.004L77.6098 249.99Z" fill="white" stroke="#BCBEC0" stroke-width="1.93" stroke-miterlimit="10"/>
<path d="M43.4866 248.797C45.2764 248.605 46.6414 249.071 47.6329 249.744C48.9849 250.649 49.6416 253.639 49.1523 256.369C47.7488 264.228 48.1093 276.093 48.1093 276.093C48.56 280.853 45.2378 282.787 45.2378 282.787C40.2674 282.622 40.4219 277.547 40.4219 277.547C42.5337 269.811 42.0058 258.262 42.0058 258.262C40.6795 250.759 43.4737 248.811 43.4737 248.811L43.4866 248.797Z" fill="white" stroke="#BCBEC0" stroke-width="1.93" stroke-miterlimit="10"/>
<path d="M43.654 208.401C45.431 208.058 46.8088 208.442 47.8518 209.059C49.2554 209.91 50.131 213.01 49.8348 215.918C48.985 224.312 50.1954 236.795 50.1954 236.795C50.9809 241.787 47.8003 244.078 47.8003 244.078C42.8299 244.298 42.6368 238.934 42.6368 238.934C44.1948 230.608 42.8557 218.483 42.8557 218.483C41.0014 210.678 43.654 208.401 43.654 208.401Z" fill="white" stroke="#BCBEC0" stroke-width="1.98" stroke-miterlimit="10"/>
<path d="M59.737 169.761C60.9989 169.638 61.9775 169.844 62.6986 170.159C63.6772 170.584 64.2052 172.066 63.909 173.437C63.072 177.374 63.5742 183.286 63.5742 183.286C63.9863 185.659 61.6813 186.66 61.6813 186.66C58.1531 186.66 58.166 184.123 58.166 184.123C59.5052 180.241 58.8871 174.494 58.8871 174.494C57.7926 170.776 59.737 169.761 59.737 169.761Z" fill="white" stroke="#BCBEC0" stroke-width="1.14" stroke-miterlimit="10"/>
<path d="M66.5745 149.241C66.6002 147.965 67.7978 147.115 68.9309 147.54C75.4465 149.927 76.8243 154.522 76.8243 154.522C77.4682 155.811 76.0131 156.593 76.0131 156.593C72.8068 154.124 70.0769 152.862 68.4545 152.259C67.3471 151.847 66.5616 150.722 66.5616 149.474C66.5616 149.406 66.5616 149.323 66.5616 149.255L66.5745 149.241Z" fill="white" stroke="#BCBEC0" stroke-miterlimit="10"/>
<path d="M66.5745 157.114C66.6002 155.839 67.7978 154.988 68.9309 155.413C75.4465 157.8 76.8243 162.395 76.8243 162.395C77.4682 163.685 76.0131 164.466 76.0131 164.466C72.8068 161.997 70.0769 160.736 68.4545 160.132C67.3471 159.72 66.5616 158.596 66.5616 157.347C66.5616 157.279 66.5616 157.197 66.5616 157.128L66.5745 157.114Z" fill="white" stroke="#BCBEC0" stroke-miterlimit="10"/>
<path d="M67.5402 166.017C67.566 164.741 68.7635 163.89 69.8967 164.316C76.4123 166.702 77.7901 171.297 77.7901 171.297C78.4339 172.587 76.9788 173.369 76.9788 173.369C73.7725 170.9 71.0427 169.638 69.4202 169.034C68.3128 168.623 67.5274 167.498 67.5274 166.25C67.5274 166.181 67.5274 166.099 67.5274 166.03L67.5402 166.017Z" fill="white" stroke="#BCBEC0" stroke-miterlimit="10"/>
<path d="M57.1101 149.241C57.0844 147.965 55.8868 147.115 54.7537 147.54C48.2381 149.927 46.8603 154.522 46.8603 154.522C46.2164 155.811 47.6715 156.593 47.6715 156.593C50.8778 154.124 53.6076 152.862 55.2301 152.259C56.3375 151.847 57.123 150.722 57.123 149.474C57.123 149.406 57.123 149.323 57.123 149.255L57.1101 149.241Z" fill="white" stroke="#BCBEC0" stroke-miterlimit="10"/>
<path d="M57.1101 157.114C57.0844 155.839 55.8868 154.988 54.7537 155.413C48.2381 157.8 46.8603 162.395 46.8603 162.395C46.2164 163.685 47.6715 164.466 47.6715 164.466C50.8778 161.997 53.6076 160.736 55.2301 160.132C56.3375 159.72 57.123 158.596 57.123 157.347C57.123 157.279 57.123 157.197 57.123 157.128L57.1101 157.114Z" fill="white" stroke="#BCBEC0" stroke-miterlimit="10"/>
<path d="M56.1314 166.017C56.1057 164.741 54.9082 163.89 53.775 164.316C47.2594 166.702 45.8816 171.297 45.8816 171.297C45.2378 172.587 46.6928 173.369 46.6928 173.369C49.8991 170.9 52.629 169.638 54.2514 169.034C55.3588 168.623 56.1443 167.498 56.1443 166.25C56.1443 166.181 56.1443 166.099 56.1443 166.03L56.1314 166.017Z" fill="white" stroke="#BCBEC0" stroke-miterlimit="10"/>
<path d="M40.2674 197.071C41.5937 194.753 41.1559 192.476 40.6022 191.022C39.7652 188.814 41.04 186.303 43.2419 185.878C44.9545 185.549 46.68 185.878 46.68 185.878C52.9896 189.883 61.0632 189.362 61.0632 189.362C66.8062 189.102 71.7766 186.907 71.7766 186.907C74.9958 185.851 77.1462 186.921 78.4725 188.224C79.5928 189.335 80.1336 190.926 80.1594 192.545C80.2366 196.344 82.1939 199.814 82.1939 199.814C83.3399 201.735 81.8333 204.067 80.7388 205.37C80.1465 206.069 79.3739 206.59 78.5369 206.892C72.0986 209.155 69.8451 205.493 69.8451 205.493C68.1969 203.532 66.8062 202.187 65.6602 201.268C63.8188 199.773 61.4109 199.293 59.1832 199.965C55.9898 200.925 53.9811 202.297 52.8994 203.216C51.9594 204.012 50.8649 204.615 49.6674 204.821C47.8389 205.136 46.0619 205.04 44.7614 204.862C43.4351 204.684 42.2118 203.929 41.4521 202.763C38.7479 198.621 40.2674 197.057 40.2674 197.057V197.071ZM69.124 195.713C70.489 197.208 72.5235 199.266 74.3391 200.404C75.6525 201.227 77.3394 200.281 77.3909 198.648C77.4424 197.208 77.1849 195.206 76.0131 192.723C76.0131 192.723 72.7553 191.694 69.8323 192.613C68.5832 192.997 68.2098 194.712 69.124 195.713ZM44.3364 198.662C44.4008 200.281 46.0877 201.241 47.3882 200.418C49.2038 199.279 51.2383 197.222 52.6033 195.727C53.5175 194.725 53.1441 193.011 51.895 192.627C48.972 191.722 45.7142 192.737 45.7142 192.737C44.5425 195.233 44.272 197.236 44.3364 198.662Z" fill="white" stroke="#BCBEC0" stroke-miterlimit="10"/>
<path d="M71.5062 244.229C72.1372 245.711 72.4849 246.877 72.6522 247.453C72.7295 247.713 72.7295 248.001 72.6651 248.262C72.0084 251.197 71.0942 252.816 70.3731 253.708C69.8194 254.38 68.8407 254.448 68.2355 253.831C65.158 250.69 65.0679 246.04 65.0936 244.901C65.0936 244.737 65.1194 244.572 65.1709 244.408C65.2095 244.284 65.2482 244.174 65.2997 244.065C66.4586 241.266 70.3216 241.445 71.5062 244.229Z" fill="white" stroke="#BCBEC0" stroke-width="1.93" stroke-miterlimit="10"/>
<path d="M40.3318 242.844C40.834 244.023 41.1173 244.97 41.246 245.436C41.2975 245.642 41.3104 245.875 41.2589 246.081C40.731 248.44 39.997 249.743 39.4175 250.456C38.9668 251.005 38.1814 251.046 37.6921 250.552C35.2197 248.029 33.9063 244.997 33.9321 244.092C33.9321 243.955 35.194 243.118 35.2326 242.981C35.2584 242.885 35.297 242.789 35.3356 242.706C36.2627 240.457 39.3789 240.608 40.3189 242.844H40.3318Z" fill="white" stroke="#BCBEC0" stroke-width="1.55" stroke-miterlimit="10"/>
<path d="M63.7802 8.00009C108.14 8.26071 118.313 46.7361 118.313 46.7361C123.039 61.3855 121.558 71.9611 119.665 77.9965C118.738 80.9593 117.141 83.6478 114.991 85.7601C109.119 91.5349 107.162 97.5977 107.162 97.5977C103.762 112.055 97.9549 116.966 97.9549 116.966C89.4692 119.544 83.4172 120.326 83.4172 120.326C76.3865 125.237 70.5662 123.426 70.5662 123.426C65.2353 127.816 57.7153 123.755 57.7153 123.755C48.7531 129.105 43.1775 123.166 43.1775 123.166C34.6918 127.555 30.1206 121.876 30.1206 121.876C20.3987 123.687 17.4885 113.866 17.4885 113.866C-2.14842 74.1009 16.2524 35.3787 16.2524 35.3787C29.6055 7.73947 63.7802 8.00009 63.7802 8.00009Z" fill="white" stroke="#BCBEC0" stroke-miterlimit="10"/>
<path d="M59.7756 95.2656C56.362 95.2656 53.5948 90.15 53.5948 83.8396C53.5948 77.5292 56.362 72.4136 59.7756 72.4136C63.1891 72.4136 65.9564 77.5292 65.9564 83.8396C65.9564 90.15 63.1891 95.2656 59.7756 95.2656Z" fill="#231F20"/>
<path d="M19.4201 95.2656C16.0065 95.2656 13.2392 90.15 13.2392 83.8396C13.2392 77.5292 16.0065 72.4136 19.4201 72.4136C22.8336 72.4136 25.6009 77.5292 25.6009 83.8396C25.6009 90.15 22.8336 95.2656 19.4201 95.2656Z" fill="#231F20"/>
<path d="M37.8337 91.1233C42.3277 95.5401 41.774 99.3396 41.774 99.3396C39.5979 102.44 37.2285 99.3396 37.2285 99.3396C34.3184 98.1737 32.8633 100.711 32.8633 100.711C28.6784 101.274 30.494 96.6237 30.494 96.6237C31.022 94.5662 32.1809 92.7419 33.2368 91.3977C34.4085 89.9163 36.4817 89.8065 37.8209 91.1096L37.8337 91.1233Z" fill="#231F20"/>
<path d="M73.3218 102.81C69.7589 102.81 66.8706 101.121 66.8706 99.0379C66.8706 96.9546 69.7589 95.2658 73.3218 95.2658C76.8848 95.2658 79.7731 96.9546 79.7731 99.0379C79.7731 101.121 76.8848 102.81 73.3218 102.81Z" fill="#DD90AF"/>
<path d="M16.2395 102.81C12.6766 102.81 9.78832 101.121 9.78832 99.0379C9.78832 96.9546 12.6766 95.2658 16.2395 95.2658C19.8025 95.2658 22.6908 96.9546 22.6908 99.0379C22.6908 101.121 19.8025 102.81 16.2395 102.81Z" fill="#DD90AF"/>
<path d="M82.9279 105.595L83.4172 120.313" stroke="#BCBEC0" stroke-miterlimit="10"/>
<path d="M70.5663 123.412V111.273" stroke="#BCBEC0" stroke-miterlimit="10"/>
<path d="M57.7153 123.742V114.373" stroke="#BCBEC0" stroke-miterlimit="10"/>
<path d="M43.1776 123.152V112.947" stroke="#BCBEC0" stroke-miterlimit="10"/>
<path d="M30.1206 121.863V111.273" stroke="#BCBEC0" stroke-miterlimit="10"/>
<path d="M111.578 89.6555C100.595 98.3931 93.5511 96.2396 92.0961 105.21L111.578 89.6555Z" fill="white"/>
<path d="M111.578 89.6555C100.595 98.3931 93.5511 96.2396 92.0961 105.21" stroke="#BCBEC0" stroke-miterlimit="10" stroke-linecap="round"/>
<path d="M107.29 202.421C109.595 204.876 107.368 209.65 107.368 209.65C105.114 212.366 103.968 210.747 103.968 210.747C103.814 208.018 103.685 206.097 103.595 204.78C103.505 203.464 104.458 202.421 105.655 202.421H107.29Z" fill="white" stroke="#BCBEC0" stroke-miterlimit="10"/>
<path d="M102.912 203.518C105.217 205.974 102.99 210.747 102.99 210.747C100.736 213.463 99.5902 211.844 99.5902 211.844C99.4357 209.115 99.3069 207.195 99.2168 205.878C99.1267 204.561 100.08 203.518 101.277 203.518H102.912Z" fill="white" stroke="#BCBEC0" stroke-miterlimit="10"/>
<path d="M98.4313 202.928C100.736 205.384 98.5086 210.157 98.5086 210.157C96.2552 212.873 95.1091 211.254 95.1091 211.254C94.9546 208.525 94.8259 206.604 94.7357 205.288C94.6456 203.971 95.5985 202.928 96.796 202.928H98.4313Z" fill="white" stroke="#BCBEC0" stroke-miterlimit="10"/>
<path d="M93.2549 201.324C95.5598 203.779 93.3321 208.552 93.3321 208.552C91.0787 211.268 89.9327 209.65 89.9327 209.65C89.7782 206.92 89.6494 205 89.5593 203.683C89.4691 202.366 90.422 201.324 91.6195 201.324H93.2549Z" fill="white" stroke="#BCBEC0" stroke-miterlimit="10"/>
<path d="M89.9971 196.701C91.8642 193.601 99.925 193.272 103.337 193.272C104.316 193.272 105.256 193.807 105.732 194.712C107.87 198.704 107.291 202.421 107.291 202.421C100.749 208.484 89.9971 201.516 89.9971 201.516C88.9927 198.155 89.9971 196.701 89.9971 196.701Z" fill="white" stroke="#BCBEC0" stroke-miterlimit="10"/>
</svg>
