<svg width="197" height="280" viewBox="0 0 197 280" fill="none" xmlns="http://www.w3.org/2000/svg">
<path d="M122.306 151.315C122.438 150.854 122.582 150.309 122.661 149.68C122.951 147.639 122.148 145.641 120.819 144.621C119.911 143.922 118.674 142.468 117.384 139.562C124.451 136.459 136.637 129.625 141.519 117.802C141.519 117.802 132.939 122.581 124.227 122.805C128.544 121.072 133.386 118.487 138.44 114.574C138.44 114.574 145.467 106.16 144.072 97.817C146.454 94.6446 150.231 88.0342 150.573 77.8182C150.573 77.8182 149.06 78.3772 147.059 80.6832C148.467 74.5759 149.389 68.2171 149.389 68.2171C152.639 71.9206 154.126 71.8228 154.126 71.8228C149.941 64.0804 149.757 55.793 149.757 55.793C149.757 49.2804 147.533 45.8285 147.533 45.8285C151.06 46.0241 152.823 43.7601 152.823 43.7601C148.928 42.5722 143.164 38.8268 143.164 38.8268C149.02 38.2398 149.665 36.3671 149.665 36.3671C142.322 34.3966 138.427 28.0797 138.427 28.0797C133.044 21.8607 128.491 20.8824 128.491 20.8824C132.768 17.5283 131.741 14.6633 131.741 14.6633C127.465 18.0174 114.555 16.6339 114.555 16.6339C116.41 13.3776 120.872 12.7906 120.872 12.7906C110.278 9.53434 95.947 15.0966 95.947 15.0966C74.8914 9.17098 66.8377 14.1742 66.8377 14.1742C71.4173 14.1742 73.0359 15.8792 73.0359 15.8792C52.5989 20.6168 44.1766 27.7164 44.1766 27.7164C49.5063 27.4508 53.2174 29.8266 53.2174 29.8266C38.2284 40.7414 34.8859 55.6113 34.8859 55.6113C39.347 52.0615 41.4526 50.3565 41.4526 50.3565C33.1488 69.1674 33.8989 81.927 33.8989 81.927C36.0045 76.6722 39.347 73.6396 39.347 73.6396C36.623 82.1925 40.2156 88.3697 40.2156 88.3697C40.2287 90.3542 40.742 93.4986 42.9265 97.859C42.9265 97.859 45.5716 107.46 54.6255 110.046C54.6255 110.046 56.9942 110.954 57.1258 108.215C57.1258 108.215 59.2577 111.359 63.8767 114.811C58.5207 116.474 52.5989 117.117 46.7823 115.342C46.7823 115.342 54.8229 130.939 73.6413 138.947C73.207 139.338 72.8122 139.631 72.4437 139.855C71.4173 140.47 70.6672 141.49 70.3777 142.636C23.7791 205.204 23.7527 233.588 23.7527 233.588C42.0448 225.231 42.9791 231.813 70.733 242.169C69.746 251.141 69.2064 260.421 69.2064 260.421C70.1276 261.246 71.0751 261.944 72.0358 262.531C71.1014 268.219 73.3254 273.153 73.3254 273.153C79.9184 278.575 92.9203 274.047 92.9203 274.047C95.0258 270.064 90.3936 265.48 88.8539 264.11C90.7884 263.538 91.9859 262.937 91.9859 262.937C91.6833 258.199 91.8148 253.349 92.1438 248.905C95.0916 249.534 98.0657 249.967 101.04 250.233C101.264 255.795 101.514 259.904 101.514 259.904C102.79 260.463 103.988 260.91 105.146 261.273C104.975 266.514 106.659 270.679 106.659 270.679C113.252 276.73 126.254 271.671 126.254 271.671C128.767 266.388 121.701 260.128 121.701 260.128L121.069 260.072C123.319 258.548 124.306 256.871 124.306 256.871C123.753 254.593 123.306 252.064 122.938 249.408C154.679 244.643 181.775 226.489 181.775 226.489C157.311 219.892 133.729 175.856 122.306 151.357V151.315ZM64.4953 88.3697C64.4953 88.3697 64.3242 89.0125 64.1399 90.1166C62.0081 91.4023 61.9949 91.4163 61.9949 91.4163C61.9686 90.9132 62.0212 90.3542 62.1265 89.7672C62.5871 89.4458 63.3504 88.9566 64.5084 88.3557L64.4953 88.3697ZM62.1397 94.3232C62.1397 94.435 62.1397 94.421 62.1397 94.3232ZM62.0475 92.702C62.0475 92.5623 62.0344 92.3946 62.0212 92.2269C62.0212 92.3806 62.0344 92.5343 62.0475 92.702ZM62.0081 91.9054C62.0081 91.7797 62.0081 91.6679 61.9817 91.5281C61.9817 91.612 61.9817 91.7517 62.0081 91.9054ZM73.4044 68.86C73.4044 68.86 72.7201 69.8243 71.6805 71.3476C70.1934 72.0883 69.0485 73.3042 69.0485 73.3042C69.3907 72.242 70.2724 71.0262 71.4567 69.7963C72.0226 69.5029 72.6674 69.1814 73.4044 68.86ZM78.892 59.6362C80.1948 58.9794 81.7477 58.5182 83.4058 58.1967C82.8004 58.5601 82.0372 59.0213 81.1818 59.5663C79.8263 59.5943 78.892 59.6502 78.892 59.6502V59.6362ZM97.1051 54.1858C97.763 54.1019 98.5 54.1019 99.2896 54.1718C99.5922 54.5911 99.9081 55.0523 100.277 55.6113C100.277 55.6113 99.8554 55.5694 99.1185 55.5135C98.1447 54.4653 97.1051 54.1858 97.1051 54.1858ZM142.546 64.1503C141.822 64.0524 141.282 63.9826 140.861 63.9406C140.585 63.5353 140.282 63.1301 139.953 62.7667C139.953 62.7667 140.466 62.5431 141.164 62.4173C142.046 63.3956 142.546 64.1503 142.546 64.1503ZM143.046 86.4131C143.111 87.7967 143.164 88.9426 143.204 89.7812C143.151 90.0327 143.111 90.2843 143.059 90.5358C143.006 89.334 142.993 87.9783 143.059 86.4131H143.046ZM136.518 56.0166C136.255 56.1983 135.979 56.4219 135.716 56.6455C135.163 56.3939 134.571 56.1703 133.952 55.9607C135.795 55.6951 136.518 56.0166 136.518 56.0166ZM57.5469 99.5081C57.8891 100.165 58.1391 100.738 58.3102 101.171C58.2839 101.213 58.2575 101.269 58.2181 101.311C58.2181 101.311 58.0075 100.598 57.5469 99.5081ZM60.521 98.4739L60.6 98.3202C61.1132 99.6758 63.1924 102.205 64.5479 103.757C63.4556 102.862 61.4817 101.003 60.5342 98.4739H60.521Z" stroke="#F1F2F2" stroke-width="7" stroke-linecap="round" stroke-linejoin="round"/>
<path d="M30.6616 28.5967C30.6616 28.5967 34.6885 24.7535 40.4261 25.2706C35.4517 19.5826 39.8076 18.8559 44.1372 16.6897C44.1372 16.6897 37.9784 16.4661 37.123 4C37.123 4 34.399 16.0189 30.0826 16.5639C30.0826 16.5639 33.5699 22.0423 30.6748 28.5967H30.6616Z" stroke="#F1F2F2" stroke-width="7" stroke-linecap="round" stroke-linejoin="round"/>
<path d="M21.4367 49.2664C22.2394 44.2492 21.7393 39.5954 28.2271 43.1731C26.5558 38.3795 27.9639 34.0052 28.4771 32.7055C29.951 34.0472 32.1882 35.7522 34.3858 36.1155L32.175 32.999L35.6492 34.2149C35.6492 34.2149 31.4644 28.7784 28.9903 28.2753L26.0952 26.0392L27.4112 29.3514H24.3186L26.8058 31.0424C26.8058 31.0424 27.3849 31.7133 28.3192 32.5658C23.2264 36.9121 17.5677 34.9136 17.5677 34.9136C18.2257 39.4696 8.05322 45.479 8.05322 45.479C19.6075 43.0334 21.4367 49.2804 21.4367 49.2804V49.2664Z" stroke="#F1F2F2" stroke-width="7" stroke-linecap="round" stroke-linejoin="round"/>
<path d="M26.4505 110.856C31.8986 105.671 32.504 110.297 34.4648 114.951C34.4648 114.951 34.7675 108.424 46.5322 107.711C46.5322 107.711 35.2675 104.609 34.8201 100.011C34.8201 100.011 29.5957 103.617 23.4764 100.43C23.4764 100.43 27.0295 104.763 26.4505 110.856Z" stroke="#F1F2F2" stroke-width="7" stroke-linecap="round" stroke-linejoin="round"/>
<path d="M25.9636 95.6506L22.8316 96.9923L22.8842 93.708L21.2524 96.3214C21.2524 96.3214 20.6076 96.9364 19.7917 97.9007C15.7911 92.4223 17.7651 86.4408 17.7651 86.4408C13.4619 87.0697 7.98743 76.1549 7.98743 76.1549C10.093 88.4533 4.18427 90.312 4.18427 90.312C8.89545 91.2484 13.2776 90.7872 9.80347 97.6211C14.3436 95.9301 18.4362 97.4954 19.6601 98.0684C18.3704 99.6057 16.7255 101.968 16.3439 104.287L19.3179 101.995L18.1073 105.671C18.1073 105.671 23.2922 101.311 23.8186 98.6973L25.9768 95.6646L25.9636 95.6506Z" stroke="#F1F2F2" stroke-width="7" stroke-linecap="round" stroke-linejoin="round"/>
<path d="M192.987 56.9809C192.987 56.9809 186.947 55.9886 187.499 43.5645C187.499 43.5645 183.446 55.0802 179.13 55.0662C179.13 55.0662 181.946 60.9219 178.353 67.0152C178.353 67.0152 182.762 63.731 188.368 64.9748C184.104 58.7278 188.473 58.5601 193 56.9809H192.987Z" stroke="#F1F2F2" stroke-width="7" stroke-linecap="round" stroke-linejoin="round"/>
<path d="M176.748 66.4702L174.155 63.8987L175.076 67.3367L172.023 66.9454L174.287 68.9299C174.287 68.9299 174.787 69.6706 175.603 70.6349C170.089 74.2685 164.72 71.5712 164.72 71.5712C164.851 76.1552 154.126 80.781 154.126 80.781C165.799 79.8447 166.904 86.2315 166.904 86.2315C168.26 81.382 168.286 76.7282 174.3 81.0885C173.195 76.1412 175.076 72.0185 175.734 70.7886C177.037 72.298 179.064 74.2685 181.183 74.9114L179.353 71.5433L182.656 73.1924C182.656 73.1924 179.13 67.2948 176.761 66.4842L176.748 66.4702Z" stroke="#F1F2F2" stroke-width="7" stroke-linecap="round" stroke-linejoin="round"/>
<path d="M171.813 32.0765C173.563 24.5437 176.524 28.0096 180.604 30.6789C180.604 30.6789 177.406 25.0888 186.749 17.4861C186.749 17.4861 175.787 21.6508 172.997 18.115C172.997 18.115 170.589 24.2223 163.838 25.2285C163.838 25.2285 169.062 26.6959 171.813 32.0765Z" stroke="#F1F2F2" stroke-width="7" stroke-linecap="round" stroke-linejoin="round"/>
<path d="M142.506 28.387C146.901 26.3466 150.283 23.3559 151.02 31.0843C153.876 26.9755 158.087 25.8295 159.403 25.564C159.153 27.6044 159.035 30.5392 159.956 32.6775L161.206 29.002L162.154 32.7613C162.154 32.7613 164.141 26.0531 163.18 23.5935L163.364 19.8061L161.482 22.7829L159.785 20.0297L159.811 23.1602C159.811 23.1602 159.601 24.0547 159.443 25.3404C153.231 23.2022 151.705 17.0669 151.705 17.0669C148.467 20.1555 138.163 14.3976 138.163 14.3976C146.415 23.314 142.506 28.3731 142.506 28.3731V28.387Z" stroke="#F1F2F2" stroke-width="7" stroke-linecap="round" stroke-linejoin="round"/>
<path d="M72.2463 140.037C23.5422 204.575 23.5422 233.77 23.5422 233.77C44.8478 224.043 42.558 234.552 86.551 247.717C130.544 260.882 181.577 226.67 181.577 226.67C147.388 217.461 114.95 135.145 114.95 135.145L72.2463 140.037Z" fill="#BE1E2D" stroke="#911928" stroke-width="0.77" stroke-miterlimit="10"/>
<path d="M78.2998 140.959C55.9941 133.818 46.5849 115.524 46.5849 115.524C64.2979 120.918 83.1163 103.952 83.1163 103.952L113.897 120.387C124.359 127.487 141.335 118.025 141.335 118.025C134.281 135.131 111.91 141.798 111.91 141.798L78.2998 140.945V140.959Z" fill="#BE1E2D" stroke="#911928" stroke-width="0.77" stroke-miterlimit="10"/>
<path d="M129.136 189.132C132.347 191.312 134.334 198.16 134.334 198.16L135.492 205.623C135.439 208.376 132.307 207.133 132.307 207.133V210.515C131.584 213.631 129.123 211.311 129.123 211.311C128.004 214.554 124.938 211.94 124.938 211.94C121.924 213.897 121.266 210.738 121.266 210.738L121.543 202.912C120.661 206.294 119.319 207.174 119.319 207.174C118.108 207.971 117.411 206.825 117.411 206.825C117.266 201.892 118.345 197.979 118.345 197.979L119.279 192.598L129.123 189.132H129.136Z" fill="#C4BDC9" stroke="#978BA0" stroke-linejoin="round"/>
<path d="M130.991 194.596C132.334 196.413 132.32 209.62 132.32 209.62" stroke="#978BA0" stroke-linecap="round" stroke-linejoin="round"/>
<path d="M128.228 197.769C129.57 199.586 129.044 211.311 129.044 211.311" stroke="#978BA0" stroke-linecap="round" stroke-linejoin="round"/>
<path d="M124.438 199.726C125.78 201.542 125.017 211.884 125.017 211.884" stroke="#978BA0" stroke-linecap="round" stroke-linejoin="round"/>
<path d="M59.8104 186.1C56.5994 188.28 54.6123 195.128 54.6123 195.128L53.4543 202.591C53.5069 205.344 56.6389 204.1 56.6389 204.1V207.482C57.3627 210.599 59.8236 208.279 59.8236 208.279C60.9421 211.521 64.0084 208.908 64.0084 208.908C67.0219 210.864 67.6799 207.706 67.6799 207.706L67.4036 199.879C68.2853 203.261 69.6276 204.142 69.6276 204.142C70.8383 204.939 71.5357 203.793 71.5357 203.793C71.6805 198.859 70.6014 194.946 70.6014 194.946L69.667 189.566L59.8236 186.1H59.8104Z" fill="#C4BDC9" stroke="#978BA0" stroke-linejoin="round"/>
<path d="M57.9549 191.564C56.6126 193.381 56.6257 206.587 56.6257 206.587" stroke="#978BA0" stroke-linecap="round" stroke-linejoin="round"/>
<path d="M60.7052 194.736C59.3629 196.553 59.8893 208.279 59.8893 208.279" stroke="#978BA0" stroke-linecap="round" stroke-linejoin="round"/>
<path d="M64.5084 196.693C63.1661 198.51 63.9294 208.852 63.9294 208.852" stroke="#978BA0" stroke-linecap="round" stroke-linejoin="round"/>
<path d="M58.3102 179.992C55.1913 185.037 48.7825 188.294 48.7825 188.294C49.3352 193.423 53.5464 193.912 53.5464 193.912C59.4682 193.017 61.4159 196.371 61.4159 196.371C64.39 199.334 67.6404 195.784 67.6404 195.784C71.7331 192.626 74.1413 194.401 74.1413 194.401C78.1419 195.589 78.2998 193.115 78.2998 193.115C75.4441 190.949 73.5886 183.444 73.5886 183.444C70.5224 184.926 58.3102 179.978 58.3102 179.978V179.992Z" fill="#F1F2F2" stroke="#A7A9AC" stroke-width="0.89" stroke-miterlimit="10"/>
<path d="M131.689 183.458C134.808 188.503 141.216 191.76 141.216 191.76C140.664 196.889 136.453 197.378 136.453 197.378C130.531 196.483 128.583 199.837 128.583 199.837C125.609 202.8 122.359 199.25 122.359 199.25C118.266 196.092 115.858 197.867 115.858 197.867C111.857 199.055 111.699 196.581 111.699 196.581C114.555 194.415 117.99 185.065 117.99 185.065C121.056 186.547 131.689 183.444 131.689 183.444V183.458Z" fill="#F1F2F2" stroke="#A7A9AC" stroke-width="0.89" stroke-miterlimit="10"/>
<path d="M70.4303 150.518C66.9035 150.854 65.0479 162.551 65.0479 162.551C62.008 171.426 60.4026 172.418 60.4026 172.418C56.1256 175.646 58.7313 181.166 58.7313 181.166C61.5738 184.786 67.1535 183.472 67.1535 183.472C70.246 185.834 77.7471 182.354 77.7471 182.354C81.3397 177.756 79.2999 171.999 79.2999 171.999C79.4973 163.138 82.3267 158.512 82.3267 158.512C81.3923 155.787 78.9183 154.669 78.9183 154.669L70.4303 150.532V150.518Z" fill="#F1F2F2" stroke="#A7A9AC" stroke-width="1.02" stroke-miterlimit="10"/>
<path d="M121.701 156.625C124.78 156.919 126.399 167.135 126.399 167.135C129.044 174.877 130.452 175.744 130.452 175.744C134.176 178.553 131.913 183.374 131.913 183.374C129.425 186.533 124.556 185.387 124.556 185.387C121.859 187.455 115.318 184.409 115.318 184.409C112.186 180.398 113.963 175.38 113.963 175.38C113.792 167.652 111.318 163.613 111.318 163.613C112.133 161.237 114.292 160.259 114.292 160.259L121.701 156.639V156.625Z" fill="#F1F2F2" stroke="#A7A9AC" stroke-width="0.89" stroke-miterlimit="10"/>
<path d="M72.3779 146.046L70.4303 150.518C72.5622 157.031 81.695 156.933 81.695 156.933L82.6688 151.483C79.4316 151.692 72.3779 146.032 72.3779 146.032V146.046Z" fill="#393536" stroke="#231F20" stroke-width="0.99" stroke-miterlimit="10"/>
<path d="M119.305 153.062L121.253 157.534C119.121 164.046 109.988 163.948 109.988 163.948L109.015 158.498C112.252 158.708 119.305 153.048 119.305 153.048V153.062Z" fill="#393536" stroke="#231F20" stroke-width="0.99" stroke-miterlimit="10"/>
<path d="M84.6033 130.128C80.3659 127.431 77.2996 133.357 77.2996 133.357C75.4441 137.465 73.5491 139.268 72.2463 140.051C70.6935 140.987 69.7591 142.804 70.1013 144.663C70.3908 146.242 71.0751 147.318 71.0751 147.318C74.2071 153.425 84.6033 152.503 84.6033 152.503C88.9986 145.11 84.6033 130.142 84.6033 130.142V130.128Z" fill="#F1F2F2" stroke="#A7A9AC" stroke-width="1.02" stroke-miterlimit="10"/>
<path d="M110.002 133.943C113.647 130.981 116.279 137.479 116.279 137.479C117.871 141.993 119.503 143.964 120.622 144.83C121.964 145.851 122.753 147.849 122.464 149.889C122.214 151.622 121.622 152.81 121.622 152.81C119.779 158.289 109.988 158.498 109.988 158.498C106.212 150.379 109.988 133.943 109.988 133.943H110.002Z" fill="#F1F2F2" stroke="#A7A9AC" stroke-width="0.99" stroke-miterlimit="10"/>
<path d="M87.6169 127.766L84.6033 130.128C87.5116 136.054 82.9979 148.478 82.9979 148.478L81.695 160.581C99.5265 171.635 113.897 160.776 113.897 160.776C114.265 147.751 109.909 133.943 109.909 133.943C106.83 133.356 103.672 129.345 103.672 129.345L87.6038 127.766H87.6169Z" fill="#393536" stroke="#231F20" stroke-width="1.02" stroke-miterlimit="10"/>
<path d="M95.8943 138.094C93.1966 142.398 89.196 152.768 89.196 152.768C90.8673 155.284 92.815 155.172 95.2364 153.062C97.6577 150.951 99.658 148.017 102.527 152.95C105.396 157.883 106.462 149.861 107.541 150.141C108.62 150.42 110.62 151.399 110.62 151.399L100.908 137.423L95.8943 138.094Z" fill="#D1D3D4" stroke="#A7A9AC" stroke-width="1.19" stroke-miterlimit="10"/>
<path d="M95.6575 133.049C93.3282 136.752 89.8936 145.683 89.8936 145.683C91.328 147.849 92.9992 147.751 95.0916 145.934C97.184 144.117 98.8948 141.588 101.356 145.836C103.817 150.085 104.751 143.167 105.672 143.419C106.593 143.67 108.317 144.509 108.317 144.509L99.9607 132.49L95.6444 133.077L95.6575 133.049Z" fill="#D1D3D4" stroke="#A7A9AC" stroke-width="1.02" stroke-miterlimit="10"/>
<path d="M81.6951 160.581C81.1029 169.455 79.2868 171.998 79.2868 171.998C77.2076 176.079 75.3257 183.137 75.3257 183.137C105.238 201.878 118.45 183.57 118.45 183.57C116.437 177.225 114.305 160.581 114.305 160.581C96.4076 171.425 81.6951 160.581 81.6951 160.581Z" fill="#BE1E2D" stroke="#911928" stroke-width="0.99" stroke-miterlimit="10"/>
<path d="M96.8945 172.879C97.832 172.879 98.5921 171.628 98.5921 170.084C98.5921 168.54 97.832 167.289 96.8945 167.289C95.9569 167.289 95.1969 168.54 95.1969 170.084C95.1969 171.628 95.9569 172.879 96.8945 172.879Z" fill="#D6AB32" stroke="#B7921C" stroke-width="0.77" stroke-miterlimit="10"/>
<path d="M106.633 172.418C107.57 172.418 108.33 171.166 108.33 169.623C108.33 168.079 107.57 166.827 106.633 166.827C105.695 166.827 104.935 168.079 104.935 169.623C104.935 171.166 105.695 172.418 106.633 172.418Z" fill="#D6AB32" stroke="#B7921C" stroke-width="0.77" stroke-miterlimit="10"/>
<path d="M96.5786 183.472C97.5162 183.472 98.2763 182.221 98.2763 180.677C98.2763 179.133 97.5162 177.882 96.5786 177.882C95.6411 177.882 94.881 179.133 94.881 180.677C94.881 182.221 95.6411 183.472 96.5786 183.472Z" fill="#D6AB32" stroke="#B7921C" stroke-width="0.77" stroke-miterlimit="10"/>
<path d="M107.317 183.472C108.255 183.472 109.015 182.221 109.015 180.677C109.015 179.133 108.255 177.882 107.317 177.882C106.379 177.882 105.619 179.133 105.619 180.677C105.619 182.221 106.379 183.472 107.317 183.472Z" fill="#D6AB32" stroke="#B7921C" stroke-width="0.77" stroke-miterlimit="10"/>
<path d="M87.6169 121.589V127.766C96.8024 135.09 103.685 129.346 103.685 129.346V122.456L87.6169 121.589Z" fill="#F1F2F2" stroke="#A7A9AC" stroke-width="1.02" stroke-miterlimit="10"/>
<path d="M98.579 137.032C99.9962 137.032 101.145 134.992 101.145 132.476C101.145 129.96 99.9962 127.92 98.579 127.92C97.1617 127.92 96.0128 129.96 96.0128 132.476C96.0128 134.992 97.1617 137.032 98.579 137.032Z" fill="#BE1E2D" stroke="#B7921C" stroke-width="1.02" stroke-miterlimit="10"/>
<path d="M71.8252 262.713C70.8909 268.401 73.1149 273.334 73.1149 273.334C79.7079 278.756 92.7097 274.228 92.7097 274.228C95.2232 269.491 88.1564 263.873 88.1564 263.873L71.8121 262.727L71.8252 262.713Z" fill="#393536" stroke="#231F20" stroke-width="0.99" stroke-miterlimit="10"/>
<path d="M105.172 259.023C104.238 265.354 106.462 270.847 106.462 270.847C113.055 276.898 126.056 271.839 126.056 271.839C128.57 266.556 121.503 260.295 121.503 260.295L105.159 259.023H105.172Z" fill="#393536" stroke="#231F20" stroke-width="1.05" stroke-miterlimit="10"/>
<path d="M75.3257 183.137C73.0885 191.159 73.3386 223.386 73.3386 223.386C73.2201 226.81 72.1016 231.408 72.1016 231.408C70.1144 241.274 69.009 260.602 69.009 260.602C78.9183 269.547 91.8017 263.104 91.8017 263.104C90.8147 247.843 94.4073 231.408 94.4073 231.408C93.9072 217.46 97.8288 198.789 97.8288 198.789C100.606 216.678 100.856 227.075 100.856 227.075C99.987 238.382 101.356 260.085 101.356 260.085C118.082 267.45 124.148 257.067 124.148 257.067C120.306 241.288 121.293 213.394 121.293 213.394C121.793 191.815 118.49 183.57 118.49 183.57C101.369 195.114 75.3652 183.137 75.3652 183.137H75.3257Z" fill="#393536" stroke="#231F20" stroke-width="0.89" stroke-miterlimit="10"/>
<path d="M144.085 85.0154C147.257 79.1736 150.376 78.0416 150.376 78.0416C149.876 93.0372 141.953 100.277 141.953 100.277C141.453 95.9302 144.085 85.0154 144.085 85.0154Z" fill="#CDC7D1" stroke="#978BA0" stroke-linecap="round" stroke-linejoin="round"/>
<path d="M139.782 63.004C144.796 68.6361 143.546 78.7683 143.546 78.7683C141.874 91.3322 143.69 96.9643 143.69 96.9643C145.914 105.643 138.255 114.783 138.255 114.783C120.714 128.339 105.817 126.201 105.817 126.201C86.8799 125.893 73.786 120.569 73.786 120.569C62.087 115.999 56.9415 108.382 56.9415 108.382C56.7968 111.121 54.4412 110.213 54.4412 110.213C45.3873 107.628 42.7422 98.0264 42.7422 98.0264C38.7022 89.9486 40.3735 85.9936 40.3735 85.9936C42.0447 84.624 50.4012 90.4098 50.4012 90.4098C55.8361 94.2112 58.0601 101.534 58.0601 101.534C59.3103 99.7035 60.0078 97.5792 60.0078 97.5792C60.9816 101.842 65.1532 104.581 65.1532 104.581C62.2318 96.0559 64.3242 88.593 64.3242 88.593C62.2318 89.6552 61.4027 90.4238 61.4027 90.4238C62.9292 83.5759 73.2333 69.0973 73.2333 69.0973C70.1671 70.4669 68.4958 71.6828 68.4958 71.6828C70.5882 65.282 84.7875 57.5117 84.7875 57.5117C80.8923 57.0505 78.3787 57.5117 78.3787 57.5117C84.0901 54.3113 100.105 55.8347 100.105 55.8347C97.8815 52.3268 96.6971 51.8796 96.6971 51.8796C102.895 51.4184 116.121 57.8192 116.121 57.8192L115.147 54.6188C119.463 54.9263 121.687 58.8813 121.687 58.8813C122.688 56.1701 125.925 53.5147 125.925 53.5147C125.398 54.7725 125.517 56.1701 125.517 56.1701C129.373 52.802 135.071 54.0318 135.071 54.0318C133.018 54.8145 132.649 55.8766 132.649 55.8766C139.44 57.5816 142.796 62.7245 142.796 62.7245C141.361 62.2773 139.795 63.018 139.795 63.018L139.782 63.004Z" fill="#C4BDC9" stroke="#978BA0" stroke-width="1.02" stroke-miterlimit="10"/>
<path d="M107.883 86.0914C105.856 80.6969 94.3678 74.5337 91.5121 74.7433" stroke="#444141" stroke-linecap="round" stroke-linejoin="round"/>
<path d="M126.241 86.0913C128.267 80.6968 137.94 75.3721 140.795 75.5818" stroke="#444141" stroke-linecap="round" stroke-linejoin="round"/>
<path d="M43.216 90.3681C45.8479 91.6398 48.6773 94.5188 50.3091 96.3356C51.2697 97.3977 51.8356 98.7952 51.9277 100.263C52.0988 103.17 52.0067 105.965 54.2701 106.118" stroke="#978BA0" stroke-miterlimit="10" stroke-linecap="round"/>
<path d="M50.2959 96.3355C45.6242 94.5746 44.9662 96.3355 44.9662 96.3355" stroke="#978BA0" stroke-miterlimit="10" stroke-linecap="round"/>
<path d="M96.8156 105.615C100.609 105.615 103.685 100.478 103.685 94.1414C103.685 87.8046 100.609 82.6676 96.8156 82.6676C93.0217 82.6676 89.9462 87.8046 89.9462 94.1414C89.9462 100.478 93.0217 105.615 96.8156 105.615Z" fill="#231F20"/>
<path d="M132.794 104.581C136.421 104.581 139.361 99.6755 139.361 93.6243C139.361 87.5731 136.421 82.6676 132.794 82.6676C129.168 82.6676 126.228 87.5731 126.228 93.6243C126.228 99.6755 129.168 104.581 132.794 104.581Z" fill="#231F20"/>
<path d="M95.7627 15.3059C74.7072 9.38033 66.6534 14.3835 66.6534 14.3835C71.233 14.3835 72.8517 16.0885 72.8517 16.0885C52.4146 20.8262 43.9924 27.9257 43.9924 27.9257C49.3221 27.6602 53.0331 30.036 53.0331 30.036C38.0442 40.9508 34.7016 55.8206 34.7016 55.8206C39.1628 52.2709 41.2683 50.5659 41.2683 50.5659C32.9645 69.3768 33.7146 82.1364 33.7146 82.1364C35.8202 76.8816 39.1628 73.8489 39.1628 73.8489C36.4387 82.4019 40.0313 88.579 40.0313 88.579C41.0183 85.5603 43.216 87.5309 43.216 87.5309C55.8756 92.6598 58.4944 102.415 58.4944 102.415L60.4289 98.5854C61.2053 100.64 65.5612 105.35 65.5612 105.35C62.7055 97.2577 64.7321 89.9067 64.7321 89.9067L61.8238 91.6676C61.4685 84.9035 73.6018 71.0678 73.6018 71.0678C71.233 71.0259 68.8906 73.5694 68.8906 73.5694C70.5356 68.3566 85.1034 59.8875 85.1034 59.8875C81.9714 59.6918 78.7341 59.8875 78.7341 59.8875C85.8666 56.3238 100.342 58.2663 100.342 58.2663C99.4343 55.0939 96.9471 54.4371 96.9471 54.4371C102.961 53.5985 116.2 60.4605 116.2 60.4605C116.384 57.6934 116.2 57.4558 116.2 57.4558C119.082 57.8471 121.78 61.299 121.78 61.299C123.688 56.757 126.28 56.4635 126.28 56.4635C125.912 57.8471 126.004 58.8813 126.004 58.8813C133.847 55.1358 136.36 56.2679 136.36 56.2679C135.242 57.0505 133.9 58.434 133.9 58.434C138.69 58.8254 142.401 64.4016 142.401 64.4016C139.611 64.0102 139.387 64.15 139.387 64.15C142.401 67.0569 143.098 91.43 143.098 91.43C146.401 87.9222 149.231 68.4404 149.231 68.4404C152.481 72.1439 153.968 72.0461 153.968 72.0461C149.783 64.3037 149.599 56.0163 149.599 56.0163C149.599 49.5038 147.375 46.0518 147.375 46.0518C150.902 46.2475 152.665 43.9835 152.665 43.9835C148.77 42.7956 143.006 39.0501 143.006 39.0501C148.862 38.4632 149.507 36.5905 149.507 36.5905C142.164 34.6199 138.269 28.303 138.269 28.303C132.886 22.084 128.333 21.1057 128.333 21.1057C132.61 17.7516 131.584 14.8866 131.584 14.8866C127.307 18.2407 114.397 16.8572 114.397 16.8572C116.252 13.6009 120.714 13.0139 120.714 13.0139C110.12 9.75767 95.7891 15.3199 95.7891 15.3199L95.7627 15.3059Z" fill="#444141" stroke="#231F20" stroke-linecap="round" stroke-linejoin="round"/>
<path d="M121.648 59.8175C121.148 52.9835 126.543 45.6185 126.543 45.6185C129.767 41.7333 131.004 45.2272 131.004 45.2272C134.044 49.8251 133.544 70.0894 133.544 70.0894C132.807 76.1408 128.596 84.4282 128.596 84.4282C131.755 67.6577 128.662 50.9571 128.662 50.9571C126.675 51.2925 121.661 59.8315 121.661 59.8315L121.648 59.8175Z" fill="#444141" stroke="#231F20" stroke-linecap="round" stroke-linejoin="round"/>
<path d="M120.898 59.8175C121.398 52.9835 116.002 45.6185 116.002 45.6185C112.778 41.7333 111.541 45.2272 111.541 45.2272C108.501 49.8251 109.001 70.0894 109.001 70.0894C109.738 76.1408 113.95 84.4282 113.95 84.4282C110.791 67.6577 113.884 50.9571 113.884 50.9571C115.871 51.2925 120.885 59.8315 120.885 59.8315L120.898 59.8175Z" fill="#444141" stroke="#231F20" stroke-linecap="round" stroke-linejoin="round"/>
<path d="M109.923 112.589L111.607 116.851L113.897 113.316L109.923 112.589Z" fill="#F1F2F2" stroke="#A7A9AC" stroke-linecap="round" stroke-linejoin="round"/>
<path d="M122.03 111.499C121.016 112.379 112.16 112.98 112.16 112.98C110.541 113.022 107.883 111.834 107.883 111.834" fill="#CDC7D1"/>
<path d="M122.03 111.499C121.016 112.379 112.16 112.98 112.16 112.98C110.541 113.022 107.883 111.834 107.883 111.834" stroke="#978BA0" stroke-linecap="round" stroke-linejoin="round"/>
<path d="M30.4643 28.8202C33.3594 22.2657 29.8721 16.7874 29.8721 16.7874C34.1885 16.2423 36.9125 4.22348 36.9125 4.22348C37.7811 16.6896 43.9267 16.9132 43.9267 16.9132C39.5839 19.0654 35.2412 19.7921 40.2156 25.4941C34.478 24.977 30.4511 28.8202 30.4511 28.8202H30.4643Z" fill="#393536" stroke="#231F20" stroke-width="0.75" stroke-linecap="round" stroke-linejoin="round"/>
<path d="M28.464 32.5096C23.2922 37.2194 17.3835 35.123 17.3835 35.123C18.0415 39.679 7.86899 45.6885 7.86899 45.6885C19.4232 43.2428 21.2524 49.4898 21.2524 49.4898C22.0552 44.4726 21.5551 39.8188 28.0428 43.3965C26.0426 37.6526 28.464 32.5236 28.464 32.5236V32.5096Z" fill="#393536" stroke="#231F20" stroke-width="0.75" stroke-linecap="round" stroke-linejoin="round"/>
<path d="M26.6216 31.2519L24.1344 29.5608H27.2269L25.911 26.2487L28.8061 28.4847C31.267 28.9878 35.4649 34.4243 35.4649 34.4243L31.9908 33.2084L34.2016 36.3249C30.5037 35.71 26.6216 31.2379 26.6216 31.2379V31.2519Z" fill="#393536" stroke="#231F20" stroke-width="0.75" stroke-linecap="round" stroke-linejoin="round"/>
<path d="M23.2922 100.654C29.4114 103.84 34.6359 100.235 34.6359 100.235C35.0701 104.833 46.348 107.935 46.348 107.935C34.5964 108.648 34.2805 115.174 34.2805 115.174C32.3197 110.535 31.7144 105.895 26.2663 111.08C26.8453 105 23.2922 100.654 23.2922 100.654Z" fill="#393536" stroke="#231F20" stroke-width="0.75" stroke-linecap="round" stroke-linejoin="round"/>
<path d="M19.8443 98.4598C15.4884 92.8836 17.5808 86.6506 17.5808 86.6506C13.2776 87.2795 7.80316 76.3647 7.80316 76.3647C9.90872 88.6631 4 90.5218 4 90.5218C8.71118 91.4581 13.0934 90.9969 9.6192 97.8309C15.0542 95.8045 19.8575 98.4598 19.8575 98.4598H19.8443Z" fill="#393536" stroke="#231F20" stroke-width="0.75" stroke-linecap="round" stroke-linejoin="round"/>
<path d="M21.055 96.5313L22.6868 93.9179L22.6342 97.2021L25.7662 95.8605L23.608 98.8932C23.0948 101.507 17.8967 105.867 17.8967 105.867L19.1074 102.191L16.1333 104.483C16.7781 100.57 21.0418 96.5313 21.0418 96.5313H21.055Z" fill="#393536" stroke="#231F20" stroke-width="0.75" stroke-linecap="round" stroke-linejoin="round"/>
<path d="M178.156 67.2246C181.762 61.1313 178.932 55.2756 178.932 55.2756C183.249 55.2896 187.302 43.7739 187.302 43.7739C186.749 56.198 192.789 57.1903 192.789 57.1903C188.262 58.7695 183.88 58.9232 188.157 65.1842C182.551 63.9404 178.143 67.2246 178.143 67.2246H178.156Z" fill="#393536" stroke="#231F20" stroke-width="0.75" stroke-linecap="round" stroke-linejoin="round"/>
<path d="M175.748 70.6206C170.115 74.6176 164.522 71.7806 164.522 71.7806C164.654 76.3645 153.929 80.9904 153.929 80.9904C165.601 80.054 166.707 86.4408 166.707 86.4408C168.062 81.5913 168.089 76.9375 174.103 81.2978C172.787 75.3862 175.748 70.6206 175.748 70.6206Z" fill="#393536" stroke="#231F20" stroke-width="0.75" stroke-linecap="round" stroke-linejoin="round"/>
<path d="M174.089 69.1394L171.826 67.1549L174.879 67.5462L173.958 64.1082L176.55 66.6797C178.919 67.4903 182.446 73.3879 182.446 73.3879L179.143 71.7388L180.972 75.1069C177.393 74.0308 174.076 69.1254 174.076 69.1254L174.089 69.1394Z" fill="#393536" stroke="#231F20" stroke-width="0.75" stroke-linecap="round" stroke-linejoin="round"/>
<path d="M163.654 25.4659C170.405 24.4457 172.813 18.3524 172.813 18.3524C175.603 21.8882 186.565 17.7235 186.565 17.7235C177.221 25.3262 180.419 30.9163 180.419 30.9163C176.34 28.247 173.379 24.7811 171.629 32.3139C168.891 26.9333 163.654 25.4659 163.654 25.4659Z" fill="#393536" stroke="#231F20" stroke-width="0.75" stroke-linecap="round" stroke-linejoin="round"/>
<path d="M159.64 25.7035C153.086 23.691 151.507 17.2903 151.507 17.2903C148.27 20.3789 137.966 14.621 137.966 14.621C146.217 23.5373 142.309 28.5964 142.309 28.5964C146.704 26.556 150.086 23.5653 150.823 31.2937C154.245 26.3743 159.614 25.7035 159.614 25.7035H159.64Z" fill="#393536" stroke="#231F20" stroke-width="0.75" stroke-linecap="round" stroke-linejoin="round"/>
<path d="M159.627 23.3839L159.601 20.2534L161.298 23.0065L163.18 20.0298L162.996 23.8171C163.943 26.2907 161.969 32.985 161.969 32.985L161.022 29.2256L159.772 32.9011C158.232 29.2815 159.627 23.3839 159.627 23.3839Z" fill="#393536" stroke="#231F20" stroke-width="0.75" stroke-linecap="round" stroke-linejoin="round"/>
</svg>
