<svg width="286" height="530" viewBox="0 0 286 530" fill="none" xmlns="http://www.w3.org/2000/svg">
<path d="M274.681 285.453C284.486 260.646 268.128 257.858 268.128 257.858C258.936 256.474 251.064 258.817 245.219 261.762C246.02 261.092 246.515 260.668 246.515 260.668C258.936 256.898 264.263 255.627 264.263 255.627C265.842 248.867 262.118 247.149 261.317 246.859C261.222 246.815 261.128 246.748 261.104 246.636C255.919 232.916 264.664 229.169 264.664 229.169C274.186 218.706 261.529 208.689 258.63 206.614C258.229 206.324 257.875 205.968 257.593 205.588C249.815 194.657 254.505 182.142 254.505 182.142C269.59 167.017 260.28 151.49 260.28 151.49C249.626 135.539 252.737 109.505 252.737 109.505C252.737 109.371 252.737 109.215 252.737 109.081C259.643 108.434 257.145 97.0564 255.424 91.3007C254.882 89.4714 253.397 87.999 251.488 87.5529C247.175 62.924 234.353 49.048 234.353 49.048C224.265 32.3834 210.477 24.8654 198.833 21.5637C194.779 16.6335 190.207 12.0379 184.974 8C184.974 8 178.021 9.65084 168.311 17.0127C118.649 3.71673 71.2977 30.1526 71.2977 30.1526C39.6672 50.6543 30.9464 81.2395 28.6366 93.9555C27.9295 94.2455 27.5995 94.4017 27.5995 94.4017C24.9126 97.2795 26.1618 106.426 26.9396 110.665C27.081 111.401 27.5759 111.914 28.2359 112.204C27.8823 143.838 16.2861 161.127 16.2861 161.127C-2.35757 190.151 16.2861 213.24 16.2861 213.24C29.1551 241.371 16.7339 265.019 16.7339 265.019C4.31265 279.586 18.0538 292.191 18.0538 292.191C27.8116 302.274 16.7339 306.892 16.7339 306.892C36.6974 304.371 32.7141 286.725 32.7141 286.725C26.0675 269.503 33.6098 260.267 33.6098 260.267C40.8692 251.589 39.9029 246.659 39.5022 245.454C39.5022 245.387 39.5729 245.342 39.6201 245.387C50.6507 255.716 52.3713 272.715 52.6305 277.735C52.6777 278.649 52.4184 279.564 51.8763 280.322C40.94 296.474 40.7043 306.424 40.6807 306.87C40.6807 306.87 40.6807 306.892 40.7043 306.914C51.7584 316.976 45.5596 328.309 45.5596 328.309C58.8765 325.788 57.0852 306.892 57.0852 306.892C56.1896 295.983 62.8598 288.844 62.8598 288.844C57.0381 295.091 63.0955 306.758 64.6982 309.614C61.2099 355.704 35.0004 398.336 35.0004 398.336C30.475 407.393 28.7309 413.595 28.2123 417.722C26.1618 421.001 17.7002 436.997 46.9974 435.413C47.1624 435.413 47.3038 435.39 47.4452 435.368C47.8694 435.301 48.8594 435.145 50.2264 434.989C58.2637 434.074 65.0046 440.968 63.119 448.441C63.0955 448.553 63.0719 448.642 63.0483 448.753C62.1291 452.323 63.8968 456.071 67.4323 457.543C69.8364 458.547 73.254 459.685 78.0622 460.867C78.1565 460.889 78.2508 460.912 78.3451 460.934C79.1229 461.068 83.2711 461.759 89.3757 462.518C88.5036 466.288 87.3487 469.969 87.278 473.828C87.2073 477.822 87.4194 482.439 87.7258 486.968C86.1938 488.574 80.9142 495.089 88.1265 503.276C88.1265 503.276 88.5272 503.454 89.2814 503.722C89.6585 507.091 89.9649 509.255 89.9649 509.255C95.4567 521.212 102.103 522.171 102.103 522.171C133.38 523.421 136.374 520.275 136.374 520.275C140.97 517.018 136.515 510.593 133.333 506.934C132.438 505.908 131.778 504.748 131.353 503.521C132.485 502.963 133.616 502.383 134.724 501.692C134.724 501.692 136.845 498.078 136.656 494.107C136.656 494.018 136.68 493.906 136.68 493.817C136.68 493.482 136.609 493.148 136.492 492.858C136.067 490.582 134.771 488.284 131.707 486.589C131.707 486.589 131.613 486.656 131.424 486.745C132.885 472.2 136.02 465.173 136.02 465.173C136.162 464.816 136.279 464.459 136.421 464.102C140.663 463.722 144.788 463.142 148.63 462.295C148.63 462.451 148.677 462.562 148.677 462.562C148.583 469.857 149.078 478.848 149.667 486.633C149.007 487.236 141.771 494.241 149.738 503.276C149.738 503.276 150.28 503.499 151.246 503.856C151.317 504.48 151.364 504.837 151.364 504.837C156.856 519.115 163.502 520.253 163.502 520.253C194.779 521.747 197.773 518 197.773 518C202.227 514.207 198.173 506.89 194.992 502.473C195.439 502.227 195.887 501.982 196.311 501.714C196.311 501.714 198.433 498.1 198.244 494.129C198.244 494.04 198.268 493.928 198.268 493.839C198.268 493.505 198.197 493.17 198.079 492.88C197.655 490.604 196.359 488.307 193.294 486.611C193.294 486.611 192.917 486.834 192.234 487.191C192.399 482.93 192.658 479.049 193.012 475.568C193.766 470.594 194.237 466.913 194.52 464.258C195.062 461.157 195.604 458.658 196.076 456.762C201.45 457.052 207.153 457.61 213.234 458.614C215.238 458.948 217.288 459.06 219.315 458.881C226.952 458.234 246.02 455.424 260.94 443.31C271.192 436.283 273.172 429.099 273.172 429.099C273.479 421.269 263.367 407.661 263.367 407.661C251.417 374.911 256.013 338.749 256.013 338.749C263.98 305.375 274.681 285.543 274.681 285.543V285.453ZM204.325 106.783C204.113 105.467 203.83 104.307 203.547 103.281C203.736 103.281 203.901 103.303 204.089 103.325C204.49 104.463 204.749 105.623 204.938 106.761L204.325 106.805V106.783ZM234.164 269.57C233.599 270.105 232.986 270.551 232.397 271.042V270.574C232.986 270.239 233.599 269.904 234.164 269.57Z" fill="#A7A9AC" stroke="#F1F2F2" stroke-width="15" stroke-linejoin="round"/>
<path d="M232.609 175.472H98.8271V302.096H232.609V175.472Z" fill="#40484F"/>
<path d="M112.639 236.843L72.2169 265.554L65.1696 305.085C63.3312 353.071 35.1654 398.849 35.1654 398.849C24.7476 419.707 29.0373 425.508 29.0373 425.508C55.0582 436.528 60.6206 433.628 60.6206 433.628C66.136 437.688 64.2032 450.248 64.2032 450.248C63.0955 454.576 72.4291 457.654 72.4291 457.654C94.4432 462.652 120.252 464.86 131.33 463.945C134.017 463.722 136.562 462.964 139.037 461.938C156.007 454.799 213.046 456.829 213.046 456.829C266.62 454.219 273.361 429.59 273.361 429.59C273.667 421.76 263.556 408.151 263.556 408.151C251.606 375.402 256.202 339.24 256.202 339.24C264.169 305.866 274.869 286.033 274.869 286.033C284.674 261.226 268.317 258.438 268.317 258.438C248.235 255.426 234.329 270.15 234.329 270.15C219.15 284.115 198.645 279.943 198.645 279.943C187.921 272.514 181.981 258.438 181.981 258.438C176.301 246.458 159.331 239.765 159.331 239.765L112.615 236.843H112.639Z" fill="#F1F2F2" stroke="#D1D3D4" stroke-miterlimit="10"/>
<path d="M28.778 417.677C57.7216 378.124 101.561 362.954 104.484 361.972C104.602 361.927 104.696 361.883 104.814 361.838C122.68 353.517 131.448 354.075 135.407 355.48C137.222 356.127 138.33 357.89 137.976 359.697C135.407 372.703 116.151 385.017 114.407 386.11C114.312 386.177 114.218 386.222 114.147 386.289C85.5338 407.906 84.9917 421.202 85.251 424.057C85.2746 424.392 85.3688 424.727 85.5103 425.061C89.7057 435.301 103.305 433.137 103.305 433.137C131.872 432.557 147.404 421.001 149.361 419.439C149.502 419.328 149.667 419.216 149.832 419.105C172.223 405.786 187.001 404.827 189.948 404.76C190.301 404.76 190.655 404.783 190.985 404.872C200.931 407.303 194.473 417.677 194.473 417.677C190.136 425.329 201.615 427.537 204.702 427.984C205.174 428.051 205.645 428.028 206.116 427.961C252.478 418.993 264.357 423.678 264.357 423.678C278.004 428.72 271.004 433.315 271.004 433.315C256.084 454.486 229.003 458.591 219.504 459.394C217.477 459.573 215.426 459.461 213.423 459.127C177.031 453.192 152.377 461.603 149.502 462.629C149.313 462.696 149.125 462.763 148.913 462.808C121.878 468.786 81.1263 461.96 78.4865 461.491C78.3922 461.491 78.2979 461.447 78.2037 461.424C73.3954 460.242 70.0014 459.104 67.5737 458.1C64.0383 456.606 62.247 452.858 63.1898 449.311C63.2133 449.199 63.2369 449.11 63.2605 448.998C65.146 441.525 58.4287 434.632 50.3678 435.546C49.0244 435.702 48.0109 435.859 47.5866 435.926C47.4452 435.948 47.2802 435.97 47.1388 435.97C14.5183 437.755 28.7544 417.699 28.7544 417.699L28.778 417.677Z" fill="#A7A9AC" stroke="#939598" stroke-miterlimit="10"/>
<path d="M142.785 424.392C142.785 424.392 146.179 440.498 136.185 465.685C136.185 465.685 131.165 476.884 130.858 500.353C130.835 502.941 131.73 505.484 133.475 507.469C136.657 511.128 141.111 517.553 136.515 520.81C136.515 520.81 133.522 523.955 102.245 522.706C102.245 522.706 95.5981 521.769 90.1063 509.789C90.1063 509.789 87.2309 488.395 87.443 474.363C87.5137 470.481 88.6922 466.778 89.5407 462.963C94.561 440.967 96.9416 433.047 96.9416 433.047C114.077 435.702 142.761 424.392 142.761 424.392H142.785Z" fill="#EAE4ED" stroke="#AF9AA5" stroke-miterlimit="10"/>
<path d="M88.2679 487.102C110.895 499.706 131.848 487.102 131.848 487.102C140.852 492.143 134.842 502.227 134.842 502.227C114.218 514.831 88.2679 503.811 88.2679 503.811C79.9478 494.352 88.2679 487.124 88.2679 487.124V487.102Z" fill="#A8AFAF" stroke="#747A7F" stroke-width="0.75" stroke-miterlimit="10"/>
<path d="M91.5205 500.487C93.3169 500.487 94.7731 499.108 94.7731 497.408C94.7731 495.708 93.3169 494.33 91.5205 494.33C89.7241 494.33 88.2679 495.708 88.2679 497.408C88.2679 499.108 89.7241 500.487 91.5205 500.487Z" fill="#A8AFAF" stroke="#747A7F" stroke-width="0.75" stroke-miterlimit="10"/>
<path d="M107.454 503.565C109.25 503.565 110.706 502.187 110.706 500.486C110.706 498.786 109.25 497.408 107.454 497.408C105.657 497.408 104.201 498.786 104.201 500.486C104.201 502.187 105.657 503.565 107.454 503.565Z" fill="#A8AFAF" stroke="#747A7F" stroke-width="0.75" stroke-miterlimit="10"/>
<path d="M123.269 502.138C125.065 502.138 126.521 500.759 126.521 499.059C126.521 497.359 125.065 495.98 123.269 495.98C121.473 495.98 120.016 497.359 120.016 499.059C120.016 500.759 121.473 502.138 123.269 502.138Z" fill="#A8AFAF" stroke="#747A7F" stroke-width="0.75" stroke-miterlimit="10"/>
<path d="M133.569 497.43C135.365 497.43 136.822 496.052 136.822 494.352C136.822 492.651 135.365 491.273 133.569 491.273C131.773 491.273 130.316 492.651 130.316 494.352C130.316 496.052 131.773 497.43 133.569 497.43Z" fill="#A8AFAF" stroke="#747A7F" stroke-width="0.75" stroke-miterlimit="10"/>
<path d="M150.94 449.489C149.596 453.862 148.889 458.435 148.842 463.075C148.63 479.807 151.505 505.35 151.505 505.35C156.997 519.628 163.644 520.765 163.644 520.765C194.921 522.26 197.914 518.512 197.914 518.512C202.51 514.608 198.056 506.956 194.874 502.584C193.13 500.197 192.234 497.185 192.257 494.084C192.564 466.087 197.584 452.724 197.584 452.724C207.578 422.652 201.709 428.162 201.709 428.162" fill="#EAE4ED"/>
<path d="M150.94 449.489C149.596 453.862 148.889 458.435 148.842 463.075C148.63 479.807 151.505 505.35 151.505 505.35C156.997 519.628 163.644 520.765 163.644 520.765C194.921 522.26 197.914 518.512 197.914 518.512C202.51 514.608 198.056 506.956 194.874 502.584C193.13 500.197 192.234 497.185 192.257 494.084C192.564 466.087 197.584 452.724 197.584 452.724C207.578 422.652 201.709 428.162 201.709 428.162" stroke="#AF9AA5" stroke-width="1.09" stroke-miterlimit="10"/>
<path d="M152.165 434.185L201.709 428.162C203.264 441.703 200.413 443.02 200.413 443.02L150.94 449.489C152.825 443.644 152.165 434.185 152.165 434.185Z" fill="#F1F2F2" stroke="#BCBEC0" stroke-miterlimit="10"/>
<path d="M148.842 463.075L193.2 476.081C195.204 462.785 195.204 458.747 195.204 458.747L150.963 449.489C147.522 454.04 148.866 463.075 148.866 463.075H148.842Z" fill="#F1F2F2" stroke="#BCBEC0" stroke-miterlimit="10"/>
<path d="M149.879 487.102C172.506 499.706 193.459 487.102 193.459 487.102C202.463 492.143 196.453 502.227 196.453 502.227C175.829 514.831 149.879 503.811 149.879 503.811C141.559 494.352 149.879 487.124 149.879 487.124V487.102Z" fill="#A8AFAF" stroke="#747A7F" stroke-width="0.75" stroke-miterlimit="10"/>
<path d="M153.132 500.487C154.928 500.487 156.384 499.108 156.384 497.408C156.384 495.708 154.928 494.33 153.132 494.33C151.335 494.33 149.879 495.708 149.879 497.408C149.879 499.108 151.335 500.487 153.132 500.487Z" fill="#A8AFAF" stroke="#747A7F" stroke-width="0.75" stroke-miterlimit="10"/>
<path d="M169.065 503.565C170.861 503.565 172.317 502.187 172.317 500.486C172.317 498.786 170.861 497.408 169.065 497.408C167.268 497.408 165.812 498.786 165.812 500.486C165.812 502.187 167.268 503.565 169.065 503.565Z" fill="#A8AFAF" stroke="#747A7F" stroke-width="0.75" stroke-miterlimit="10"/>
<path d="M184.904 502.138C186.7 502.138 188.156 500.759 188.156 499.059C188.156 497.359 186.7 495.98 184.904 495.98C183.107 495.98 181.651 497.359 181.651 499.059C181.651 500.759 183.107 502.138 184.904 502.138Z" fill="#A8AFAF" stroke="#747A7F" stroke-width="0.75" stroke-miterlimit="10"/>
<path d="M195.204 497.43C197 497.43 198.456 496.052 198.456 494.352C198.456 492.651 197 491.273 195.204 491.273C193.407 491.273 191.951 492.651 191.951 494.352C191.951 496.052 193.407 497.43 195.204 497.43Z" fill="#A8AFAF" stroke="#747A7F" stroke-width="0.75" stroke-miterlimit="10"/>
<path d="M158.671 260.87L154.31 263.056C153.344 263.524 152.99 264.662 153.485 265.554L157.398 272.582C157.893 273.496 159.095 273.831 160.038 273.362L164.398 271.176C165.364 270.708 165.718 269.57 165.223 268.678L161.31 261.65C160.815 260.736 159.613 260.401 158.671 260.87ZM161.876 268.254C162.088 268.655 161.947 269.124 161.523 269.347L160.085 270.061C159.661 270.262 159.166 270.128 158.93 269.726L156.856 266.001C156.644 265.599 156.785 265.131 157.209 264.907L158.647 264.194C159.071 263.993 159.566 264.127 159.802 264.528L161.876 268.254Z" fill="#A8AFAF" stroke="#747A7F" stroke-width="0.75" stroke-miterlimit="10"/>
<path d="M166.307 276.753L161.523 277.913C160.485 278.158 159.849 279.185 160.108 280.166L162.206 287.863C162.465 288.844 163.55 289.447 164.587 289.201L169.371 288.041C170.408 287.796 171.045 286.77 170.785 285.788L168.688 278.092C168.428 277.11 167.344 276.508 166.307 276.753ZM167.627 284.628C167.745 285.052 167.462 285.498 167.014 285.61L165.435 285.989C164.987 286.1 164.516 285.833 164.398 285.409L163.29 281.326C163.172 280.902 163.455 280.456 163.903 280.345L165.482 279.965C165.93 279.854 166.401 280.122 166.519 280.545L167.627 284.628Z" fill="#A8AFAF" stroke="#747A7F" stroke-width="0.75" stroke-miterlimit="10"/>
<path d="M168.051 296.653L163.172 296.006C162.112 295.872 161.122 296.564 160.957 297.59L159.802 305.465C159.66 306.469 160.391 307.406 161.475 307.562L166.354 308.209C167.415 308.343 168.405 307.651 168.57 306.625L169.725 298.75C169.866 297.746 169.136 296.809 168.051 296.653ZM166.095 304.416C166.024 304.862 165.6 305.152 165.129 305.108L163.526 304.907C163.055 304.84 162.748 304.439 162.795 303.992L163.408 299.821C163.479 299.374 163.903 299.084 164.374 299.129L165.977 299.33C166.449 299.397 166.755 299.798 166.708 300.244L166.095 304.416Z" fill="#A8AFAF" stroke="#747A7F" stroke-width="0.75" stroke-miterlimit="10"/>
<path d="M161.923 314.455L157.634 312.157C156.691 311.644 155.489 311.957 154.97 312.849L150.822 319.765C150.28 320.657 150.61 321.795 151.553 322.285L155.842 324.583C156.785 325.096 157.987 324.784 158.506 323.892L162.654 316.976C163.196 316.084 162.866 314.946 161.923 314.455ZM157.091 320.969C156.856 321.348 156.337 321.482 155.936 321.282L154.522 320.523C154.122 320.3 153.98 319.809 154.192 319.43L156.384 315.749C156.62 315.37 157.139 315.236 157.539 315.437L158.953 316.195C159.354 316.418 159.496 316.909 159.283 317.288L157.091 320.969Z" fill="#A8AFAF" stroke="#747A7F" stroke-width="0.75" stroke-miterlimit="10"/>
<path d="M153.108 330.696L148.488 329.045C147.475 328.688 146.344 329.157 145.967 330.116L142.997 337.545C142.62 338.504 143.115 339.575 144.128 339.932L148.748 341.583C149.761 341.94 150.893 341.471 151.27 340.512L154.239 333.083C154.617 332.124 154.122 331.053 153.108 330.696ZM149.408 337.857C149.243 338.281 148.748 338.482 148.324 338.326L146.791 337.79C146.344 337.634 146.132 337.166 146.297 336.764L147.876 332.815C148.041 332.391 148.536 332.191 148.96 332.347L150.492 332.882C150.94 333.038 151.152 333.507 150.987 333.908L149.408 337.857Z" fill="#A8AFAF" stroke="#747A7F" stroke-width="0.75" stroke-miterlimit="10"/>
<path d="M148.229 346.802L143.445 347.962C142.408 348.208 141.771 349.234 142.03 350.216L144.128 357.912C144.387 358.894 145.472 359.496 146.509 359.251L151.293 358.091C152.33 357.845 152.967 356.819 152.707 355.837L150.61 348.141C150.35 347.159 149.266 346.557 148.229 346.802ZM149.549 354.677C149.667 355.101 149.384 355.547 148.936 355.659L147.357 356.038C146.909 356.15 146.438 355.882 146.32 355.458L145.212 351.376C145.094 350.952 145.377 350.506 145.825 350.394L147.404 350.015C147.852 349.903 148.324 350.171 148.441 350.595L149.549 354.677Z" fill="#A8AFAF" stroke="#747A7F" stroke-width="0.75" stroke-miterlimit="10"/>
<path d="M153.108 364.404L148.324 365.564C147.286 365.81 146.65 366.836 146.909 367.818L149.007 375.514C149.266 376.496 150.351 377.098 151.388 376.853L156.172 375.693C157.209 375.447 157.846 374.421 157.586 373.439L155.489 365.743C155.229 364.761 154.145 364.159 153.108 364.404ZM154.428 372.279C154.546 372.703 154.263 373.149 153.815 373.261L152.236 373.64C151.788 373.752 151.317 373.484 151.199 373.06L150.091 368.978C149.973 368.554 150.256 368.108 150.704 367.996L152.283 367.617C152.731 367.505 153.202 367.773 153.32 368.197L154.428 372.279Z" fill="#A8AFAF" stroke="#747A7F" stroke-width="0.75" stroke-miterlimit="10"/>
<path d="M149.832 244.16C145.66 244.16 142.29 247.35 142.29 251.299C142.29 255.248 145.66 258.438 149.832 258.438C154.004 258.438 157.374 255.248 157.374 251.299C157.374 247.35 154.004 244.16 149.832 244.16ZM149.832 255.091C147.616 255.091 145.825 253.396 145.825 251.299C145.825 249.202 147.616 247.506 149.832 247.506C152.048 247.506 153.839 249.202 153.839 251.299C153.839 253.396 152.048 255.091 149.832 255.091Z" fill="#A8AFAF" stroke="#747A7F" stroke-miterlimit="10"/>
<path d="M157.437 258.024C156.954 256.88 155.583 256.323 154.374 256.781C153.165 257.238 152.577 258.536 153.06 259.68L154.276 262.56C154.76 263.704 156.131 264.26 157.34 263.803C158.549 263.346 159.137 262.048 158.654 260.903L157.437 258.024Z" fill="#A8AFAF" stroke="#747A7F" stroke-width="0.75" stroke-miterlimit="10"/>
<path d="M164.135 272.237C163.652 271.092 162.28 270.536 161.072 270.993C159.863 271.451 159.275 272.749 159.758 273.893L160.974 276.772C161.457 277.916 162.829 278.473 164.038 278.015C165.246 277.558 165.834 276.26 165.351 275.116L164.135 272.237Z" fill="#A8AFAF" stroke="#747A7F" stroke-width="0.75" stroke-miterlimit="10"/>
<path d="M169.261 289.403C169.381 288.176 168.428 287.09 167.132 286.976C165.835 286.863 164.687 287.765 164.567 288.992L164.009 294.701C163.889 295.928 164.842 297.014 166.138 297.128C167.435 297.241 168.583 296.339 168.703 295.112L169.261 289.403Z" fill="#A8AFAF" stroke="#747A7F" stroke-width="0.87" stroke-miterlimit="10"/>
<path d="M165.108 309.891C165.759 308.824 165.373 307.46 164.246 306.843C163.118 306.227 161.677 306.593 161.026 307.66L157.997 312.625C157.347 313.692 157.733 315.057 158.86 315.673C159.987 316.289 161.429 315.923 162.08 314.856L165.108 309.891Z" fill="#A8AFAF" stroke="#747A7F" stroke-width="0.87" stroke-miterlimit="10"/>
<path d="M156.178 325.31C156.711 324.186 156.181 322.866 154.993 322.361C153.806 321.856 152.411 322.358 151.878 323.482L149.397 328.713C148.863 329.837 149.394 331.157 150.581 331.662C151.769 332.166 153.164 331.664 153.697 330.54L156.178 325.31Z" fill="#A8AFAF" stroke="#747A7F" stroke-width="0.87" stroke-miterlimit="10"/>
<path d="M149.219 341.471C149.219 340.239 148.164 339.24 146.862 339.24C145.56 339.24 144.505 340.239 144.505 341.471V347.204C144.505 348.437 145.56 349.435 146.862 349.435C148.164 349.435 149.219 348.437 149.219 347.204V341.471Z" fill="#A8AFAF" stroke="#747A7F" stroke-width="0.87" stroke-miterlimit="10"/>
<path d="M151.585 358.586C151.263 357.392 149.98 356.671 148.719 356.976C147.457 357.28 146.696 358.495 147.017 359.689L148.514 365.244C148.836 366.438 150.12 367.159 151.381 366.855C152.642 366.55 153.404 365.335 153.082 364.142L151.585 358.586Z" fill="#A8AFAF" stroke="#747A7F" stroke-width="0.87" stroke-miterlimit="10"/>
<path d="M161.24 229.525H117.612C113.343 229.525 109.881 232.801 109.881 236.843C109.881 240.884 113.343 244.16 117.612 244.16H161.24C165.509 244.16 168.971 240.884 168.971 236.843C168.971 232.801 165.509 229.525 161.24 229.525Z" fill="#A8AFAF" stroke="#747A7F" stroke-miterlimit="10"/>
<path d="M124.07 239.765C125.776 239.765 127.158 238.456 127.158 236.842C127.158 235.228 125.776 233.92 124.07 233.92C122.365 233.92 120.983 235.228 120.983 236.842C120.983 238.456 122.365 239.765 124.07 239.765Z" fill="#C9D3D3" stroke="#979FA5" stroke-miterlimit="10"/>
<path d="M139.438 239.765C141.143 239.765 142.525 238.456 142.525 236.842C142.525 235.228 141.143 233.92 139.438 233.92C137.732 233.92 136.35 235.228 136.35 236.842C136.35 238.456 137.732 239.765 139.438 239.765Z" fill="#C9D3D3" stroke="#979FA5" stroke-miterlimit="10"/>
<path d="M155.536 239.765C157.241 239.765 158.623 238.456 158.623 236.842C158.623 235.228 157.241 233.92 155.536 233.92C153.831 233.92 152.448 235.228 152.448 236.842C152.448 238.456 153.831 239.765 155.536 239.765Z" fill="#C9D3D3" stroke="#979FA5" stroke-miterlimit="10"/>
<path d="M188.604 97.4805C189.5 141.986 164.469 157.112 164.469 157.112L133.64 177.658C112.733 194.055 112.733 211.277 112.733 211.277C109.622 221.361 112.733 227.228 112.733 227.228C200.13 236.04 225.868 216.721 225.868 216.721C216.558 205.812 222.757 193.207 222.757 193.207C243.616 176.409 221.861 160.592 221.861 160.592C193.459 144.507 200.13 130.654 200.13 130.654C209.888 113.007 201.897 99.1536 201.897 99.1536L188.58 97.4805H188.604Z" fill="#EAE4ED" stroke="#AF9AA5" stroke-miterlimit="10"/>
<path d="M105.639 198.472L227.282 131.39L236.427 148.701L107.642 219.576L105.639 198.472Z" fill="#F1F2F2" stroke="#BCBEC0" stroke-miterlimit="10"/>
<path d="M106.652 188.701L246.986 177.903L247.316 197.267L98.8271 208.533L106.652 188.701Z" fill="#F1F2F2" stroke="#BCBEC0" stroke-miterlimit="10"/>
<path d="M109.716 114.659L250.027 103.861L250.357 123.225L101.891 134.491L109.716 114.659Z" fill="#F1F2F2" stroke="#BCBEC0" stroke-miterlimit="10"/>
<path d="M157.233 196.888C171.87 208.221 187.19 208.845 187.19 208.845C194.85 209.157 206.823 196.888 206.823 196.888C200.837 216.72 186.86 216.72 186.86 216.72C167.226 214.199 157.256 196.888 157.256 196.888H157.233Z" fill="#231F20"/>
<path d="M217.501 169.404C217.642 181.094 224.501 192.315 224.501 192.315C229.238 200.881 222.945 220.335 222.945 220.335C221.201 225.399 217.501 221.026 217.501 221.026C219.787 214.2 220.989 208.511 221.602 204.362C222.215 200.212 221.413 195.75 219.457 191.846C215.521 184.038 212.339 174.401 212.339 174.401L217.501 169.404Z" fill="#231F20"/>
<path d="M138.283 177.903C138.141 189.593 131.283 200.814 131.283 200.814C126.545 209.381 132.838 228.834 132.838 228.834C134.582 233.898 138.283 229.526 138.283 229.526C135.996 222.699 134.794 217.01 134.182 212.861C133.569 208.712 134.37 204.25 136.326 200.346C140.263 192.538 143.445 182.9 143.445 182.9L138.283 177.903Z" fill="#231F20"/>
<path d="M176.183 19.9127C123.835 1.44111 71.4863 30.6878 71.4863 30.6878C30.6636 57.146 28.0002 100.403 28.0002 100.403C31.1114 139.867 16.4746 161.662 16.4746 161.662C-2.16903 190.686 16.4746 213.775 16.4746 213.775C29.3436 241.907 16.9224 265.554 16.9224 265.554C4.50119 280.122 18.2423 292.726 18.2423 292.726C28.0002 302.81 16.9224 307.427 16.9224 307.427C36.886 304.907 32.9027 287.26 32.9027 287.26C26.256 270.038 33.7983 260.802 33.7983 260.802C41.0578 252.124 40.0914 247.194 39.6907 245.989C39.6907 245.922 39.7615 245.878 39.8086 245.922C50.8392 256.251 52.5598 273.25 52.8191 278.27C52.8662 279.185 52.6069 280.099 52.0648 280.858C41.1285 297.009 40.8928 306.959 40.8692 307.405C40.8692 307.405 40.8692 307.427 40.8928 307.45C51.947 317.511 45.7482 328.844 45.7482 328.844C59.065 326.323 57.2737 307.427 57.2737 307.427C56.3781 296.518 63.0483 289.38 63.0483 289.38C56.4017 296.518 65.2639 310.796 65.2639 310.796C72.3583 291.477 74.1261 271.733 74.1261 271.733C87.8908 256.207 103.847 253.262 103.847 253.262C119.38 245.275 116.269 235.214 116.269 235.214C107.406 209.18 122.043 188.857 122.043 188.857C163.667 169.872 178.823 141.986 178.823 141.986C192.587 124.34 188.581 99.1533 188.581 99.1533H201.897C209.888 110.91 201.897 124.764 201.897 124.764C193.035 140.714 208.544 151.646 208.544 151.646L227.541 172.08C229.969 174.691 230.841 178.26 229.969 181.629C228.013 189.057 225.326 191.824 224.406 192.582C224.171 192.783 223.935 192.984 223.747 193.229C212.904 206.124 228.531 219.687 228.531 219.687C232.962 232.716 221.437 239.854 221.437 239.854C207.248 253.708 216.558 263.368 216.558 263.368C217.006 269.659 215.238 277.221 215.238 277.221C230.322 275.972 246.727 261.271 246.727 261.271C259.148 257.501 264.475 256.229 264.475 256.229C266.054 249.469 262.33 247.752 261.529 247.462C261.434 247.417 261.34 247.35 261.317 247.239C256.131 233.519 264.876 229.771 264.876 229.771C274.398 219.308 261.741 209.291 258.842 207.217C258.441 206.927 258.088 206.57 257.805 206.19C250.027 195.259 254.717 182.744 254.717 182.744C269.802 167.619 260.492 152.092 260.492 152.092C249.838 136.141 252.949 110.107 252.949 110.107C255.165 71.892 234.565 49.6279 234.565 49.6279C213.447 14.7817 176.183 19.9573 176.183 19.9573V19.9127Z" fill="#61676D" stroke="#4B5159" stroke-miterlimit="10"/>
<path d="M147.428 188.834C156.852 188.834 164.492 176.669 164.492 161.662C164.492 146.656 156.852 134.49 147.428 134.49C138.003 134.49 130.363 146.656 130.363 161.662C130.363 176.669 138.003 188.834 147.428 188.834Z" fill="#231F20"/>
<path d="M219.315 184.908C227.751 184.908 234.589 174.022 234.589 160.592C234.589 147.162 227.751 136.275 219.315 136.275C210.88 136.275 204.042 147.162 204.042 160.592C204.042 174.022 210.88 184.908 219.315 184.908Z" fill="#231F20"/>
<path d="M124.942 87.2851C147.428 17.3696 185.186 8.55762 185.186 8.55762C221.13 36.265 227.306 90.7652 227.306 90.7652L124.966 87.3074L124.942 87.2851Z" fill="#F1F2F2" stroke="#BCBEC0" stroke-miterlimit="10"/>
<path d="M27.1281 111.222C27.3403 112.427 28.5659 113.163 29.8386 112.94C152.896 90.4307 252.949 109.661 252.949 109.661C259.879 109.036 257.38 97.6364 255.66 91.8585C255.071 89.8507 253.303 88.2445 251.135 87.9991C81.032 69.9736 27.8116 94.9594 27.8116 94.9594C25.1247 97.8372 26.3739 106.984 27.1517 111.222H27.1281Z" fill="#F1F2F2" stroke="#BCBEC0" stroke-miterlimit="10"/>
<path d="M147.428 182.565C147.569 190.753 144.246 198.159 144.246 198.159C143.067 201.617 143.61 203.937 144.482 205.432C145.566 207.239 148.347 206.971 149.007 204.986C149.667 203 149.526 200.457 149.361 199.052C149.29 198.315 149.29 197.557 149.361 196.798C150.28 189.593 149.478 184.908 149.478 184.908L147.381 182.565H147.428Z" fill="#231F20"/>
<path d="M85.6752 267.115C106.228 254.779 119.993 250.205 127.064 248.488C133.663 246.904 140.569 250.652 142.054 256.92C143.115 261.36 141.983 265.554 141.983 265.554C123.835 313.718 138.023 358.648 138.023 358.648" stroke="#939598" stroke-miterlimit="10" stroke-linecap="round"/>
<path d="M164.752 324.828C164.657 360.344 194.85 406.79 194.85 406.79" stroke="#939598" stroke-miterlimit="10" stroke-linecap="round"/>
<path d="M152.165 434.185C153.132 425.641 149.832 419.082 149.832 419.082C178.846 401.704 190.985 404.872 190.985 404.872C199.022 407.169 194.473 417.677 194.473 417.677C191.032 422.919 201.685 428.184 201.685 428.184" fill="#EAE4ED"/>
<path d="M152.165 434.185C153.132 425.641 149.832 419.082 149.832 419.082C178.846 401.704 190.985 404.872 190.985 404.872C199.022 407.169 194.473 417.677 194.473 417.677C191.032 422.919 201.685 428.184 201.685 428.184" stroke="#AF9AA5" stroke-width="1.09" stroke-miterlimit="10"/>
<path d="M85.2745 424.013L84.5674 370.785" stroke="#939598" stroke-miterlimit="10"/>
</svg>
