<svg width="337" height="513" viewBox="0 0 337 513" fill="none" xmlns="http://www.w3.org/2000/svg">
<path d="M38.4659 293.094C38.9814 291.669 43.7674 291.479 46.5163 291.479C47.6944 291.479 48.6026 291.289 49.707 290.885C59.2055 287.393 60.8254 283.07 61.0954 281.811C57.7329 282.025 53.4868 282.619 48.1608 283.854C48.1608 283.854 42.3193 286.657 36.9933 280.196C36.9933 280.196 28.3293 265.278 30.6119 259.007C30.6119 259.007 31.2255 259.269 32.2318 259.696L31.0291 258.461C31.5446 257.036 36.3306 256.846 39.0795 256.846C40.2576 256.846 41.4112 257.059 42.5648 257.344C55.0576 260.385 64.5561 250.717 66.4951 248.555C62.0281 247.035 55.7694 245.515 47.0808 244.494C47.0808 244.494 38.8095 245.325 35.1034 235.206C35.1034 235.206 30.9064 213.399 36.3061 206.82C38.0978 202.9 46.2954 205.252 46.2954 205.252C54.2477 207.865 60.58 207.271 64.7279 206.178C60.9236 203.732 56.113 201.024 50.0016 198.173C50.0016 198.173 40.8712 196.13 40.3804 183.992C40.3804 183.992 43.3502 159.264 51.3515 154.086C49.0198 148.29 46.8845 138.764 48.0871 124.084C48.0871 124.084 56.7266 61.6587 107.14 46.1473C107.14 46.1473 114.945 45.1259 130.8 41.444C131.463 40.8264 132.125 40.2088 132.813 39.6149C132.813 39.6149 135.267 38.8311 138.998 37.8334C139.047 37.7384 139.12 37.6671 139.194 37.5958C139.194 37.5958 151.049 33.2964 156.915 34.1278C158.093 33.9615 159.271 33.8427 160.425 33.7477C161.357 33.4864 162.265 33.2489 163.223 32.9638C163.223 32.9638 200.063 26.5502 236.781 9.35229C236.781 9.35229 188.11 44.437 179.348 64.2479C187.987 50.9219 193.436 47.8101 193.436 47.8101C207.721 27.2153 249.028 5.29035 249.028 5.29035C279.733 -0.434374 287.366 14.7445 287.366 14.7445C305.945 48.499 292.348 93.3703 292.348 93.3703C288.986 114.915 276.689 134.821 268.958 145.558C275.536 141.306 280.96 138.574 280.96 138.574C286.948 141.282 277.425 171.355 277.425 171.355C277.425 178.386 282.408 183.113 282.408 183.113L282.261 183.066C287.12 190.976 285.059 195.94 284.028 197.603C286.924 203.423 291.219 215.347 284.494 225.847M38.4659 293.094L39.3004 293.451C38.7605 293.213 38.4659 293.094 38.4659 293.094ZM38.4659 293.094C37.0669 296.942 42.393 306.112 42.393 306.112C45.6573 310.078 49.2653 308.344 49.2653 308.344C49.658 308.249 50.0507 308.178 50.4188 308.083C56.4566 312.074 54.6404 321.433 54.6404 321.433C54.5667 324.901 51.0324 326.492 51.0324 326.492C60.3836 326.588 64.8506 316.635 64.8506 316.635C65.3906 312.335 64.4825 309.152 63.7952 307.442C63.2062 301.598 57.6838 298.748 55.6221 297.869C60.2364 296.206 67.8695 292.168 71.8456 282.738M71.8456 282.738L63.4025 281.692C69.4649 281.574 71.8456 282.738 71.8456 282.738ZM71.8456 282.738C71.1584 273.996 63.6971 269.269 59.721 267.369C67.035 262.499 75.0609 256.632 76.1654 253.473M76.1654 253.473L69.8821 249.862C74.5209 251.834 76.1654 253.473 76.1654 253.473ZM76.1654 253.473C76.4599 252.309 76.6317 251.192 76.7299 250.076C79.5524 253.235 81.6141 255.278 81.6141 255.278C87.8974 259.91 83.9949 263.877 83.9949 263.877C76.1899 269.792 83.9212 274.257 83.9212 274.257C91.3826 278.557 86.3265 282.785 86.3265 282.785C95.2114 281.431 94.696 273.426 94.696 273.426C90.1309 267.511 98.7703 266.419 98.7703 266.419C103.826 263.639 103.826 261.691 103.826 261.691C106.894 265.753 103.826 269.554 103.826 269.554C102.918 276.134 108.465 276.395 108.465 276.395C111.705 281.787 108.465 283.308 108.465 283.308C115.607 282.452 118.16 270.813 118.16 270.813C120.246 261.62 132.592 258.508 132.592 258.508V253.188C132.715 252.855 133.058 252.522 133.549 252.237C133.942 254.518 134.703 256.537 135.365 257.986C123.511 261.81 115.558 281.194 115.558 281.194C111.582 294.353 103.115 298.914 103.115 298.914C96.4877 305.969 103.115 316.54 103.115 316.54C103.507 317.062 103.925 317.49 104.366 317.846L103.262 321.979C93.1498 327.086 81.8596 348.014 81.8596 348.014C74.1282 358.37 59.9664 362.646 59.9664 362.646C60.4082 371.411 67.9186 375.022 67.9186 375.022C71.4529 380.652 70.3485 385.379 70.3485 385.379C71.5757 387.469 73.6619 388.728 75.9199 389.488C65.9551 408.159 61.2427 424.288 61.2427 424.288C76.7544 435.69 91.8244 444.336 106.453 450.56L107.459 476.879V484.647C107.459 484.647 107.582 484.694 107.778 484.766C107.901 486.595 108.023 488.281 108.195 489.754C107.95 489.564 107.704 489.398 107.459 489.184C107.459 489.184 106.256 496.951 111.067 501.679C111.067 501.679 110.895 502.201 111.999 503.128C112.368 503.555 112.613 503.698 112.613 503.698C112.908 503.864 113.178 503.959 113.448 504.101C114.061 504.458 114.797 504.814 115.73 505.218C116 505.337 116.295 505.455 116.565 505.55C117.129 505.788 117.767 506.026 118.479 506.263C118.896 506.406 119.314 506.548 119.706 506.691C119.829 506.738 119.927 506.762 120.025 506.809C120.025 506.809 127.683 510.705 141.624 507.142C141.624 507.142 148.005 505.693 149.552 498.638C149.797 497.712 149.895 496.809 149.895 496.073C149.895 496.073 149.92 495.906 149.895 495.621C149.871 494.909 149.773 494.434 149.773 494.434C149.527 494.172 149.306 493.959 149.061 493.721C148.374 492.723 147.122 491.441 144.888 489.992C143.293 488.828 142.458 488.566 142.458 488.566L143.219 478.447L143.342 476.808L144.471 461.653C154.902 463.34 165.039 463.838 174.832 463.268L175.323 476.571V484.338C175.323 484.338 175.445 484.386 175.642 484.457C175.765 486.286 175.887 487.972 176.059 489.445C175.814 489.255 175.568 489.089 175.323 488.875C175.323 488.875 174.12 496.643 178.931 501.37C178.931 501.37 178.759 501.892 179.863 502.819C180.232 503.246 180.477 503.389 180.477 503.389C180.771 503.555 181.041 503.65 181.311 503.793C181.925 504.149 182.661 504.505 183.594 504.909C183.864 505.028 184.159 505.147 184.429 505.242C184.993 505.479 185.631 505.717 186.343 505.954C186.76 506.097 187.177 506.239 187.57 506.382C187.693 506.429 187.791 506.453 187.889 506.501C187.889 506.501 195.547 510.396 209.488 506.833C209.488 506.833 215.869 505.384 217.416 498.329C217.661 497.379 217.759 496.5 217.759 495.764C217.759 495.764 217.784 495.598 217.759 495.312C217.735 494.6 217.636 494.125 217.636 494.125C217.391 493.863 217.17 493.65 216.925 493.412C216.237 492.414 214.986 491.132 212.752 489.683C211.157 488.519 210.322 488.258 210.322 488.258L211.108 477.758L211.206 476.499L212.777 455.572C231.553 449.04 248.758 438.825 264.172 426.402C261.521 410.606 256.293 397.185 250.034 385.949C250.452 384.215 251.237 382.124 252.881 379.892C252.881 379.892 260.637 376.875 261.742 368.157C261.742 368.157 247.948 362.812 240.978 351.909C240.978 351.909 231.258 330.198 221.539 324.331C221.539 324.331 212.237 329.628 204.53 329.557L204.432 328.868C208.948 329.272 215.722 328.488 220.729 321.884L219.551 317.418C221.244 317.418 223.257 316.801 224.681 314.354C224.681 314.354 229.908 303.784 224.681 296.729C224.681 296.729 221.343 294.425 218.299 288.415C222.668 284.733 221.024 277.179 221.024 277.179C217.882 271.621 221.514 266.751 221.514 266.751C230.301 268.58 228.976 273.806 228.976 273.806C225.834 280.386 232.78 281.906 232.78 281.906C238.597 284.258 234.277 290.006 234.277 290.006C237.836 289.199 240.217 287.132 241.812 284.923C242.745 286.728 243.432 287.94 243.432 287.94C248.758 294.401 254.6 291.598 254.6 291.598C259.926 290.363 264.172 289.769 267.534 289.555C267.264 290.814 265.644 295.137 256.146 298.629C255.041 299.033 254.133 299.223 252.955 299.223C250.206 299.223 245.42 299.413 244.905 300.838M244.905 300.838L245.739 301.194C245.199 300.957 244.905 300.838 244.905 300.838ZM244.905 300.838C243.506 304.686 248.832 313.855 248.832 313.855C252.096 317.822 255.704 316.088 255.704 316.088C256.097 315.993 256.489 315.922 256.858 315.827C262.895 319.818 261.079 329.177 261.079 329.177C261.006 332.645 257.471 334.236 257.471 334.236C266.822 334.331 271.289 324.378 271.289 324.378C271.829 320.079 270.921 316.896 270.234 315.186C269.645 309.342 264.123 306.492 262.061 305.613C266.675 303.95 274.308 299.912 278.284 290.481M278.284 290.481L269.817 289.436C275.879 289.317 278.284 290.481 278.284 290.481ZM278.284 290.481C277.597 281.74 270.136 277.013 266.16 275.112C273.474 270.243 281.5 264.376 282.604 261.216M282.604 261.216L276.321 257.606C280.96 259.577 282.604 261.216 282.604 261.216ZM282.604 261.216C286.531 246.346 271.903 235.039 271.903 235.039C269.449 233.899 267.043 232.617 264.736 231.263C271.829 230.977 283.07 229.885 284.494 225.847M284.494 225.847L284.445 225.728M201.757 105.176C201.757 105.176 198.394 125.89 187.055 141.9C196.995 126.626 201.757 105.176 201.757 105.176ZM201.757 105.176C199.867 110.782 194.001 117.243 186.392 123.728C191.743 118.265 196.946 112.112 201.757 105.176ZM136.053 129.809C136.053 129.809 137.55 147.862 128.419 161.236M136.053 129.809C136.053 129.809 135.513 131.757 133.893 135.486C133.5 145.202 128.419 161.236 128.419 161.236M136.053 129.809C147.171 119.357 157.995 102.967 166.045 89.1896C159.516 101.494 148.717 119.167 136.053 129.809ZM128.419 161.236C129.082 167.934 133.402 172.994 133.402 172.994M128.419 161.236C128.419 168.267 133.402 172.994 133.402 172.994M133.402 172.994C140.029 183.802 134.727 188.173 134.727 188.173C134.727 188.173 139.489 182.876 133.402 172.994ZM139.513 308.012C139.513 308.012 142.017 291.717 145.723 277.274C145.649 277.298 145.6 277.345 145.526 277.369C145.526 277.559 145.526 277.749 145.526 277.939C145.526 277.939 140.372 286.039 139.047 293.047C139.047 293.047 142.704 306.8 132.076 318.274C132.076 318.274 129.401 319.628 125.769 320.388L124.443 328.013C124.443 328.013 124.86 331.528 124.713 336.564C125.965 336.612 127.339 336.778 128.788 337.039C128.812 336.802 128.861 336.588 128.861 336.35C128.37 336.113 127.904 335.899 127.438 335.638C127.438 335.638 128.567 333.595 130.162 330.388C130.653 329.034 131.266 327.799 131.978 326.683C132.076 326.493 132.175 326.279 132.273 326.065L137.476 313.903C138.212 311.931 138.924 309.96 139.513 308.012ZM139.513 308.012C143.195 309.651 146.803 310.957 150.313 312.026C143.489 310.102 139.513 308.012 139.513 308.012ZM50.5661 307.988C52.5541 307.561 54.2968 307.299 55.7939 307.133L50.5661 307.988ZM257.152 315.827C259.14 315.399 260.883 315.138 262.38 314.972L257.152 315.827ZM254.452 156.746C253.667 155.962 252.906 155.083 252.194 154.181L253.348 153.017C254.109 153.943 254.919 154.798 255.729 155.558C255.287 155.962 254.87 156.366 254.452 156.77V156.746ZM250.623 152.043C244.316 142.85 240.904 130.45 240.904 130.45C240.904 130.45 245.592 142.85 252.121 151.449L250.599 152.043H250.623ZM173.58 257.249L172.868 257.558C173.138 257.368 173.384 257.154 173.605 256.917C173.605 256.988 173.556 257.083 173.531 257.154C173.531 257.154 173.556 257.226 173.58 257.249ZM171.003 258.413C171.003 258.413 171.101 258.603 171.15 258.698L168.72 258.888C168.794 258.722 168.868 258.532 168.941 258.39C169.285 258.461 169.653 258.508 170.021 258.508C170.365 258.508 170.708 258.461 171.028 258.39L171.003 258.413ZM165.726 256.988C165.898 256.703 166.021 256.489 166.021 256.489C166.34 256.917 166.732 257.321 167.174 257.63L165.751 256.988H165.726ZM202.616 316.468C202.738 316.54 202.886 316.611 203.057 316.706C202.935 316.706 202.787 316.706 202.665 316.706C202.665 316.635 202.64 316.54 202.616 316.468ZM178.513 245.372L178.243 246.75C176.82 246.964 175.544 247.201 174.537 247.534C173.875 246.014 172.525 244.874 170.856 244.565C177.311 244.684 183.324 244.541 188.871 244.161C182.661 244.969 178.489 245.372 178.489 245.372H178.513ZM214.691 150.665C216.679 147.34 219.035 142.66 221.171 136.579L219.011 144.655L214.691 150.665ZM224.975 122.374C224.975 122.374 225.466 145.653 215.354 157.459C222.643 147.34 224.975 122.374 224.975 122.374ZM106.281 188.434C106.109 185.964 106.158 183.612 106.526 181.427L98.7458 178.41C98.9912 178.267 99.2366 178.149 99.4575 177.935C99.4575 177.935 117.227 186.89 127.781 188.814C115.558 188.624 106.526 181.403 106.526 181.403C106.33 183.778 106.256 186.13 106.281 188.41V188.434ZM89.91 173.849C90.1063 174.324 90.3272 174.799 90.5481 175.251L89.64 174.894C89.7382 174.538 89.8118 174.182 89.91 173.825V173.849ZM55.9166 161.639C57.6838 163.112 59.8928 164.134 62.3962 164.846C62.1999 166.794 61.8563 168.481 61.4145 169.882C59.2055 166.818 57.3157 163.944 55.7694 161.497C55.843 161.592 55.8921 161.639 55.8921 161.639H55.9166ZM58.322 223.495C59.2792 223.447 60.31 223.4 61.3899 223.329C61.439 223.994 61.5127 224.659 61.6599 225.348C60.5309 224.754 59.4264 224.136 58.3465 223.495H58.322ZM87.9219 189.218C87.7992 186.747 87.6274 183.968 87.4556 181.474C88.9282 194.254 94.3524 220.193 114.503 236.607C92.6098 223.614 87.9219 189.218 87.9219 189.218ZM126.75 240.242C126.996 240.242 127.217 240.194 127.438 240.17C129.843 240.598 132.175 240.954 134.506 241.31L134.408 241.619L134.629 241.334C139.734 242.118 144.618 242.736 149.331 243.211L149.233 244.327L149.748 243.258C156.743 243.971 163.321 244.375 169.481 244.541C167.15 244.802 165.309 246.679 165.063 249.054C165.014 247.772 165.014 246.893 165.014 246.893C163.615 246.441 161.676 246.133 159.516 245.895V245.824C159.197 245.824 158.854 245.824 158.535 245.8C156.866 245.634 155.074 245.539 153.209 245.444C144.226 244.565 134.31 242.284 126.75 240.265V240.242ZM225.049 237.51C231.43 235.396 236.437 233.092 240.217 231.025H240.192C237.443 233.495 231.823 235.657 225.049 237.51ZM256.98 214.16C258.085 211.879 258.919 209.599 259.533 207.413C264.27 209.741 268.172 211.95 271.339 213.993C267.927 214.896 263.043 215.419 256.98 214.136V214.16Z" stroke="#F1F2F2" stroke-width="6.87" stroke-linecap="round" stroke-linejoin="round"/>
<path d="M292.79 144.75L293.6 158.599C293.6 158.742 293.624 158.884 293.673 159.05C295.637 166.462 305.921 171.925 307.762 172.875C307.958 172.97 308.13 173.041 308.326 173.065C313.628 173.897 322.905 168.789 324.672 167.792C324.869 167.673 325.041 167.531 325.188 167.364C334.76 155.891 333.066 147.791 332.551 146.057C332.477 145.843 332.379 145.653 332.232 145.463C328.673 140.95 327.421 136.389 327.078 134.726C326.98 134.299 327.078 133.895 327.25 133.515C329.9 128.17 327.446 121.685 326.881 120.355C326.808 120.189 326.71 120.046 326.611 119.904C319.543 111.685 322.807 105.129 322.807 105.129C325.777 96.9335 322.267 92.1827 321.457 91.2563C321.359 91.1375 321.261 91.0425 321.138 90.9713L310.854 83.8213C312.891 88.4771 314.168 90.71 314.708 91.6126C314.904 91.9452 315.027 92.3252 314.978 92.7053C314.462 97.8362 307.713 102.254 307.713 102.254C300.742 108.454 303.565 117.219 303.565 117.219C305.185 121.281 302.73 125.771 302.166 126.674C302.092 126.792 302.018 126.887 301.92 126.982C293.551 135.415 292.839 143.539 292.765 144.608C292.765 144.679 292.765 144.75 292.765 144.822L292.79 144.75Z" stroke="#F1F2F2" stroke-width="6.87" stroke-linecap="round" stroke-linejoin="round"/>
<path d="M327.691 274.305C324.132 269.792 322.881 265.231 322.537 263.568C322.439 263.141 322.537 262.737 322.709 262.357C325.36 257.012 322.905 250.527 322.341 249.197C322.267 249.031 322.169 248.888 322.071 248.746C315.002 240.527 318.266 233.971 318.266 233.971C321.236 225.776 317.726 221.025 316.917 220.098C316.818 219.98 316.72 219.885 316.597 219.813L306.314 212.663C308.351 217.319 309.627 219.552 310.167 220.455C310.363 220.787 310.486 221.167 310.437 221.547C309.922 226.678 303.172 231.096 303.172 231.096C296.201 237.296 299.024 246.062 299.024 246.062C300.644 250.123 298.19 254.613 297.625 255.516C297.551 255.634 297.478 255.729 297.38 255.824C289.01 264.257 288.298 272.381 288.225 273.45C288.225 273.521 288.225 273.592 288.225 273.664L289.035 287.512C289.035 287.655 289.059 287.797 289.108 287.964C291.072 295.375 301.356 300.838 303.196 301.789C303.393 301.884 303.565 301.955 303.761 301.979C309.062 302.81 318.34 297.703 320.107 296.705C320.304 296.586 320.475 296.444 320.623 296.278C330.195 284.804 328.501 276.704 327.986 274.97C327.912 274.756 327.814 274.566 327.667 274.376L327.691 274.305Z" stroke="#F1F2F2" stroke-width="6.87" stroke-linecap="round" stroke-linejoin="round"/>
<path d="M5.1353 141.354C5.1353 141.496 5.15985 141.639 5.20894 141.805C7.17245 149.216 17.4563 154.68 19.2971 155.63C19.4935 155.725 19.6653 155.796 19.8616 155.82C25.1631 156.651 34.4407 151.544 36.2079 150.546C36.4042 150.428 36.576 150.285 36.7233 150.119C46.2954 138.646 44.6019 130.546 44.0865 128.812C44.0128 128.598 43.9147 128.408 43.7674 128.218C40.2085 123.704 38.9568 119.144 38.6132 117.481C38.515 117.053 38.6132 116.649 38.785 116.269C41.4357 110.925 38.9813 104.44 38.4168 103.11C38.3432 102.943 38.245 102.801 38.1469 102.658C31.0782 94.4394 34.3426 87.8833 34.3426 87.8833C37.3124 79.6882 33.8026 74.9373 32.9926 74.0109C32.8945 73.8922 32.7963 73.7972 32.6736 73.7259L22.3897 66.5759C24.4268 71.2317 25.7031 73.4646 26.2431 74.3673C26.4394 74.6998 26.5621 75.0799 26.513 75.4599C25.9976 80.5908 19.2481 85.0091 19.2481 85.0091C12.2776 91.2089 15.1001 99.9741 15.1001 99.9741C16.72 104.036 14.2656 108.526 13.7011 109.428C13.6275 109.547 13.5539 109.642 13.4557 109.737C5.08622 118.17 4.37444 126.294 4.30081 127.363C4.30081 127.434 4.30081 127.505 4.30081 127.576L5.11076 141.425L5.1353 141.354Z" stroke="#F1F2F2" stroke-width="6.87" stroke-linecap="round" stroke-linejoin="round"/>
<path d="M38.4905 409.679C41.9757 403.598 38.3187 395.736 38.3187 395.736C31.0291 387.422 34.3426 380.747 34.3426 380.747C37.656 371.554 32.8454 366.685 32.8454 366.685L22.3897 359.392C25.2122 365.806 26.5376 367.658 26.5376 367.658C26.5376 373.051 19.2481 377.825 19.2481 377.825C12.2776 384.025 15.1001 392.79 15.1001 392.79C16.9164 397.351 13.603 402.411 13.603 402.411C4.47262 411.532 4.30081 420.297 4.30081 420.297L5.1353 434.479C7.12336 442.745 19.5671 448.66 19.5671 448.66C25.384 449.847 36.5024 443.268 36.5024 443.268C47.6208 430.108 43.9638 421.343 43.9638 421.343C39.325 415.618 38.4905 409.703 38.4905 409.703V409.679Z" stroke="#F1F2F2" stroke-width="6.87" stroke-linecap="round" stroke-linejoin="round"/>
<path d="M238.842 231.405C228.485 240.669 177.213 245.728 177.213 245.728L176.206 250.954C189.485 249.933 197.78 253.828 197.78 253.828C197.29 263.948 196.283 263.948 196.283 263.948C198.934 264.803 200.431 264.969 200.431 264.969C203.916 268.841 207.524 278.129 207.524 278.129C211.721 282.523 213.881 281.668 213.881 281.668C217.195 286.728 214.053 290.433 214.053 290.433C222.177 288.248 219.87 277.606 219.87 277.606C216.728 272.048 220.361 267.178 220.361 267.178C229.148 269.007 227.822 274.233 227.822 274.233C224.681 280.813 231.627 282.333 231.627 282.333C237.443 284.685 233.124 290.433 233.124 290.433C242.279 288.343 243.751 277.939 243.751 277.939L254.526 269.839L277.131 255.349L262.454 233.923L248.881 222.948L238.842 231.381V231.405Z" fill="#E8B30C" stroke="#D3A21A" stroke-linecap="round" stroke-linejoin="round"/>
<path d="M255.704 316.23C261.742 320.221 259.926 329.58 259.926 329.58C259.852 333.048 256.318 334.64 256.318 334.64C265.669 334.735 270.136 324.782 270.136 324.782C270.97 318.202 268.393 314.164 268.393 314.164L255.704 316.23Z" fill="#E8B30C" stroke="#D3A111" stroke-linecap="round" stroke-linejoin="round"/>
<path d="M283.341 226.274C281.23 232.236 257.79 231.785 257.79 231.785L241.616 215.014C243.408 211.095 251.605 213.447 251.605 213.447C266.43 218.292 275.609 212.093 275.609 212.093L283.341 226.274Z" fill="#E8B30C" stroke="#D3A111" stroke-linecap="round" stroke-linejoin="round"/>
<path d="M281.451 261.643C279.34 267.606 252.464 283.402 252.464 283.402L236.29 266.632C236.805 265.207 241.591 265.017 244.34 265.017C245.518 265.017 246.672 265.23 247.826 265.515C261.84 268.936 272.149 256.299 272.149 256.299L281.451 261.643Z" fill="#E8B30C" stroke="#D3A111" stroke-linecap="round" stroke-linejoin="round"/>
<path d="M277.131 290.909C271.216 304.947 257.103 307.085 257.103 307.085L243.751 301.242C244.267 299.817 249.053 299.627 251.802 299.627C252.98 299.627 253.888 299.437 254.992 299.033C266.258 294.923 266.43 289.579 266.43 289.579L277.106 290.885L277.131 290.909Z" fill="#E8B30C" stroke="#D3A111" stroke-linecap="round" stroke-linejoin="round"/>
<path d="M256.686 162.257C248.66 167.387 245.666 192.187 245.666 192.187C246.156 204.325 255.287 206.368 255.287 206.368C278.849 217.342 283.34 226.274 283.34 226.274C292.643 211.76 280.862 194.467 280.862 194.467C266.602 181.236 256.686 162.257 256.686 162.257Z" fill="#F4D34D" stroke="#E8C51C" stroke-linecap="round" stroke-linejoin="round"/>
<path d="M241.591 215.014C236.192 221.594 240.389 243.4 240.389 243.4C244.095 253.52 252.366 252.688 252.366 252.688C275.241 255.349 281.451 261.667 281.451 261.667C285.378 246.797 270.749 235.49 270.749 235.49C255.115 228.293 241.616 215.038 241.616 215.038L241.591 215.014Z" fill="#F4D34D" stroke="#E8C51C" stroke-linecap="round" stroke-linejoin="round"/>
<path d="M235.873 267.178C233.59 273.449 242.254 288.367 242.254 288.367C247.58 294.828 253.422 292.025 253.422 292.025C270.921 287.915 277.106 290.909 277.106 290.909C276.174 278.936 262.527 274.494 262.527 274.494C249.175 273.354 235.873 267.178 235.873 267.178Z" fill="#F4D34D" stroke="#E8C51C" stroke-linecap="round" stroke-linejoin="round"/>
<path d="M243.751 301.241C242.352 305.089 247.678 314.258 247.678 314.258C250.943 318.225 254.551 316.491 254.551 316.491C265.301 313.973 269.105 315.802 269.105 315.802C268.541 308.439 260.147 305.731 260.147 305.731C251.949 305.018 243.751 301.241 243.751 301.241Z" fill="#F4D34D" stroke="#E8C51C" stroke-linecap="round" stroke-linejoin="round"/>
<path d="M247.114 164.371C255.066 151.33 279.634 138.954 279.634 138.954C285.599 141.662 276.1 171.735 276.1 171.735C276.1 178.766 281.082 183.493 281.082 183.493C287.169 193.399 282.408 198.672 282.408 198.672C277.425 203.732 247.114 188.434 247.114 188.434C242.254 176.747 247.114 164.371 247.114 164.371Z" fill="#DD90AF" stroke="#AF6285" stroke-linecap="round" stroke-linejoin="round"/>
<path d="M200.431 105.556C193.142 127.149 127.094 161.616 127.094 161.616C127.757 168.314 132.076 173.374 132.076 173.374C138.703 184.182 133.402 188.553 133.402 188.553C117.816 191.926 105.201 181.807 105.201 181.807C102.207 216.226 126.112 240.527 126.112 240.527C216.704 256.394 248.243 225.015 248.243 225.015C262.184 211.19 259.852 191.95 259.852 191.95C258.846 177.103 259.999 161.639 259.999 161.639C246.917 157.53 239.603 130.878 239.603 130.878C241.591 146.746 235.627 158.219 235.627 158.219L214.053 157.886C221.343 147.767 223.674 122.802 223.674 122.802L217.71 145.059L208.752 157.554L171.469 155.867C191.178 147.435 200.456 105.604 200.456 105.604L200.431 105.556Z" fill="#FDFFFF" stroke="#D1D3D4" stroke-miterlimit="10"/>
<path d="M159.173 205.87C165.951 205.87 171.445 195.958 171.445 183.731C171.445 171.504 165.951 161.592 159.173 161.592C152.395 161.592 146.901 171.504 146.901 183.731C146.901 195.958 152.395 205.87 159.173 205.87Z" fill="black"/>
<path d="M237.934 205.466C244.59 205.466 249.985 195.734 249.985 183.731C249.985 171.727 244.59 161.996 237.934 161.996C231.279 161.996 225.883 171.727 225.883 183.731C225.883 195.734 231.279 205.466 237.934 205.466Z" fill="black"/>
<path d="M151.662 197.437L146.901 205.869L145.895 223.994L146.729 231.809C146.827 232.711 147.269 233.543 147.981 234.089L150.411 236.037C151.147 236.631 151.368 237.628 150.951 238.484L147.907 244.683" stroke="black" stroke-miterlimit="10" stroke-linecap="round"/>
<path d="M145.895 223.97L136.322 231.999C135.93 232.331 135.635 232.782 135.513 233.281L133.083 241.952" stroke="black" stroke-miterlimit="10" stroke-linecap="round"/>
<path d="M228.804 194.325V204.943C228.804 205.3 228.902 205.656 229.049 205.965L231.651 210.763C232.019 211.428 232.706 211.832 233.443 211.832H238.793C239.922 211.832 240.855 212.758 240.855 213.922V220.027C240.855 220.027 240.855 220.217 240.855 220.312L242.156 230.289" stroke="black" stroke-miterlimit="10" stroke-linecap="round"/>
<path d="M240.88 214.302H247.678C248.39 214.302 249.077 214.682 249.445 215.324L252.832 221.048" stroke="black" stroke-miterlimit="10" stroke-linecap="round"/>
<path d="M235.504 163.35L230.743 154.252" stroke="black" stroke-miterlimit="10" stroke-linecap="round"/>
<path d="M240.143 165.393L244.684 154.252L255.311 150.095" stroke="black" stroke-miterlimit="10" stroke-linecap="round"/>
<path d="M258.502 159.787L252.832 164.252L242.426 159.787" stroke="black" stroke-miterlimit="10" stroke-linecap="round"/>
<path d="M192.135 48.19C206.395 27.619 247.727 5.67023 247.727 5.67023C278.432 -0.054491 286.065 15.1243 286.065 15.1243C304.645 48.8551 291.047 93.7502 291.047 93.7502C286.065 125.794 261.202 154.252 261.202 154.252C245.567 101.494 192.135 48.19 192.135 48.19Z" fill="#523660" stroke="#412D51" stroke-miterlimit="10"/>
<path d="M85.5657 174.205L70.1767 183.73L74.8645 207.176L61.0954 218.435C54.5176 230.431 80.3133 255.61 80.3133 255.61C86.5965 260.242 82.694 264.209 82.694 264.209C74.8891 270.124 82.6204 274.59 82.6204 274.59C90.0818 278.889 85.0257 283.117 85.0257 283.117C93.9106 281.763 93.3952 273.758 93.3952 273.758C88.83 267.844 97.4695 266.751 97.4695 266.751C102.526 263.972 102.526 262.024 102.526 262.024C105.594 266.086 102.526 269.886 102.526 269.886C101.617 276.466 107.164 276.728 107.164 276.728C110.404 282.12 107.164 283.64 107.164 283.64C114.307 282.785 116.859 271.145 116.859 271.145C118.945 261.953 131.291 258.841 131.291 258.841V253.52C132.69 249.814 158.142 249.41 158.142 249.41V246.156C139.783 245.942 113.128 236.987 113.128 236.987C91.2353 223.994 86.5474 189.598 86.5474 189.598C86.2038 182.947 85.5411 174.229 85.5411 174.229L85.5657 174.205Z" fill="#E8B30C" stroke="#D3A21A" stroke-linecap="round" stroke-linejoin="round"/>
<path d="M134.727 130.189C155.639 112.634 171.445 75.8631 171.445 75.8631C183.84 52.9167 192.135 48.1897 192.135 48.1897C264.933 57.3112 261.153 159.786 261.153 159.786C249.863 158.052 239.579 130.854 239.579 130.854C241.91 147.22 235.603 158.195 235.603 158.195L214.029 157.862C224.141 146.056 223.65 122.777 223.65 122.777C219.011 146.888 208.727 157.53 208.727 157.53L171.445 155.843C194.467 142.517 200.431 105.579 200.431 105.579C171.052 147.933 127.094 161.639 127.094 161.639C136.224 148.265 134.727 130.212 134.727 130.212V130.189Z" fill="#F4D34D" stroke="#E8C51C" stroke-linecap="round" stroke-linejoin="round"/>
<path d="M49.1426 308.392C55.1804 312.382 53.3641 321.742 53.3641 321.742C53.2905 325.21 49.7562 326.801 49.7562 326.801C59.1074 326.896 63.5744 316.943 63.5744 316.943C64.4089 310.363 61.8318 306.325 61.8318 306.325L49.1426 308.392Z" fill="#E8B30C" stroke="#D3A111" stroke-linecap="round" stroke-linejoin="round"/>
<path d="M76.7545 218.435C74.6437 224.398 51.2043 223.946 51.2043 223.946L35.0298 207.176C36.8216 203.256 45.0192 205.608 45.0192 205.608C59.8437 210.454 69.0232 204.254 69.0232 204.254L76.7545 218.435Z" fill="#E8B30C" stroke="#D3A111" stroke-linecap="round" stroke-linejoin="round"/>
<path d="M74.8646 253.806C72.7538 259.768 45.8782 275.564 45.8782 275.564L29.7038 258.794C30.2192 257.369 35.0053 257.179 37.7542 257.179C38.9323 257.179 40.0859 257.392 41.2394 257.678C55.254 261.098 65.5624 248.461 65.5624 248.461L74.8646 253.806Z" fill="#E8B30C" stroke="#D3A111" stroke-linecap="round" stroke-linejoin="round"/>
<path d="M70.5449 283.07C64.6298 297.109 50.517 299.247 50.517 299.247L37.1652 293.403C37.6806 291.978 42.4666 291.788 45.2156 291.788C46.3937 291.788 47.3018 291.598 48.4063 291.194C59.6719 287.085 59.8437 281.74 59.8437 281.74L70.5203 283.047L70.5449 283.07Z" fill="#E8B30C" stroke="#D3A111" stroke-linecap="round" stroke-linejoin="round"/>
<path d="M50.0998 154.418C42.0739 159.549 39.0796 184.348 39.0796 184.348C39.5705 196.487 48.7008 198.529 48.7008 198.529C72.2629 209.504 76.7545 218.435 76.7545 218.435C86.0566 203.922 74.2755 186.629 74.2755 186.629C60.0155 173.398 50.0998 154.418 50.0998 154.418Z" fill="#F4D34D" stroke="#E8C51C" stroke-linecap="round" stroke-linejoin="round"/>
<path d="M35.0298 207.176C29.6302 213.756 33.8272 235.562 33.8272 235.562C37.5333 245.681 45.8046 244.85 45.8046 244.85C68.6795 247.51 74.8891 253.829 74.8891 253.829C78.8162 238.959 64.188 227.652 64.188 227.652C48.5535 220.455 35.0544 207.2 35.0544 207.2L35.0298 207.176Z" fill="#F4D34D" stroke="#E8C51C" stroke-linecap="round" stroke-linejoin="round"/>
<path d="M29.3111 259.34C27.0285 265.611 35.6925 280.528 35.6925 280.528C41.0185 286.99 46.86 284.187 46.86 284.187C64.3598 280.077 70.5448 283.07 70.5448 283.07C69.6122 271.098 55.9658 266.656 55.9658 266.656C42.6139 265.516 29.3111 259.34 29.3111 259.34Z" fill="#F4D34D" stroke="#E8C51C" stroke-linecap="round" stroke-linejoin="round"/>
<path d="M37.1897 293.403C35.7907 297.251 41.1167 306.421 41.1167 306.421C44.3811 310.387 47.989 308.653 47.989 308.653C58.7392 306.135 62.5435 307.965 62.5435 307.965C61.979 300.601 53.585 297.893 53.585 297.893C45.3874 297.18 37.1897 293.403 37.1897 293.403Z" fill="#F4D34D" stroke="#E8C51C" stroke-linecap="round" stroke-linejoin="round"/>
<path d="M134.727 130.189C156.964 109.262 178.047 64.6277 178.047 64.6277C186.809 44.8168 247.703 5.67017 247.703 5.67017C210.985 22.8681 161.922 33.3436 161.922 33.3436C124.1 44.1517 105.814 46.5034 105.814 46.5034C55.4013 62.0148 46.7618 124.44 46.7618 124.44C44.4302 152.779 54.5668 161.995 54.5668 161.995C70.6676 175.393 122.774 154.252 122.774 154.252C132.396 138.622 134.727 130.189 134.727 130.189Z" fill="#735784" stroke="#563E66" stroke-miterlimit="10"/>
<path d="M131.512 39.9707C90.5727 74.6041 85.5657 150.878 85.5657 150.878V155.819L105.839 157.719L114.012 138.93C129.548 55.6959 163.836 33.8896 163.836 33.8896C150.558 33.8896 131.536 39.9707 131.536 39.9707H131.512Z" fill="#DD90AF" stroke="#AF6285" stroke-miterlimit="10"/>
<path d="M137.918 37.9754C99.8749 77.4309 93.0271 148.883 93.0271 148.883L92.3399 153.776L101.053 156.959L106.526 147.505C114.847 71.1123 155.639 34.5073 155.639 34.5073C149.773 33.676 137.918 37.9754 137.918 37.9754Z" fill="#F1F2F2" stroke="#A7A9AC" stroke-miterlimit="10"/>
<path d="M105.201 181.806C101.716 203.232 126.112 240.526 126.112 240.526C121.964 241.381 113.178 236.987 113.178 236.987C85.6393 214.539 85.5902 174.229 85.5902 174.229L105.225 181.83L105.201 181.806Z" fill="#DD90AF" stroke="#AF6285" stroke-miterlimit="10"/>
<path d="M87.4801 153.848C80.2642 140.807 57.9784 128.431 57.9784 128.431C52.5542 131.139 61.1936 161.211 61.1936 161.211C61.6109 170 57.8556 175.274 57.8556 175.274C52.3333 185.179 55.4749 188.149 55.4749 188.149C59.991 193.208 87.4801 177.911 87.4801 177.911C91.898 166.224 87.4801 153.848 87.4801 153.848Z" fill="#DD90AF" stroke="#AF6285" stroke-linecap="round" stroke-linejoin="round"/>
<path d="M98.1076 154.251C95.236 163.254 98.1076 178.314 98.1076 178.314C95.236 181.022 90.8181 178.314 90.8181 178.314C83.9703 169.098 87.5047 152.66 87.5047 152.66C93.6897 147.03 98.1322 154.228 98.1322 154.228L98.1076 154.251Z" fill="#DD90AF" stroke="#AF6285" stroke-linecap="round" stroke-linejoin="round"/>
<path d="M98.1076 154.251C106.06 141.21 130.628 128.834 130.628 128.834C136.592 131.542 127.094 161.615 127.094 161.615C127.094 168.646 132.076 173.373 132.076 173.373C138.163 183.279 133.402 188.552 133.402 188.552C128.419 193.612 98.1076 178.314 98.1076 178.314C93.2479 166.627 98.1076 154.251 98.1076 154.251Z" fill="#DD90AF" stroke="#AF6285" stroke-linecap="round" stroke-linejoin="round"/>
<path d="M111.337 157.744C111.337 157.744 90.1799 165.392 97.4695 165.392C106.183 165.392 111.337 167.982 111.337 167.982" fill="#DD90AF"/>
<path d="M111.337 157.744C111.337 157.744 90.1799 165.392 97.4695 165.392C106.183 165.392 111.337 167.982 111.337 167.982" stroke="#AF6285" stroke-linecap="round" stroke-linejoin="round"/>
<path d="M70.1767 157.744C70.1767 157.744 91.3335 165.392 84.044 165.392C75.3309 165.392 70.1767 167.982 70.1767 167.982" fill="#DD90AF"/>
<path d="M70.1767 157.744C70.1767 157.744 91.3335 165.392 84.044 165.392C75.3309 165.392 70.1767 167.982 70.1767 167.982" stroke="#AF6285" stroke-linecap="round" stroke-linejoin="round"/>
<path d="M102.035 322.335C91.9226 327.442 80.6324 348.369 80.6324 348.369C72.901 358.726 58.7392 363.002 58.7392 363.002C59.181 371.767 66.6914 375.378 66.6914 375.378C70.2257 381.007 69.1213 385.735 69.1213 385.735C72.7538 391.958 84.1667 390.913 84.1667 390.913L120.663 353.809C124.64 341.671 123.093 328.416 123.093 328.416C114.896 331.1 102.01 322.382 102.01 322.382L102.035 322.335Z" fill="#735784" stroke="#563E66" stroke-miterlimit="10" stroke-linecap="round"/>
<path d="M220.385 324.806C230.105 330.673 239.824 352.384 239.824 352.384C246.795 363.287 260.588 368.632 260.588 368.632C259.508 377.35 251.728 380.366 251.728 380.366C247.776 385.711 248.537 390.509 248.537 390.509C244.463 396.448 233.148 394.524 233.148 394.524L199.474 354.736C196.406 342.312 198.909 329.224 198.909 329.224C206.886 332.526 220.361 324.806 220.361 324.806H220.385Z" fill="#735784" stroke="#563E66" stroke-miterlimit="10" stroke-linecap="round"/>
<path d="M104.194 314.164L102.035 322.335C110.159 333.143 123.118 328.369 123.118 328.369L125.106 316.872C115.804 318.107 104.194 314.164 104.194 314.164Z" fill="#563E66" stroke="#523660" stroke-miterlimit="10" stroke-linecap="round"/>
<path d="M217.391 314.164L219.551 322.335C211.427 333.143 198.468 328.369 198.468 328.369L196.48 316.872C205.782 318.107 217.391 314.164 217.391 314.164Z" fill="#563E66" stroke="#523660" stroke-miterlimit="10" stroke-linecap="round"/>
<path d="M196.111 255.658C206.543 257.178 213.734 279.459 213.734 279.459C216.876 292.619 223.527 297.18 223.527 297.18C228.755 304.235 223.527 314.805 223.527 314.805C220.655 319.746 215.305 317.228 215.305 317.228C209.169 321.955 200.824 316.563 200.824 316.563C192.479 305.09 195.351 291.336 195.351 291.336C194.295 284.329 190.27 276.229 190.27 276.229C189.877 262.736 196.136 255.658 196.136 255.658H196.111Z" fill="#735784" stroke="#563E66" stroke-miterlimit="10" stroke-linecap="round"/>
<path d="M150.19 260.598C143.538 273.497 138.188 308.368 138.188 308.368C171.911 323.499 200.456 311.194 200.456 311.194C199.94 276.181 187.938 257.724 187.938 257.724L150.19 260.598Z" fill="#735784" stroke="#563E66" stroke-miterlimit="10" stroke-linecap="round"/>
<path d="M136.715 257.724C123.437 259.244 114.307 281.526 114.307 281.526C110.33 294.685 101.863 299.246 101.863 299.246C95.236 306.301 101.863 316.872 101.863 316.872C105.52 321.813 112.319 319.295 112.319 319.295C120.123 324.022 130.726 318.629 130.726 318.629C141.354 307.156 137.697 293.403 137.697 293.403C139.022 286.395 144.177 278.295 144.177 278.295C144.667 264.803 136.715 257.724 136.715 257.724Z" fill="#735784" stroke="#563E66" stroke-miterlimit="10" stroke-linecap="round"/>
<path d="M173.654 249.648C173.654 246.985 171.423 244.826 168.671 244.826C165.92 244.826 163.689 246.985 163.689 249.648V254.09C163.689 256.753 165.92 258.912 168.671 258.912C171.423 258.912 173.654 256.753 173.654 254.09V249.648Z" fill="#DD90AF" stroke="#AF6285" stroke-miterlimit="10"/>
<path d="M167.616 258.793C163.812 265.99 163.689 299.293 163.689 299.293L159.418 293.331L152.178 298.391C150.411 286.585 161.038 255.895 161.038 255.895L167.591 258.816L167.616 258.793Z" fill="#DD90AF" stroke="#AF6285" stroke-linecap="round" stroke-linejoin="round"/>
<path d="M169.678 258.793C173.482 265.99 173.605 299.293 173.605 299.293L177.875 293.331L185.116 298.391C186.883 286.585 176.255 255.895 176.255 255.895L169.702 258.816L169.678 258.793Z" fill="#DD90AF" stroke="#AF6285" stroke-linecap="round" stroke-linejoin="round"/>
<path d="M163.689 247.225C157.038 245.135 139.292 245.61 134.064 245.823C133.132 245.847 132.371 246.584 132.199 247.51C131.119 253.995 135.243 260.503 135.243 260.503C131.856 266.656 132.788 273.283 133.475 276.252C133.721 277.274 134.506 278.058 135.537 278.295C140.151 279.364 143.98 277.82 143.98 277.82C155.491 273.212 164.671 256.893 164.671 256.893C163.664 253.876 163.664 247.225 163.664 247.225H163.689Z" fill="#DD90AF" stroke="#AF6285" stroke-miterlimit="10"/>
<path d="M163.885 252.807C159.615 250.741 154.951 252.807 154.951 252.807H163.885Z" fill="#DD90AF"/>
<path d="M163.885 252.807C159.615 250.741 154.951 252.807 154.951 252.807" stroke="#AF6285" stroke-miterlimit="10" stroke-linecap="round"/>
<path d="M173.212 247.89C179.863 245.8 197.609 246.275 202.837 246.488C203.769 246.512 204.53 247.249 204.702 248.175C205.782 254.66 201.658 261.168 201.658 261.168C205.045 267.321 204.113 273.948 203.426 276.917C203.18 277.939 202.395 278.723 201.364 278.96C196.75 280.029 192.921 278.485 192.921 278.485C181.41 273.877 172.23 257.558 172.23 257.558C173.237 254.541 173.237 247.89 173.237 247.89H173.212Z" fill="#DD90AF" stroke="#AF6285" stroke-miterlimit="10"/>
<path d="M173.016 253.472C177.286 251.405 181.95 253.472 181.95 253.472H173.016Z" fill="#DD90AF"/>
<path d="M173.016 253.472C177.286 251.405 181.95 253.472 181.95 253.472" stroke="#AF6285" stroke-miterlimit="10" stroke-linecap="round"/>
<path d="M104.98 444.194L106.305 479.279C106.747 501.774 111.386 504.03 111.386 504.03C129.745 514.149 143.907 504.03 143.907 504.03C149.871 501.56 148.545 494.814 148.545 494.814C143.686 489.635 141.256 488.97 141.256 488.97L144.127 450.512L104.98 444.218V444.194Z" fill="#FDFFFF" stroke="#D1D3D4" stroke-miterlimit="10"/>
<path d="M106.232 477.188C123.29 485.122 142.139 477.188 142.139 477.188L141.599 484.29C123.265 492.391 106.207 484.956 106.207 484.956V477.188H106.232Z" fill="#DD90AF" stroke="#AF6285" stroke-linecap="round" stroke-linejoin="round"/>
<path d="M106.232 489.517C117.325 499.137 133.083 496.358 133.083 496.358C139.047 495.171 141.28 488.971 141.28 488.971C149.355 493.246 148.717 496.453 148.717 496.453C148.373 505.741 140.446 507.499 140.446 507.499C126.505 511.062 118.847 507.166 118.847 507.166C109.201 504.031 109.864 502.012 109.864 502.012C105.053 497.285 106.256 489.517 106.256 489.517" fill="#735784"/>
<path d="M106.232 489.517C117.325 499.137 133.083 496.358 133.083 496.358C139.047 495.171 141.28 488.971 141.28 488.971C149.355 493.246 148.717 496.453 148.717 496.453C148.373 505.741 140.446 507.499 140.446 507.499C126.505 511.062 118.847 507.166 118.847 507.166C109.201 504.031 109.864 502.012 109.864 502.012C105.053 497.285 106.256 489.517 106.256 489.517" stroke="#563E66" stroke-miterlimit="10" stroke-linecap="round"/>
<path d="M172.893 443.956L174.218 479.041C174.66 501.536 179.299 503.792 179.299 503.792C197.658 513.912 211.82 503.792 211.82 503.792C217.784 501.322 216.458 494.576 216.458 494.576C211.599 489.398 209.169 488.732 209.169 488.732L212.04 450.275L172.893 443.98V443.956Z" fill="#FDFFFF" stroke="#D1D3D4" stroke-miterlimit="10"/>
<path d="M174.145 476.974C191.203 484.907 210.052 476.974 210.052 476.974L209.512 484.076C191.178 492.176 174.12 484.741 174.12 484.741V476.974H174.145Z" fill="#DD90AF" stroke="#AF6285" stroke-linecap="round" stroke-linejoin="round"/>
<path d="M174.145 489.279C185.238 498.899 200.996 496.12 200.996 496.12C206.96 494.932 209.193 488.732 209.193 488.732C217.268 493.008 216.63 496.215 216.63 496.215C216.286 505.503 208.359 507.261 208.359 507.261C194.418 510.824 186.76 506.928 186.76 506.928C177.114 503.792 177.777 501.773 177.777 501.773C172.967 497.046 174.169 489.279 174.169 489.279" fill="#735784"/>
<path d="M174.145 489.279C185.238 498.899 200.996 496.12 200.996 496.12C206.96 494.932 209.193 488.732 209.193 488.732C217.268 493.008 216.63 496.215 216.63 496.215C216.286 505.503 208.359 507.261 208.359 507.261C194.418 510.824 186.76 506.928 186.76 506.928C177.114 503.792 177.777 501.773 177.777 501.773C172.967 497.046 174.169 489.279 174.169 489.279" stroke="#563E66" stroke-miterlimit="10" stroke-linecap="round"/>
<path d="M126.112 337.562C80.3378 354.878 60.04 424.62 60.04 424.62C141.943 484.908 212.286 467.805 263.018 426.877C252.832 366.138 204.775 340.269 204.775 340.269C171.469 361.197 126.137 337.562 126.137 337.562H126.112Z" fill="#735784" stroke="#563E66" stroke-miterlimit="10" stroke-linecap="round"/>
<path d="M163.713 354.784C167.91 383.811 201.977 396.852 201.977 396.852C235.382 403.836 248.022 392.814 248.022 392.814C244.242 358.846 210.175 341.03 210.175 341.03C201.977 333.666 163.713 354.807 163.713 354.807V354.784Z" fill="#523660" stroke="#563E66" stroke-miterlimit="10" stroke-linecap="round"/>
<path d="M163.713 352.242C159.516 381.269 125.45 394.31 125.45 394.31C92.0453 401.294 79.4052 390.272 79.4052 390.272C83.1849 356.304 117.252 338.488 117.252 338.488C125.45 331.124 163.713 352.265 163.713 352.265V352.242Z" fill="#523660" stroke="#563E66" stroke-miterlimit="10" stroke-linecap="round"/>
<path d="M203.229 351.743C198.811 370.437 186.539 386.614 165.922 386.614C145.306 386.614 132.518 370.556 128.616 351.743C121.4 316.872 145.306 316.872 165.922 316.872C186.539 316.872 211.157 318.226 203.229 351.743Z" fill="#F1F2F2" stroke="#A7A9AC" stroke-miterlimit="10" stroke-linecap="round"/>
<path d="M138.163 308.368C134.212 321.219 126.088 335.994 126.088 335.994C175.274 362.147 204.726 338.702 204.726 338.702C202.64 325.708 200.407 311.194 200.407 311.194C165.481 322.668 138.139 308.368 138.139 308.368H138.163Z" fill="#563E66" stroke="#523660" stroke-miterlimit="10" stroke-linecap="round"/>
<path d="M136.175 314.164C165.432 330.768 201.585 318.558 201.585 318.558L203.671 331.813C156.228 345.851 130.923 326.492 130.923 326.492L136.2 314.187L136.175 314.164Z" fill="#DD90AF" stroke="#AF6285" stroke-linecap="round" stroke-linejoin="round"/>
<path d="M309.553 84.1299C311.591 88.7857 312.867 91.0186 313.407 91.9212C313.603 92.2538 313.726 92.6338 313.677 93.0139C313.161 98.1448 306.412 102.563 306.412 102.563C299.441 108.763 302.264 117.528 302.264 117.528C303.884 121.59 301.429 126.08 300.865 126.982C300.791 127.101 300.718 127.196 300.619 127.291C292.25 135.724 291.538 143.848 291.465 144.916C291.465 144.988 291.465 145.059 291.465 145.13L292.274 158.979C292.274 159.121 292.299 159.264 292.348 159.43C294.312 166.841 304.596 172.305 306.436 173.255C306.633 173.35 306.804 173.421 307.001 173.445C312.302 174.276 321.58 169.169 323.347 168.172C323.543 168.053 323.715 167.91 323.863 167.744C333.435 156.271 331.741 148.171 331.226 146.437C331.152 146.223 331.054 146.033 330.907 145.843C327.348 141.33 326.096 136.769 325.752 135.106C325.654 134.678 325.752 134.275 325.924 133.895C328.575 128.55 326.121 122.065 325.556 120.735C325.482 120.569 325.384 120.426 325.286 120.284C318.217 112.065 321.482 105.509 321.482 105.509C324.452 97.3134 320.942 92.5626 320.132 91.6362C320.034 91.5174 319.935 91.4224 319.813 91.3511L309.529 84.2012L309.553 84.1299Z" fill="#2A96D8" stroke="#136FBA" stroke-linecap="round" stroke-linejoin="round"/>
<path d="M310.707 104.558C308.154 108.549 307.811 112.587 307.762 113.799C307.762 114.036 307.786 114.25 307.86 114.464C310.363 121.661 309.185 127.434 308.743 129.168C308.645 129.5 308.449 129.809 308.203 130.047C299.098 138.099 299.073 148.005 299.147 149.477C299.147 149.62 299.147 149.739 299.196 149.857C302.068 162.4 309.848 163.231 311.345 163.278C311.517 163.278 311.664 163.278 311.836 163.231C322.341 160.713 323.543 150.57 323.691 148.48C323.691 148.242 323.691 147.981 323.593 147.743C321.334 140.546 315.297 140.023 313.088 140.094C312.572 140.094 312.081 140.332 311.762 140.736C310.781 141.971 310.192 143.515 309.823 144.917C309.283 147.031 310.118 149.264 311.861 150.523C313.382 151.639 314.241 152.637 314.241 152.637C313.898 155.511 311.419 154.822 311.419 154.822C305.602 153.421 304.645 148.575 304.497 147.031C304.473 146.722 304.497 146.413 304.62 146.128C307.344 139.334 310.511 137.125 311.247 136.674C311.345 136.603 311.468 136.579 311.566 136.531C313.235 136.009 314.659 135.367 315.91 134.631C321.482 131.329 322.807 123.467 318.61 118.478C317.334 116.958 316.18 116.15 315.567 115.77C315.223 115.557 314.953 115.248 314.806 114.868C313.677 111.993 313.677 108.644 314.045 105.794C314.29 103.87 311.787 102.919 310.756 104.535L310.707 104.558Z" fill="#8AE3FF" stroke="#60D4EF" stroke-miterlimit="10" stroke-linecap="round"/>
<path d="M304.988 213.019C307.025 217.675 308.302 219.908 308.842 220.811C309.038 221.143 309.161 221.523 309.112 221.903C308.596 227.034 301.847 231.452 301.847 231.452C294.876 237.652 297.699 246.417 297.699 246.417C299.319 250.479 296.864 254.969 296.3 255.872C296.226 255.99 296.152 256.085 296.054 256.18C287.685 264.613 286.973 272.737 286.899 273.806C286.899 273.877 286.899 273.948 286.899 274.02L287.709 287.868C287.709 288.011 287.734 288.153 287.783 288.32C289.746 295.731 300.03 301.194 301.871 302.144C302.067 302.239 302.239 302.311 302.436 302.334C307.737 303.166 317.015 298.059 318.782 297.061C318.978 296.942 319.15 296.8 319.297 296.633C328.869 285.16 327.176 277.06 326.66 275.326C326.587 275.112 326.489 274.922 326.341 274.732C322.783 270.219 321.531 265.658 321.187 263.995C321.089 263.568 321.187 263.164 321.359 262.784C324.01 257.439 321.555 250.954 320.991 249.624C320.917 249.458 320.819 249.315 320.721 249.173C313.652 240.954 316.917 234.398 316.917 234.398C319.886 226.203 316.377 221.452 315.567 220.526C315.468 220.407 315.37 220.312 315.248 220.241L304.964 213.091L304.988 213.019Z" fill="#2A96D8" stroke="#136FBA" stroke-linecap="round" stroke-linejoin="round"/>
<path d="M306.117 233.448C303.565 237.439 303.221 241.477 303.172 242.688C303.172 242.926 303.196 243.139 303.27 243.353C305.774 250.551 304.595 256.323 304.154 258.057C304.056 258.39 303.859 258.698 303.614 258.936C294.508 266.989 294.483 276.894 294.557 278.367C294.557 278.509 294.557 278.628 294.606 278.747C297.478 291.289 305.258 292.12 306.755 292.168C306.927 292.168 307.074 292.168 307.246 292.12C317.751 289.602 318.954 279.459 319.101 277.369C319.101 277.132 319.101 276.87 319.003 276.633C316.745 269.435 310.707 268.913 308.498 268.984C307.983 268.984 307.492 269.221 307.173 269.625C306.191 270.86 305.602 272.404 305.234 273.806C304.694 275.92 305.528 278.153 307.271 279.412C308.792 280.528 309.652 281.526 309.652 281.526C309.308 284.4 306.829 283.711 306.829 283.711C301.012 282.31 300.055 277.464 299.908 275.92C299.883 275.611 299.908 275.302 300.03 275.017C302.755 268.224 305.921 266.015 306.657 265.563C306.755 265.492 306.878 265.468 306.976 265.421C308.645 264.898 310.069 264.257 311.321 263.52C316.892 260.219 318.217 252.356 314.02 247.368C312.744 245.847 311.591 245.04 310.977 244.66C310.633 244.446 310.363 244.137 310.216 243.757C309.087 240.883 309.087 237.534 309.455 234.683C309.701 232.759 307.197 231.809 306.166 233.424L306.117 233.448Z" fill="#8AE3FF" stroke="#60D4EF" stroke-miterlimit="10" stroke-linecap="round"/>
<path d="M21.0889 66.9082C23.126 71.564 24.4023 73.7969 24.9423 74.6995C25.1386 75.0321 25.2613 75.4121 25.2122 75.7922C24.6968 80.9231 17.9472 85.3413 17.9472 85.3413C10.9768 91.5411 13.7993 100.306 13.7993 100.306C15.4192 104.368 12.9648 108.858 12.4003 109.76C12.3267 109.879 12.2531 109.974 12.1549 110.069C3.7854 118.502 3.07363 126.626 3 127.695C3 127.766 3 127.837 3 127.909L3.80995 141.757C3.80995 141.9 3.83449 142.042 3.88358 142.209C5.84709 149.62 16.131 155.083 17.9718 156.033C18.1681 156.128 18.3399 156.2 18.5363 156.223C23.8378 157.055 33.1154 151.948 34.8825 150.95C35.0789 150.831 35.2507 150.689 35.398 150.522C44.9701 139.049 43.2766 130.949 42.7611 129.215C42.6875 129.001 42.5893 128.811 42.4421 128.621C38.8832 124.108 37.6315 119.547 37.2878 117.884C37.1897 117.457 37.2878 117.053 37.4596 116.673C40.1104 111.328 37.656 104.843 37.0915 103.513C37.0179 103.347 36.9197 103.204 36.8215 103.062C29.7529 94.843 33.0172 88.2868 33.0172 88.2868C35.987 80.0917 32.4772 75.3409 31.6673 74.4145C31.5691 74.2957 31.4709 74.2007 31.3482 74.1294L21.0643 66.9795L21.0889 66.9082Z" fill="#2A96D8" stroke="#136FBA" stroke-linecap="round" stroke-linejoin="round"/>
<path d="M22.2179 87.3128C19.6653 91.3035 19.3217 95.3417 19.2726 96.5532C19.2726 96.7907 19.2972 97.0045 19.3708 97.2183C21.8743 104.416 20.6962 110.188 20.2544 111.922C20.1562 112.255 19.9599 112.563 19.7144 112.801C10.6086 120.854 10.5841 130.759 10.6577 132.232C10.6577 132.374 10.6577 132.493 10.7068 132.612C13.5784 145.154 21.3589 145.985 22.856 146.033C23.0278 146.033 23.1751 146.033 23.3469 145.985C33.8517 143.467 35.0544 133.324 35.2016 131.234C35.2016 130.997 35.2016 130.735 35.1034 130.498C32.8454 123.3 26.8076 122.778 24.5987 122.849C24.0832 122.849 23.5924 123.086 23.2733 123.49C22.2915 124.725 21.7025 126.269 21.3343 127.671C20.7943 129.785 21.6288 132.018 23.3715 133.277C24.8932 134.393 25.7522 135.391 25.7522 135.391C25.4086 138.265 22.9297 137.576 22.9297 137.576C17.1128 136.175 16.1556 131.329 16.0083 129.785C15.9837 129.476 16.0083 129.167 16.131 128.882C18.8554 122.089 22.0215 119.88 22.7579 119.428C22.856 119.357 22.9788 119.333 23.0769 119.286C24.7459 118.763 26.1695 118.122 27.4212 117.385C32.9927 114.084 34.318 106.221 30.121 101.233C28.8448 99.7124 27.6912 98.9048 27.0776 98.5247C26.734 98.311 26.464 98.0022 26.3167 97.6221C25.1877 94.7479 25.1877 91.3985 25.5559 88.548C25.8013 86.624 23.2978 85.6738 22.267 87.2891L22.2179 87.3128Z" fill="#8AE3FF" stroke="#60D4EF" stroke-miterlimit="10" stroke-linecap="round"/>
<path d="M21.0889 359.795C23.9114 366.209 25.2368 368.062 25.2368 368.062C25.2368 373.454 17.9472 378.229 17.9472 378.229C10.9768 384.428 13.7993 393.194 13.7993 393.194C15.6156 397.754 12.3021 402.814 12.3021 402.814C3.17181 411.936 3 420.701 3 420.701L3.83449 434.882C5.82255 443.148 18.2663 449.063 18.2663 449.063C24.0832 450.251 35.2016 443.671 35.2016 443.671C46.32 430.511 42.663 421.746 42.663 421.746C38.0242 416.021 37.1897 410.106 37.1897 410.106C40.6749 404.025 37.0179 396.163 37.0179 396.163C29.7283 387.849 33.0417 381.174 33.0417 381.174C36.3552 371.981 31.5446 367.112 31.5446 367.112L21.0889 359.819V359.795Z" fill="#2A96D8" stroke="#136FBA" stroke-linecap="round" stroke-linejoin="round"/>
<path d="M26.8812 375.307C19.0762 380.865 19.248 389.821 19.248 389.821C22.3897 398.586 20.0825 405.332 20.0825 405.332C9.79864 414.097 10.6331 425.285 10.6331 425.285C13.7748 439.395 23.0769 438.897 23.0769 438.897C35.0298 436.189 35.2016 423.718 35.2016 423.718C32.5508 414.43 23.7641 415.784 23.7641 415.784C22.0461 417.518 21.3343 420.155 21.0152 422.102C20.7943 423.48 21.4079 424.858 22.5615 425.594C24.5986 426.901 25.7522 428.278 25.7522 428.278C25.4086 431.153 22.9296 430.464 22.9296 430.464C15.9592 428.777 15.9592 422.197 15.9592 422.197C19.1008 414.097 22.9296 412.244 22.9296 412.244C26.2921 411.223 28.7465 409.632 30.4892 408.016C33.459 405.285 34.1217 400.7 32.1581 397.137C29.5565 392.41 26.5621 391.151 26.5621 391.151C23.5678 384.737 26.9057 375.283 26.9057 375.283L26.8812 375.307Z" fill="#8AE3FF" stroke="#60D4EF" stroke-miterlimit="10" stroke-linecap="round"/>
</svg>
