<svg width="352" height="517" viewBox="0 0 352 517" fill="none" xmlns="http://www.w3.org/2000/svg">
<path d="M147.05 318.573C141.087 398.886 102.064 445.861 102.064 445.861C143.082 482.328 177.526 464.094 177.526 464.094L187.927 333.031L147.074 318.573H147.05Z" fill="#282728" stroke="#231F20" stroke-linecap="round" stroke-linejoin="round"/>
<path d="M233.148 321.381C239.112 401.693 278.134 448.668 278.134 448.668C237.116 485.136 202.672 466.902 202.672 466.902L192.271 335.839L233.125 321.381H233.148Z" fill="#282728" stroke="#231F20" stroke-linecap="round" stroke-linejoin="round"/>
<path d="M109.272 274.181C99.3174 229.665 40.5492 209.345 40.5492 209.345C11.1534 193.223 5.84718 154.495 5.84718 154.495C-14.0396 249.34 33.6934 279.199 33.6934 279.199C59.5438 290.03 63.9813 300.538 63.9813 300.538C74.8052 334.918 110.611 335.117 110.611 335.117L109.296 274.206L109.272 274.181Z" fill="#F1F2F2" stroke="#A7A9AC" stroke-miterlimit="10"/>
<path d="M105.422 213.543C109.343 165.773 57.149 125.083 57.149 125.083C32.8951 98.8008 39.6336 58.3838 39.6336 58.3838C-9.62551 145.9 28.6219 192.229 28.6219 192.229C50.9974 212.003 52.1479 224.026 52.1479 224.026C52.2418 262.009 87.8126 274.653 87.8126 274.653L105.422 213.543Z" fill="#F1F2F2" stroke="#A7A9AC" stroke-width="1.05" stroke-miterlimit="10"/>
<path d="M242.727 292.415C252.683 247.899 311.451 227.578 311.451 227.578C340.847 211.456 346.153 172.729 346.153 172.729C366.04 267.573 318.307 297.432 318.307 297.432C292.456 308.263 288.019 318.771 288.019 318.771C277.195 353.152 241.389 353.351 241.389 353.351L242.704 292.439L242.727 292.415Z" fill="#F1F2F2" stroke="#A7A9AC" stroke-miterlimit="10"/>
<path d="M246.578 231.777C242.657 184.007 294.851 143.316 294.851 143.316C319.105 117.034 312.366 76.6172 312.366 76.6172C361.626 164.134 323.378 210.463 323.378 210.463C301.003 230.237 299.852 242.26 299.852 242.26C299.758 280.242 264.187 292.887 264.187 292.887L246.578 231.777Z" fill="#F1F2F2" stroke="#A7A9AC" stroke-width="1.05" stroke-miterlimit="10"/>
<path d="M157.663 398.165C160.105 413.591 155.456 424.819 155.456 424.819C151.159 442.805 154.141 476.539 155.151 486.501C155.362 488.587 155.902 490.649 156.818 492.512C163.979 506.871 177.55 503.592 177.55 503.592C182.128 503.492 185.697 502.325 188.233 501.107C191.168 499.667 192.576 496.015 191.355 492.835C190.792 491.37 190.252 490.426 189.806 489.805C188.796 488.438 188.327 486.749 188.491 485.035C189.829 468.863 189.923 457.461 189.782 450.878C189.688 446.754 190.299 442.631 191.731 438.78C198.775 419.727 195.253 406.809 195.253 406.809L157.686 398.165H157.663Z" fill="#F9DBB2" stroke="#D8AE7D" stroke-linecap="round" stroke-linejoin="round"/>
<path d="M204.128 396.426C206.57 411.852 201.921 423.081 201.921 423.081C197.624 441.066 200.606 474.8 201.616 484.762C201.827 486.849 202.367 488.91 203.283 490.773C210.444 505.132 224.015 501.853 224.015 501.853C228.593 501.753 232.162 500.586 234.698 499.369C237.633 497.928 239.041 494.276 237.82 491.096C237.257 489.631 236.717 488.687 236.271 488.066C235.261 486.699 234.792 485.01 234.956 483.296C236.294 467.124 236.388 455.722 236.247 449.139C236.153 445.016 237.515 441.115 238.196 437.041C241.601 416.746 239.206 398.165 239.206 398.165L204.128 396.401V396.426Z" fill="#F9DBB2" stroke="#D8AE7D" stroke-linecap="round" stroke-linejoin="round"/>
<path d="M149.492 486.078V499.642C163.204 520.211 192.858 509.926 192.858 509.926L193.891 495.419C171.68 472.043 149.469 486.078 149.469 486.078H149.492Z" fill="#BE1E2D" stroke="#932532" stroke-linecap="round" stroke-linejoin="round"/>
<path d="M199.667 489.581V503.144C213.379 523.713 243.033 513.429 243.033 513.429L244.066 498.921C221.855 475.545 199.643 489.581 199.643 489.581H199.667Z" fill="#BE1E2D" stroke="#932532" stroke-linecap="round" stroke-linejoin="round"/>
<path d="M153.202 475.794C168.064 481.632 188.96 478.601 188.96 478.601L188.467 485.035C194.126 493.556 190.228 499.542 190.228 499.542C178.442 506.871 163.204 502.176 163.204 502.176C149.422 496.263 153.202 475.794 153.202 475.794Z" fill="#F1F2F2" stroke="#BCBEC0" stroke-linecap="round" stroke-linejoin="round"/>
<path d="M200.301 477.657C215.163 483.494 235.285 478.551 235.285 478.551L236.928 485.035C242.587 493.555 238.689 499.542 238.689 499.542C231.763 503.864 223.616 504.013 218.098 503.392C213.707 502.896 209.645 500.685 206.828 497.083C199.056 487.146 200.301 477.657 200.301 477.657Z" fill="#F1F2F2" stroke="#BCBEC0" stroke-linecap="round" stroke-linejoin="round"/>
<path d="M155.456 495.444C166.068 486.551 179.991 506.2 179.991 506.2C183.091 494.972 191.355 492.885 191.355 492.885L189.735 487.271C183.513 488.439 178.864 496.736 178.864 496.736C161.96 480.166 152.709 490.674 152.709 490.674L155.432 495.444H155.456Z" fill="#282728" stroke="#231F20" stroke-width="1.01" stroke-linecap="round" stroke-linejoin="round"/>
<path d="M205.278 495.444C215.891 486.551 229.814 506.2 229.814 506.2C232.913 494.972 241.178 492.885 241.178 492.885L239.558 487.271C233.336 488.439 228.687 496.736 228.687 496.736C211.782 480.166 202.531 490.674 202.531 490.674L205.255 495.444H205.278Z" fill="#282728" stroke="#231F20" stroke-width="1.01" stroke-linecap="round" stroke-linejoin="round"/>
<path d="M142.284 206.091L266.911 218.413C249.02 242.608 262.943 278.38 262.943 278.38C277.852 304.687 268.578 340.111 268.578 340.111C259.961 352.73 247.705 353.426 247.705 353.426L131.038 365.002C108.498 355.537 104.53 318.002 104.53 318.002C101.877 265.736 142.308 206.066 142.308 206.066L142.284 206.091Z" fill="#A7A9AC" stroke="#939598" stroke-linecap="round" stroke-linejoin="round"/>
<path d="M223.169 234.907C178.747 235.603 148.929 223.331 148.929 223.331L153.249 201.247L159.541 205.445C151.91 175.983 156.888 155.638 156.888 155.638C189.031 148.285 214.905 101.633 214.905 101.633C209.27 128.635 216.572 158.793 216.572 158.793C230.166 165.103 234.463 162.296 234.463 162.296C238.102 145.801 240.755 101.633 240.755 101.633C245.404 114.252 240.755 162.917 240.755 162.917C249.043 163.687 250.71 162.917 250.71 162.917C257.003 137.752 254.35 107.247 254.35 107.247C259.656 138.1 284.192 160.904 284.192 160.904C286.187 174.592 277.406 196.85 277.406 196.85C288.958 216.599 255.031 228.746 255.031 228.746C245.921 233.491 223.216 234.882 223.216 234.882L223.169 234.907Z" fill="#F9DBB2" stroke="#D8AE7D" stroke-linecap="round" stroke-linejoin="round"/>
<path d="M186.706 165.873C191.79 165.873 195.91 163.359 195.91 160.259C195.91 157.158 191.79 154.645 186.706 154.645C181.623 154.645 177.503 157.158 177.503 160.259C177.503 163.359 181.623 165.873 186.706 165.873Z" fill="#BE1E2D"/>
<path d="M266.934 170.245C272.018 170.245 276.138 167.731 276.138 164.631C276.138 161.53 272.018 159.017 266.934 159.017C261.851 159.017 257.731 161.53 257.731 164.631C257.731 167.731 261.851 170.245 266.934 170.245Z" fill="#BE1E2D"/>
<path d="M203.494 176.38C202.484 186.913 196.732 194.912 190.627 194.266C184.523 193.62 180.391 184.553 181.4 174.02C182.41 163.488 188.89 153.005 194.267 156.135C201.31 160.258 204.504 165.848 203.494 176.38Z" fill="#231F20"/>
<path d="M270.902 180.951C269.916 191.285 264.258 199.16 258.271 198.539C252.284 197.918 248.222 189 249.184 178.641C250.147 168.282 256.181 163.314 261.816 161.053C266.911 159.016 271.865 170.592 270.902 180.951Z" fill="#231F20"/>
<path d="M235.919 213.469C223.334 217.791 214.646 211.407 214.646 211.407" stroke="#231F20" stroke-miterlimit="10" stroke-linecap="round"/>
<path d="M246.695 54.6574C265.925 37.1193 291.611 34.8339 291.611 34.8339C309.173 30.8096 319.786 22.2145 319.786 22.2145C326.243 20.2769 326.243 25.0216 326.243 25.0216C321.265 38.8831 278.181 86.9264 278.181 86.9264L246.695 54.6574Z" fill="#F1F2F2" stroke="#A7A9AC" stroke-miterlimit="10"/>
<path d="M134.527 19.755C135.028 18.0955 134.164 16.3198 132.595 15.7889C131.027 15.258 129.348 16.173 128.846 17.8325L69.5539 213.928C69.0521 215.588 69.9168 217.363 71.4854 217.894C73.0539 218.425 74.7322 217.51 75.234 215.851L134.527 19.755Z" fill="#E8C51C" stroke="#E8B30C" stroke-miterlimit="10"/>
<path d="M134.677 61.3153C128.056 49.7392 103.849 56.0489 103.849 56.0489C86.2865 69.0161 88.2587 106.552 88.2587 106.552C85.9343 125.828 77.6462 131.79 77.6462 131.79C61.3987 150.372 64.7092 168.282 64.7092 168.282C74.3122 184.752 97.2043 177.871 97.2043 177.871C115.095 157.377 134.653 61.2905 134.653 61.2905L134.677 61.3153Z" fill="#F1F2F2" stroke="#A7A9AC" stroke-miterlimit="10"/>
<path d="M213.567 44.1249C185.955 23.7798 131.578 56.5208 131.578 56.5208C99.0826 82.2317 93.1189 125.953 93.1189 125.953C79.6419 133.678 83.3986 164.606 83.3986 164.606C88.0474 185.572 100.867 182.516 100.867 182.516C103.966 207.06 82.929 261.314 82.929 261.314C62.8544 302.004 64.6153 345.253 64.6153 345.253C65.9301 363.014 73.4434 369.572 73.4434 369.572C66.5876 343.39 75.8853 297.085 75.8853 297.085C76.3314 362.89 105.938 374.715 105.938 374.715C87.93 331.689 111.691 253.141 111.691 253.141C99.1061 318.126 123.172 363.486 123.172 363.486C123.383 356.233 126.271 355.761 126.271 355.761C117.655 345.948 118.101 340.806 118.101 340.806C126.717 329.106 134.677 302.004 134.677 302.004C137.987 306.45 154.775 317.902 154.775 317.902C140.641 295.446 153.225 201.247 153.225 201.247L159.518 205.445C150.572 177.846 156.865 155.638 156.865 155.638C196.098 143.491 214.881 101.633 214.881 101.633C205.818 132.958 216.548 158.793 216.548 158.793C228.804 166.618 234.439 162.296 234.439 162.296C241.178 140.907 240.732 101.633 240.732 101.633C248.691 128.511 240.732 162.917 240.732 162.917C247.588 165.922 250.687 162.917 250.687 162.917C258.646 139.044 254.326 107.247 254.326 107.247C264.375 144.658 284.168 160.904 284.168 160.904C287.361 172.481 277.383 196.85 277.383 196.85C282.736 203.557 274.049 217.071 274.049 217.071C274.049 217.071 271.349 224.648 268.038 248.098C264.727 271.548 260.243 277.908 260.243 277.908C258.435 285.385 246.273 298.948 246.273 298.948C251.344 298.253 257.731 289.831 257.731 289.831C257.543 297.781 247.142 307.593 247.142 307.593C257.097 310.624 266.911 305.73 266.911 305.73C288.465 251.253 286.68 193.049 286.68 193.049C292.198 192.105 294.851 189.547 294.851 189.547C295.743 172.481 293.959 159.017 293.959 159.017C297.269 169.673 309.878 177.896 309.878 177.896C294.851 156.135 292.973 121.531 292.973 121.531C281.585 73.1397 264.798 64.942 264.798 64.942C260.032 59.4521 254.655 55.4029 249.208 52.422C231.669 42.7835 213.52 44.1498 213.52 44.1498L213.567 44.1249Z" fill="#F1F2F2" stroke="#A7A9AC" stroke-miterlimit="10"/>
<path d="M92.6728 126.201C81.0741 133.802 83.3985 154.644 83.3985 154.644C83.7272 179.237 92.344 180.579 92.344 180.579C109.695 189.099 119.627 182.094 119.627 182.094C123.172 180.927 126.694 173.549 126.694 173.549C125.802 149.129 147.027 106.353 147.027 106.353C132.705 120.562 108.498 128.337 99.8339 130.772C97.1103 131.542 94.1519 130.2 93.0249 127.468C92.7197 126.723 92.6728 126.226 92.6728 126.226V126.201Z" fill="#F1F2F2" stroke="#A7A9AC" stroke-miterlimit="10"/>
<path d="M185.392 83.7719C148.929 134.97 165.176 207.582 165.176 207.582L148.929 197.769C143.294 181.275 144.608 162.345 144.608 162.345C134.653 179.511 142.941 199.881 142.941 199.881C129.676 195.31 126.365 190.416 126.365 190.416C118.077 141.851 161.842 78.1826 161.842 78.1826" fill="#F1F2F2"/>
<path d="M185.392 83.7719C148.929 134.97 165.176 207.582 165.176 207.582L148.929 197.769C143.294 181.275 144.608 162.345 144.608 162.345C134.653 179.511 142.941 199.881 142.941 199.881C129.676 195.31 126.365 190.416 126.365 190.416C118.077 141.851 161.842 78.1826 161.842 78.1826" stroke="#A7A9AC" stroke-miterlimit="10"/>
<path d="M141.627 88.6654C136.649 59.2283 160.856 1 160.856 1C169.473 1.69556 198.986 64.1221 198.986 64.1221C158.555 66.2336 141.65 88.6654 141.65 88.6654H141.627Z" fill="#F1F2F2" stroke="#A7A9AC" stroke-linejoin="round"/>
<path d="M148.647 81.8343C145.407 62.607 164.026 23.0098 164.026 23.0098C169.661 23.4569 189.712 64.9918 189.712 64.9918C161.02 70.3327 148.647 81.8343 148.647 81.8343Z" fill="#DD90AF" stroke="#AF6285" stroke-width="0.65" stroke-miterlimit="10"/>
<path d="M185.227 232.87L184.828 240.173C180.344 243.676 171.234 246.831 171.234 246.831C159.964 252.445 160.128 265.76 160.128 265.76C181.165 268.915 205.372 290.13 205.372 290.13C217.628 270.853 231.716 266.282 231.716 266.282C232.538 246.632 222.77 245.763 222.77 245.763C218.45 245.241 209.012 242.434 209.012 242.434L208.683 235.081C194.196 238.037 184.687 232.845 185.204 232.845L185.227 232.87Z" fill="#F9DBB2" stroke="#D8AE7D" stroke-linecap="round" stroke-linejoin="round"/>
<path d="M124.839 351.885C120.707 364.331 122.35 377.124 122.35 377.124C125.332 384.154 127.657 381.173 127.657 381.173C129.981 387.483 133.62 384.328 133.62 384.328C138.269 390.986 140.922 386.614 140.922 386.614C147.708 395.035 149.703 383.806 149.703 383.806C146.064 370.293 148.13 359.611 148.13 359.611C149.539 363.287 150.713 374.739 150.713 374.739C152.216 379.062 156.254 377.124 156.254 377.124C158.344 365.2 152.028 351.885 152.028 351.885H124.839Z" fill="#F9DBB2" stroke="#D8AE7D" stroke-linecap="round" stroke-linejoin="round"/>
<path d="M141.087 368.181C138.762 373.621 140.922 386.589 140.922 386.589L141.087 368.181Z" fill="#F9DBB2"/>
<path d="M141.087 368.181C138.762 373.621 140.922 386.589 140.922 386.589" stroke="#D8AE7D" stroke-linecap="round" stroke-linejoin="round"/>
<path d="M128.314 361.002C125.99 366.442 127.657 381.173 127.657 381.173L128.314 361.002Z" fill="#F9DBB2"/>
<path d="M128.314 361.002C125.99 366.442 127.657 381.173 127.657 381.173" stroke="#D8AE7D" stroke-linecap="round" stroke-linejoin="round"/>
<path d="M134.465 364.505C132.798 368.181 133.644 384.328 133.644 384.328L134.465 364.505Z" fill="#F9DBB2"/>
<path d="M134.465 364.505C132.798 368.181 133.644 384.328 133.644 384.328" stroke="#D8AE7D" stroke-linecap="round" stroke-linejoin="round"/>
<path d="M267.052 346.47C271.184 358.915 269.541 371.709 269.541 371.709C266.559 378.739 264.234 375.758 264.234 375.758C261.91 382.067 258.271 378.913 258.271 378.913C253.622 385.57 250.969 381.198 250.969 381.198C244.183 389.619 242.187 378.391 242.187 378.391C245.827 364.877 243.761 354.195 243.761 354.195C242.352 357.872 241.178 369.324 241.178 369.324C239.675 373.646 235.637 371.709 235.637 371.709C233.547 359.785 239.863 346.47 239.863 346.47H267.052Z" fill="#F9DBB2" stroke="#D8AE7D" stroke-linecap="round" stroke-linejoin="round"/>
<path d="M250.804 362.791C253.129 368.231 250.969 381.199 250.969 381.199L250.804 362.791Z" fill="#F9DBB2"/>
<path d="M250.804 362.791C253.129 368.231 250.969 381.199 250.969 381.199" stroke="#D8AE7D" stroke-linecap="round" stroke-linejoin="round"/>
<path d="M263.553 355.586C265.878 361.027 264.211 375.758 264.211 375.758L263.553 355.586Z" fill="#F9DBB2"/>
<path d="M263.553 355.586C265.878 361.027 264.211 375.758 264.211 375.758" stroke="#D8AE7D" stroke-linecap="round" stroke-linejoin="round"/>
<path d="M257.425 359.09C259.092 362.766 258.247 378.913 258.247 378.913L257.425 359.09Z" fill="#F9DBB2"/>
<path d="M257.425 359.09C259.092 362.766 258.247 378.913 258.247 378.913" stroke="#D8AE7D" stroke-linecap="round" stroke-linejoin="round"/>
<path d="M241.53 273.908C248.996 290.924 267.216 328.087 267.216 328.087C274.518 337.03 265.549 347.19 265.549 347.19C245.334 361.052 227.255 352.456 227.255 352.456C224.766 349.997 226.433 342.296 226.433 342.296C226.104 303.37 220.141 292.141 220.141 292.141C217.652 285.832 217.652 276.715 217.652 276.715C229.744 271.622 241.507 273.908 241.507 273.908H241.53Z" fill="#BE1E2D" stroke="#932532" stroke-linecap="round" stroke-linejoin="round"/>
<path d="M157.428 341.974L155.432 400.5C199.643 423.876 243.854 405.17 243.854 405.17C244.042 363.312 239.628 341.974 239.628 341.974H157.428Z" fill="#BE1E2D" stroke="#932532" stroke-linecap="round" stroke-linejoin="round"/>
<path d="M217.652 353.053H212.463V412.275H217.652V353.053Z" fill="#E8C51C" stroke="#E8B30C" stroke-linecap="round" stroke-linejoin="round"/>
<path d="M206.218 331.888L205.067 353.276C221.15 360.281 242.774 344.681 242.774 344.681C235.238 331.888 231.786 328.907 231.786 328.907C223.122 334.347 206.218 331.888 206.218 331.888Z" fill="#BE1E2D" stroke="#932532" stroke-linecap="round" stroke-linejoin="round"/>
<path d="M160.128 345.228C173.558 353.127 207.697 356.978 207.697 356.978L208.519 336.285C187.974 334.173 161.936 326.994 161.936 326.994L160.105 345.228H160.128Z" fill="#BE1E2D" stroke="#932532" stroke-linecap="round" stroke-linejoin="round"/>
<path d="M161.959 329.901L165.951 297.185C190.158 305.432 231.786 300.339 231.786 300.339C228.593 319.442 235.238 331.913 235.238 331.913C203.917 351.19 161.983 329.926 161.983 329.926" fill="#E8C51C"/>
<path d="M161.959 329.901L165.951 297.185C190.158 305.432 231.786 300.339 231.786 300.339C228.593 319.442 235.238 331.913 235.238 331.913C203.917 351.19 161.983 329.926 161.983 329.926" stroke="#E8B30C" stroke-linecap="round" stroke-linejoin="round"/>
<path d="M165.834 308.562C180.954 315.567 196.427 316.113 196.427 316.113C217.088 317.38 231.199 311.543 231.199 311.543C231.88 315.915 232.749 321.703 232.749 321.703C204.316 339.588 162.805 321.703 162.805 321.703L165.834 308.562Z" fill="#282728" stroke="#231F20" stroke-width="1.01" stroke-linecap="round" stroke-linejoin="round"/>
<path d="M169.942 284.838C166.608 295.072 170.107 300.314 170.107 300.314C212.698 305.58 231.81 300.314 231.81 300.314C237.069 285.061 231.81 278.429 231.81 278.429C207.086 303.121 169.966 284.838 169.966 284.838H169.942Z" fill="#BE1E2D" stroke="#932532" stroke-linecap="round" stroke-linejoin="round"/>
<path d="M148.717 282.081C141.251 299.097 123.031 336.26 123.031 336.26C115.729 345.203 124.698 355.363 124.698 355.363C144.914 369.224 162.993 360.629 162.993 360.629C165.481 358.17 163.814 350.469 163.814 350.469C164.143 311.543 170.107 300.314 170.107 300.314C172.595 294.005 172.595 284.888 172.595 284.888C160.504 279.795 148.741 282.081 148.741 282.081H148.717Z" fill="#BE1E2D" stroke="#932532" stroke-linecap="round" stroke-linejoin="round"/>
<path d="M207.039 303.121L195.957 302.425C195.957 302.425 191.473 292.613 172.572 284.887C172.572 284.887 158.649 284.887 148.717 282.08C148.717 282.08 147.402 271.92 148.717 267.349C148.717 267.349 150.032 261.387 160.152 261.487C160.152 261.487 204.41 271.547 210.045 303.096" fill="#282728"/>
<path d="M207.039 303.121L195.957 302.425C195.957 302.425 191.473 292.613 172.572 284.887C172.572 284.887 158.649 284.887 148.717 282.08C148.717 282.08 147.402 271.92 148.717 267.349C148.717 267.349 150.032 261.387 160.152 261.487C160.152 261.487 204.41 271.547 210.045 303.096" stroke="#231F20" stroke-linecap="round" stroke-linejoin="round"/>
<path d="M202.085 303.122C207.391 277.162 231.739 266.307 231.739 266.307V261.984C246.508 261.413 242.187 272.989 242.187 272.989C228.264 275.796 209.692 303.147 209.692 303.147H202.062L202.085 303.122Z" fill="#282728" stroke="#231F20" stroke-linecap="round" stroke-linejoin="round"/>
<path d="M192.952 246.582L181.705 269.461L187.317 272.715L197.765 246.582H192.952Z" fill="#282728" stroke="#231F20" stroke-linecap="round" stroke-linejoin="round"/>
<path d="M208.331 246.085L222.465 268.989L217.323 273.237L203.564 246.731L208.331 246.085Z" fill="#282728" stroke="#231F20" stroke-linecap="round" stroke-linejoin="round"/>
<path d="M184.194 233.64C192.881 235.552 208.894 234.509 208.894 234.509L210.045 245.564C200.089 253.289 183.537 245.564 183.537 245.564L184.194 233.64Z" fill="#BE1E2D" stroke="#932532" stroke-linecap="round" stroke-linejoin="round"/>
<path d="M258.177 165.848C266.347 162.569 266.347 153.924 266.347 153.924C268.343 160.01 264.587 167.711 264.587 167.711L258.153 165.848H258.177Z" fill="#231F20" stroke="#231F20" stroke-linecap="round" stroke-linejoin="round"/>
<path d="M189.735 162.768C197.906 159.489 197.906 150.844 197.906 150.844C199.902 156.93 196.145 164.631 196.145 164.631L189.712 162.768H189.735Z" fill="#231F20" stroke="#231F20" stroke-linecap="round" stroke-linejoin="round"/>
</svg>
