<svg width="245" height="516" viewBox="0 0 245 516" fill="none" xmlns="http://www.w3.org/2000/svg">
<path d="M231.874 162.123C247.501 104.732 222.412 55.6042 222.412 55.6042C197.442 7.61947 133.538 8.07193 133.538 8.07193C50.5883 8.52439 31.5664 75.3219 31.5664 75.3219C22.7297 100.755 25.4987 119.115 29.0382 129.593C30.7719 134.737 33.7576 139.381 37.7787 143.072C48.7584 153.098 52.4183 163.623 52.4183 163.623C58.775 188.723 69.6343 197.248 69.6343 197.248C85.502 201.725 96.8188 203.083 96.8188 203.083C107.341 209.893 116.394 209.25 119.597 208.727V216.752C117.261 223.42 107.871 226.158 102.188 227.23C97.5652 228.087 93.5201 230.802 90.9437 234.707C81.5772 248.876 76.7856 276.929 76.7856 276.929C68.623 290.05 58.4379 327.033 58.4379 327.033C66.0226 326.581 83.9369 332.415 83.9369 332.415C92.7736 312.912 96.1687 289.384 96.1687 289.384C105.005 273.476 105.005 267.856 105.005 267.856C106.811 286.002 103.2 295.194 103.2 295.194C95.7112 309.53 91.1844 338.678 91.1844 338.678C90.6066 343.417 90.1009 349.609 89.6675 356.324C88.5118 355.157 86.9707 354.014 84.9963 353.109C85.1408 350.942 85.2612 349.156 85.3575 347.823C85.4538 346.465 84.8278 345.227 83.7924 344.489C84.2499 344.25 84.5388 344.084 84.5388 344.084C86.4169 338.249 84.5388 335.725 84.5388 335.725C81.0475 330.343 65.9744 329.772 59.5936 329.772C57.7637 329.772 56.006 330.7 55.1151 332.272C51.1181 339.202 52.2016 345.655 52.2016 345.655C50.5643 347.275 50.1549 349.489 50.2753 351.609C46.5191 352.466 41.6312 355.491 40.8607 365.349V377.113L42.0164 377.352C33.7335 379.042 27.0638 381.995 23.2835 385.639C3.27437 397.212 8.47529 423.431 8.47529 423.431C15.0487 453.008 46.0857 458.842 46.0857 458.842C56.2227 460.866 64.7464 461.009 71.5365 460.366C75.1001 460.033 78.5192 459.176 81.7457 457.89C82.1791 475.536 83.7202 490.657 83.7202 490.657C88.0302 510.161 112.036 507.922 112.036 507.922C129.951 506.351 129.493 498.063 129.493 498.063C128.819 491.11 122.005 489.109 122.005 489.109C121.547 463.105 132.647 434.433 132.647 434.433C139.437 414.477 139.221 374.589 139.221 374.589C147.383 387.806 146.468 439.148 146.468 439.148C144.879 462.462 156.894 494.729 156.894 494.729C165.514 509.97 185.21 506.374 185.21 506.374C201.078 503.469 199.031 493.372 199.031 493.372C198.574 486.418 189.28 483.061 189.28 483.061C185.427 448.102 188.365 423.884 188.365 423.884C188.678 422.24 188.943 420.574 189.183 418.859C189.28 418.526 189.328 418.24 189.304 418.002C190.965 405.595 190.773 391.664 189.93 379.161C190.146 379.257 190.339 379.4 190.556 379.471C190.628 379.471 190.7 379.519 190.773 379.542C192.41 379.971 194.071 378.876 194.432 377.233C195.107 374.161 196.046 368.35 194.36 364.611L193.806 353.728C193.927 353.728 194.071 353.728 194.192 353.728L195.131 363.659C195.131 363.659 195.323 365.183 195.685 373.446C195.781 375.78 197.346 377.852 199.609 378.518C199.682 378.518 199.754 378.566 199.826 378.59C201.463 379.019 203.125 377.923 203.486 376.28C203.823 374.756 204.232 372.541 204.329 370.231C204.329 370.755 204.377 371.303 204.401 371.898C204.497 374.232 206.062 376.304 208.326 376.971C208.398 376.971 208.47 377.018 208.542 377.042C210.18 377.471 211.841 376.375 212.202 374.732C212.876 371.66 213.816 365.85 212.13 362.111L211.913 357.729C212.684 358.991 213.864 360.992 215.694 364.111C216.873 366.135 219.209 367.255 221.545 366.826C221.617 366.826 221.689 366.802 221.761 366.778C223.423 366.421 224.362 364.683 223.928 363.063C223.11 360.015 221.208 354.443 217.981 351.895L211.263 340.583L211.022 340.702C210.204 337.464 208.591 333.344 205.364 328.676C205.364 328.676 195.396 289.455 184.055 274.667C184.055 274.667 170.908 232.088 162.529 225.134L151.428 220.205L151.693 211.965C164.407 215.609 172.064 208.107 172.064 208.107C187.931 215.728 196.479 205.869 196.479 205.869C214.658 209.012 220.1 191.962 220.1 191.962C223.712 185.175 226.601 178.435 228.937 171.744C232.26 170.577 234.499 168.553 234.499 166.243C234.499 164.719 233.488 163.338 231.898 162.218L231.874 162.123ZM66.9375 349.799C66.9375 349.799 66.9857 349.799 67.0098 349.799C67.0098 349.823 67.0098 349.871 67.0098 349.894C67.0098 349.871 66.9857 349.823 66.9616 349.799H66.9375ZM76.7615 351.728H75.5817C75.6058 351.323 75.6298 350.918 75.6539 350.585C75.7261 349.68 75.4613 348.847 74.9797 348.156C75.5335 347.989 76.0392 347.799 76.5448 347.632C76.3522 349.013 76.4967 350.442 76.7615 351.728ZM59.1362 349.204C59.1362 349.204 59.088 349.299 59.0639 349.347C59.0639 349.299 59.0639 349.228 59.0639 349.18C59.088 349.18 59.1121 349.18 59.1362 349.18V349.204ZM204.136 366.207C203.992 365.278 203.775 364.373 203.414 363.563L202.86 352.752C202.86 352.752 202.956 352.728 202.98 352.728L203.871 361.992C203.871 361.992 203.967 362.778 204.136 366.183V366.207Z" stroke="white" stroke-width="15" stroke-miterlimit="10"/>
<path d="M22.4167 385.519C2.40755 397.093 7.60847 423.312 7.60847 423.312C14.1819 452.888 45.2189 458.723 45.2189 458.723C55.3559 460.747 63.8796 460.89 70.6697 460.247C83.8646 459.009 95.1815 450.841 100.888 439.005C107.606 425.026 108.376 411.429 108.376 411.429C104.379 396.855 95.7593 392.402 95.7593 392.402C85.7909 410.976 22.4167 385.496 22.4167 385.496V385.519Z" fill="#F7941D" stroke="#D8770E" stroke-miterlimit="10" stroke-linecap="round"/>
<path d="M57.3785 409.191C78.5756 409.191 95.7594 401.674 95.7594 392.402C95.7594 383.13 78.5756 375.613 57.3785 375.613C36.1813 375.613 18.9976 383.13 18.9976 392.402C18.9976 401.674 36.1813 409.191 57.3785 409.191Z" fill="#282728" stroke="#231F20" stroke-miterlimit="10" stroke-linecap="round"/>
<path d="M47.8194 423.526L44.7133 428.122C44.2076 428.884 44.641 429.908 45.5319 430.099L50.1791 431.003C51.1181 431.194 51.9368 430.313 51.6719 429.408L50.1309 423.931C49.842 422.883 48.4213 422.645 47.7953 423.55L47.8194 423.526Z" fill="#282728" stroke="#231F20" stroke-miterlimit="10" stroke-linecap="round"/>
<path d="M20.0569 403.355C23.2352 410.976 39.9938 422.954 39.9938 422.954C27.762 425.55 20.0569 422.954 20.0569 422.954C16.6618 416.81 20.0569 403.355 20.0569 403.355Z" fill="#282728" stroke="#231F20" stroke-linecap="round" stroke-linejoin="round"/>
<path d="M79.0731 412.047C74.5945 418.31 56.8969 425.716 56.8969 425.716C67.4432 430.574 74.9798 429.789 74.9798 429.789C79.3379 424.907 79.0731 412.047 79.0731 412.047Z" fill="#282728" stroke="#231F20" stroke-width="0.93" stroke-linecap="round" stroke-linejoin="round"/>
<path d="M30.1459 429.836C34.9134 439.219 46.6155 444.672 46.6155 444.672C54.9947 446.577 70.9346 435.528 70.9346 435.528C62.8924 455.127 45.556 454.222 45.556 454.222C30.1459 446.816 30.1459 429.836 30.1459 429.836Z" fill="#282728" stroke="#231F20" stroke-width="0.93" stroke-linecap="round" stroke-linejoin="round"/>
<path d="M40.0179 376.97V365.206C41.27 348.941 53.8389 351.251 53.8389 351.251L80.0843 351.704C90.0528 353.633 92.2439 361.682 92.2439 361.682V388.091" stroke="#231F20" stroke-width="2" stroke-linecap="round" stroke-linejoin="round"/>
<path d="M210.42 340.416L217.138 351.728C216.512 353.943 209.794 355.49 209.794 355.49L202.571 344.417L210.42 340.393V340.416Z" fill="white" stroke="#BCBEC0" stroke-miterlimit="10"/>
<path d="M217.138 351.728C220.365 354.276 222.267 359.849 223.086 362.897C223.519 364.516 222.58 366.254 220.919 366.612C220.846 366.612 220.774 366.635 220.702 366.659C218.39 367.088 216.031 365.969 214.851 363.944C210.661 356.777 209.794 355.491 209.794 355.491L217.138 351.728Z" fill="white" stroke="#BCBEC0" stroke-miterlimit="10"/>
<path d="M192.867 351.347L193.541 364.469C191.952 366.159 185.259 364.469 185.259 364.469L184.006 351.347H192.843H192.867Z" fill="white" stroke="#BCBEC0" stroke-miterlimit="10"/>
<path d="M193.542 364.468C195.227 368.207 194.288 374.018 193.614 377.09C193.253 378.733 191.591 379.852 189.954 379.399C189.882 379.399 189.809 379.352 189.737 379.328C187.474 378.661 185.909 376.589 185.812 374.256C185.451 365.992 185.259 364.468 185.259 364.468H193.542Z" fill="white" stroke="#BCBEC0" stroke-miterlimit="10"/>
<path d="M201.897 350.394L202.571 363.515C200.982 365.206 194.288 363.515 194.288 363.515L193.036 350.394H201.873H201.897Z" fill="white" stroke="#BCBEC0" stroke-miterlimit="10"/>
<path d="M202.595 363.516C204.281 367.254 203.341 373.065 202.667 376.137C202.306 377.78 200.645 378.899 199.007 378.447C198.935 378.447 198.863 378.399 198.791 378.375C196.527 377.709 194.962 375.637 194.866 373.303C194.505 365.04 194.312 363.516 194.312 363.516H202.595Z" fill="white" stroke="#BCBEC0" stroke-miterlimit="10"/>
<path d="M210.637 348.822L211.311 361.944C209.722 363.634 203.028 361.944 203.028 361.944L201.776 348.822H210.613H210.637Z" fill="white" stroke="#BCBEC0" stroke-miterlimit="10"/>
<path d="M211.311 361.943C212.997 365.682 212.058 371.493 211.384 374.565C211.022 376.208 209.361 377.327 207.724 376.875C207.651 376.875 207.579 376.827 207.507 376.803C205.244 376.136 203.679 374.065 203.582 371.731C203.221 363.467 203.028 361.943 203.028 361.943H211.311Z" fill="white" stroke="#BCBEC0" stroke-miterlimit="10"/>
<path d="M183.067 333.439L204.521 328.509C212.226 339.726 210.878 347.775 210.878 347.775C204.979 356.3 183.405 352.918 183.405 352.918C182.104 340.583 183.067 333.415 183.067 333.415V333.439Z" fill="white" stroke="#BCBEC0" stroke-miterlimit="10"/>
<path d="M150.61 220.014L161.71 224.943C170.089 231.897 183.236 274.476 183.236 274.476C194.577 289.264 204.545 328.485 204.545 328.485C201.608 339.249 182.562 335.653 182.562 335.653L156.726 272.928L150.61 220.014Z" fill="#282728" stroke="#231F20" stroke-miterlimit="10" stroke-linecap="round"/>
<path d="M166.357 244.232L176.566 268.784C179.793 273.38 181.743 277.095 182.923 279.953C184.199 283.025 182.923 286.358 180.202 288.287C180.058 288.383 179.937 288.478 179.817 288.597C177.168 290.978 173.171 291.169 170.667 288.597C170.113 288.025 169.776 287.621 169.776 287.621C168.067 266.45 159.928 253.996 159.928 253.996L166.381 244.256L166.357 244.232Z" fill="white" stroke="#BCBEC0" stroke-width="1.55" stroke-miterlimit="10"/>
<path d="M180.635 295.527C181.069 295.337 181.478 295.075 181.839 294.765C183.982 292.955 187.377 294.027 187.907 296.765C188.22 298.456 188.1 300.052 188.1 300.052C188.437 314.507 195.588 320.222 195.588 320.222C201.704 325.604 195.588 327.628 195.588 327.628C191.856 332.343 186.414 327.628 186.414 327.628C184.368 313.507 178.926 303.076 178.926 303.076C178.276 302.29 177.866 301.528 177.65 300.838C176.951 298.599 178.468 296.456 180.635 295.551V295.527Z" fill="white" stroke="#BCBEC0" stroke-width="1.55" stroke-miterlimit="10"/>
<path d="M118.754 205.678V216.656C116.419 223.324 107.028 226.062 101.345 227.134C96.7224 227.991 92.6772 230.706 90.1009 234.611C80.7344 248.781 75.9428 276.833 75.9428 276.833C67.7802 289.955 57.5951 326.937 57.5951 326.937C65.1798 326.485 83.0941 332.319 83.0941 332.319C91.9308 312.816 95.3259 289.288 95.3259 289.288C104.163 273.38 104.163 267.76 104.163 267.76C105.969 285.906 102.357 295.098 102.357 295.098C94.8684 309.434 90.3417 338.582 90.3417 338.582C87.8375 359.419 86.4891 408.071 86.4891 408.071C76.2799 426.217 82.8533 490.562 82.8533 490.562C87.1633 510.065 111.169 507.826 111.169 507.826C129.084 506.255 128.626 497.968 128.626 497.968C127.952 491.014 121.138 489.014 121.138 489.014C120.68 463.009 131.781 434.337 131.781 434.337C138.571 414.381 138.354 374.493 138.354 374.493C146.516 387.71 145.601 439.052 145.601 439.052C144.012 462.366 156.027 494.634 156.027 494.634C164.647 509.874 184.344 506.279 184.344 506.279C200.211 503.373 198.165 493.276 198.165 493.276C197.707 486.323 188.413 482.965 188.413 482.965C184.56 448.006 187.498 423.788 187.498 423.788C193.855 391.068 184.56 342.654 184.56 342.654C183.212 317.769 173.219 296.932 173.219 296.932C168.693 269.141 167.103 246.733 167.103 246.733C160.313 231.278 150.562 220.061 150.562 220.061L151.019 205.725H118.73L118.754 205.678Z" fill="#282728" stroke="#231F20" stroke-miterlimit="10" stroke-linecap="round"/>
<path d="M128.843 203.892V217.799C132.695 223.848 138.354 220.275 138.354 220.275L139.269 203.915H128.843V203.892Z" fill="white" stroke="#BCBEC0" stroke-miterlimit="10"/>
<path d="M137.68 227.634C135.32 227.467 133.49 227.753 132.142 228.158C130.312 228.729 129.324 230.682 129.878 232.492C131.443 237.707 130.504 245.542 130.504 245.542C129.734 248.685 134.044 250.019 134.044 250.019C140.641 250.019 140.617 246.661 140.617 246.661C138.113 241.517 139.269 233.897 139.269 233.897C141.315 228.967 137.68 227.61 137.68 227.61V227.634Z" fill="white" stroke="#BCBEC0" stroke-miterlimit="10"/>
<path d="M138.45 254.781C136.09 254.567 134.261 254.924 132.912 255.472C131.082 256.21 130.095 258.782 130.649 261.163C132.214 267.998 131.275 278.262 131.275 278.262C130.504 282.381 134.814 284.12 134.814 284.12C141.412 284.12 141.388 279.714 141.388 279.714C138.884 272.975 140.039 262.997 140.039 262.997C142.086 256.544 138.45 254.781 138.45 254.781Z" fill="white" stroke="#BCBEC0" stroke-width="1.14" stroke-miterlimit="10"/>
<path d="M107.919 233.873C105.848 232.658 103.922 232.587 102.308 233.016C100.117 233.587 97.4687 237.54 96.3611 241.731C93.2069 253.781 85.4055 270.665 85.4055 270.665C81.9141 277.285 84.7554 281.81 84.7554 281.81C90.8713 284.215 93.8329 276.833 93.8329 276.833C96.0722 264.593 103.85 248.256 103.85 248.256C110.11 238.159 107.919 233.873 107.919 233.873Z" fill="white" stroke="#BCBEC0" stroke-width="1.54" stroke-miterlimit="10"/>
<path d="M87.5244 288.311C85.4296 287.168 83.5515 286.978 82.0105 287.24C79.9157 287.573 77.6041 290.669 76.8336 294.05C74.5944 303.79 68.1895 317.245 68.1895 317.245C65.252 322.484 68.3099 326.413 68.3099 326.413C74.4258 328.818 76.7855 322.913 76.7855 322.913C78.1098 312.935 84.5387 299.956 84.5387 299.956C89.9082 292.026 87.5004 288.335 87.5004 288.335L87.5244 288.311Z" fill="white" stroke="#BCBEC0" stroke-width="1.38" stroke-miterlimit="10"/>
<path d="M113.168 360.205C109.845 359.633 107.269 360.253 105.318 361.277C102.694 362.658 101.081 367.754 101.634 372.541C103.248 386.329 101.057 406.856 101.057 406.856C99.6118 415.048 105.559 418.834 105.559 418.834C114.853 419.215 115.215 410.404 115.215 410.404C112.277 396.735 114.733 376.803 114.733 376.803C118.152 363.991 113.192 360.229 113.192 360.229L113.168 360.205Z" fill="white" stroke="#BCBEC0" stroke-width="1.93" stroke-miterlimit="10"/>
<path d="M106.835 428.122C103.513 427.55 100.936 428.17 98.9858 429.194C96.3613 430.575 94.7481 435.671 95.3019 440.458C96.9151 454.246 94.724 474.773 94.724 474.773C93.2793 482.965 99.2266 486.751 99.2266 486.751C108.521 487.132 108.882 478.321 108.882 478.321C105.944 464.652 108.4 444.72 108.4 444.72C111.82 431.908 106.859 428.146 106.859 428.146L106.835 428.122Z" fill="white" stroke="#BCBEC0" stroke-width="1.93" stroke-miterlimit="10"/>
<path d="M170.643 426.05C167.296 425.717 164.744 426.526 162.89 427.693C160.362 429.265 159.134 434.456 160.049 439.195C162.673 452.841 161.999 473.44 161.999 473.44C161.156 481.703 167.368 485.061 167.368 485.061C176.663 484.775 176.374 475.964 176.374 475.964C172.425 462.533 173.412 442.482 173.412 442.482C175.892 429.456 170.667 426.074 170.667 426.074L170.643 426.05Z" fill="white" stroke="#BCBEC0" stroke-width="1.93" stroke-miterlimit="10"/>
<path d="M170.33 355.918C167.007 355.323 164.431 355.99 162.48 357.061C159.856 358.538 158.218 363.92 158.772 368.968C160.361 383.542 158.098 405.213 158.098 405.213C156.629 413.881 162.577 417.858 162.577 417.858C171.871 418.239 172.232 408.928 172.232 408.928C169.319 394.473 171.823 373.421 171.823 373.421C175.29 359.871 170.33 355.918 170.33 355.918Z" fill="white" stroke="#BCBEC0" stroke-width="1.98" stroke-miterlimit="10"/>
<path d="M140.256 288.836C137.896 288.621 136.066 288.978 134.718 289.526C132.888 290.264 131.901 292.836 132.455 295.218C134.02 302.052 133.081 312.316 133.081 312.316C132.31 316.436 136.62 318.174 136.62 318.174C143.218 318.174 143.194 313.768 143.194 313.768C140.689 307.029 141.845 297.051 141.845 297.051C143.892 290.598 140.256 288.836 140.256 288.836Z" fill="white" stroke="#BCBEC0" stroke-width="1.14" stroke-miterlimit="10"/>
<path d="M127.47 253.21C127.422 250.995 125.183 249.519 123.064 250.257C110.88 254.401 108.304 262.378 108.304 262.378C107.1 264.617 109.821 265.974 109.821 265.974C115.817 261.688 120.921 259.497 123.955 258.449C126.026 257.734 127.495 255.782 127.495 253.615C127.495 253.496 127.495 253.353 127.495 253.234L127.47 253.21Z" fill="white" stroke="#BCBEC0" stroke-miterlimit="10"/>
<path d="M127.47 266.879C127.422 264.664 125.183 263.188 123.064 263.926C110.88 268.07 108.304 276.047 108.304 276.047C107.1 278.286 109.821 279.643 109.821 279.643C115.817 275.357 120.921 273.166 123.955 272.118C126.026 271.403 127.495 269.451 127.495 267.284C127.495 267.165 127.495 267.022 127.495 266.903L127.47 266.879Z" fill="white" stroke="#BCBEC0" stroke-miterlimit="10"/>
<path d="M125.665 282.334C125.616 280.12 123.377 278.643 121.258 279.381C109.075 283.525 106.498 291.503 106.498 291.503C105.294 293.741 108.015 295.099 108.015 295.099C114.011 290.812 119.115 288.621 122.149 287.573C124.22 286.859 125.689 284.906 125.689 282.739C125.689 282.62 125.689 282.477 125.689 282.358L125.665 282.334Z" fill="white" stroke="#BCBEC0" stroke-miterlimit="10"/>
<path d="M145.168 253.21C145.216 250.995 147.456 249.519 149.574 250.257C161.758 254.401 164.334 262.378 164.334 262.378C165.538 264.617 162.818 265.974 162.818 265.974C156.822 261.688 151.717 259.497 148.684 258.449C146.613 257.734 145.144 255.782 145.144 253.615C145.144 253.496 145.144 253.353 145.144 253.234L145.168 253.21Z" fill="white" stroke="#BCBEC0" stroke-miterlimit="10"/>
<path d="M145.168 266.879C145.216 264.664 147.456 263.188 149.574 263.926C161.758 268.07 164.334 276.047 164.334 276.047C165.538 278.286 162.818 279.643 162.818 279.643C156.822 275.357 151.717 273.166 148.684 272.118C146.613 271.403 145.144 269.451 145.144 267.284C145.144 267.165 145.144 267.022 145.144 266.903L145.168 266.879Z" fill="white" stroke="#BCBEC0" stroke-miterlimit="10"/>
<path d="M146.998 282.334C147.046 280.12 149.286 278.643 151.404 279.381C163.588 283.525 166.164 291.503 166.164 291.503C167.368 293.741 164.648 295.099 164.648 295.099C158.652 290.812 153.547 288.621 150.514 287.573C148.443 286.859 146.974 284.906 146.974 282.739C146.974 282.62 146.974 282.477 146.974 282.358L146.998 282.334Z" fill="white" stroke="#BCBEC0" stroke-miterlimit="10"/>
<path d="M176.663 336.248C174.183 332.224 175.001 328.27 176.037 325.746C177.602 321.912 175.218 317.554 171.101 316.816C167.898 316.244 164.672 316.816 164.672 316.816C152.873 323.77 137.776 322.865 137.776 322.865C127.037 322.412 117.743 318.602 117.743 318.602C111.723 316.768 107.702 318.626 105.222 320.888C103.127 322.817 102.116 325.579 102.068 328.39C101.923 334.986 98.2635 341.011 98.2635 341.011C96.1205 344.345 98.9377 348.393 100.984 350.655C102.092 351.87 103.537 352.775 105.102 353.299C117.141 357.228 121.355 350.87 121.355 350.87C124.437 347.464 127.037 345.131 129.18 343.535C132.623 340.939 137.126 340.106 141.292 341.273C147.263 342.94 151.019 345.321 153.042 346.917C154.799 348.298 156.846 349.346 159.085 349.703C162.505 350.251 165.827 350.084 168.259 349.774C170.739 349.465 173.027 348.155 174.447 346.131C179.504 338.939 176.663 336.224 176.663 336.224V336.248ZM122.703 333.891C120.151 336.486 116.346 340.058 112.951 342.035C110.495 343.464 107.341 341.82 107.245 338.987C107.148 336.486 107.63 333.009 109.821 328.699C109.821 328.699 115.913 326.913 121.379 328.509C123.714 329.175 124.413 332.152 122.703 333.891ZM169.054 339.01C168.933 341.82 165.779 343.487 163.347 342.059C159.952 340.082 156.148 336.51 153.596 333.914C151.886 332.176 152.584 329.199 154.92 328.532C160.386 326.961 166.477 328.723 166.477 328.723C168.669 333.057 169.174 336.534 169.054 339.01Z" fill="white" stroke="#BCBEC0" stroke-miterlimit="10"/>
<path d="M118.249 418.12C117.069 420.692 116.419 422.716 116.106 423.716C115.961 424.169 115.961 424.669 116.082 425.121C117.31 430.218 119.019 433.028 120.367 434.576C121.403 435.742 123.233 435.861 124.364 434.79C130.119 429.337 130.288 421.264 130.24 419.287C130.24 419.001 130.191 418.716 130.095 418.43C130.023 418.215 129.951 418.025 129.854 417.834C127.687 412.976 120.464 413.286 118.249 418.12Z" fill="white" stroke="#BCBEC0" stroke-width="1.93" stroke-miterlimit="10"/>
<path d="M176.542 415.715C175.603 417.763 175.073 419.406 174.833 420.215C174.736 420.573 174.712 420.977 174.809 421.335C175.796 425.431 177.168 427.693 178.252 428.931C179.095 429.884 180.563 429.955 181.478 429.098C186.101 424.716 188.557 419.453 188.509 417.882C188.509 417.644 186.149 416.191 186.077 415.953C186.029 415.786 185.957 415.619 185.885 415.476C184.151 411.571 178.324 411.833 176.566 415.715H176.542Z" fill="white" stroke="#BCBEC0" stroke-width="1.55" stroke-miterlimit="10"/>
<path d="M132.695 8.00016C49.7455 8.45262 30.7236 75.2502 30.7236 75.2502C21.8869 100.683 24.6559 119.044 28.1954 129.522C29.9291 134.665 32.9148 139.333 36.9359 143C47.9156 153.026 51.5755 163.552 51.5755 163.552C57.9322 188.651 68.7915 197.177 68.7915 197.177C84.6592 201.654 95.976 203.011 95.976 203.011C109.123 211.536 120.006 208.393 120.006 208.393C129.975 216.013 144.036 208.964 144.036 208.964C160.795 218.252 171.221 207.94 171.221 207.94C187.089 215.561 195.636 205.702 195.636 205.702C213.815 208.845 219.257 191.795 219.257 191.795C255.977 122.759 221.569 55.5324 221.569 55.5324C196.599 7.5477 132.695 8.00016 132.695 8.00016Z" fill="white" stroke="#BCBEC0" stroke-miterlimit="10"/>
<path d="M140.184 159.503C146.567 159.503 151.741 150.622 151.741 139.666C151.741 128.71 146.567 119.829 140.184 119.829C133.801 119.829 128.626 128.71 128.626 139.666C128.626 150.622 133.801 159.503 140.184 159.503Z" fill="#231F20"/>
<path d="M215.645 159.503C222.028 159.503 227.203 150.622 227.203 139.666C227.203 128.71 222.028 119.829 215.645 119.829C209.262 119.829 204.088 128.71 204.088 139.666C204.088 150.622 209.262 159.503 215.645 159.503Z" fill="#231F20"/>
<path d="M181.213 152.311C172.81 159.979 173.845 166.576 173.845 166.576C177.915 171.958 182.345 166.576 182.345 166.576C187.787 164.551 190.508 168.957 190.508 168.957C198.333 169.933 194.938 161.86 194.938 161.86C193.951 158.288 191.784 155.121 189.809 152.787C187.618 150.216 183.741 150.025 181.237 152.287L181.213 152.311Z" fill="#231F20"/>
<path d="M114.853 172.6C121.516 172.6 126.917 169.668 126.917 166.052C126.917 162.435 121.516 159.503 114.853 159.503C108.191 159.503 102.79 162.435 102.79 166.052C102.79 169.668 108.191 172.6 114.853 172.6Z" fill="#DD90AF"/>
<path d="M221.593 172.6C228.255 172.6 233.656 169.668 233.656 166.052C233.656 162.435 228.255 159.503 221.593 159.503C214.93 159.503 209.529 162.435 209.529 166.052C209.529 169.668 214.93 172.6 221.593 172.6Z" fill="#DD90AF"/>
<path d="M96.8909 177.435L95.9759 202.987" stroke="#BCBEC0" stroke-miterlimit="10"/>
<path d="M120.006 208.369V187.294" stroke="#BCBEC0" stroke-miterlimit="10"/>
<path d="M144.036 208.941V192.676" stroke="#BCBEC0" stroke-miterlimit="10"/>
<path d="M171.221 207.917V190.199" stroke="#BCBEC0" stroke-miterlimit="10"/>
<path d="M195.636 205.678V187.294" stroke="#BCBEC0" stroke-miterlimit="10"/>
<path d="M43.3166 149.763C63.8554 164.933 77.0263 161.194 79.7471 176.768L43.3166 149.763Z" fill="white"/>
<path d="M43.3166 149.763C63.8554 164.933 77.0263 161.194 79.7471 176.768" stroke="#BCBEC0" stroke-miterlimit="10" stroke-linecap="round"/>
<path d="M51.3349 345.537C47.0248 349.799 51.1904 358.086 51.1904 358.086C55.4041 362.802 57.5471 359.992 57.5471 359.992C57.836 355.253 58.0768 351.919 58.2453 349.633C58.4139 347.346 56.6321 345.537 54.3928 345.537H51.3349Z" fill="white" stroke="#BCBEC0" stroke-miterlimit="10"/>
<path d="M59.5216 347.441C55.2115 351.704 59.3771 359.991 59.3771 359.991C63.5908 364.706 65.7338 361.896 65.7338 361.896C66.0227 357.157 66.2635 353.823 66.4321 351.537C66.6006 349.251 64.8188 347.441 62.5795 347.441H59.5216Z" fill="white" stroke="#BCBEC0" stroke-miterlimit="10"/>
<path d="M67.9008 346.417C63.5907 350.68 67.7563 358.967 67.7563 358.967C71.97 363.682 74.113 360.872 74.113 360.872C74.4019 356.133 74.6427 352.799 74.8113 350.513C74.9798 348.227 73.198 346.417 70.9587 346.417H67.9008Z" fill="white" stroke="#BCBEC0" stroke-miterlimit="10"/>
<path d="M77.5803 343.631C73.2703 347.894 77.4358 356.181 77.4358 356.181C81.6495 360.896 83.7925 358.086 83.7925 358.086C84.0814 353.347 84.3222 350.013 84.4908 347.727C84.6593 345.441 82.8775 343.631 80.6382 343.631H77.5803Z" fill="white" stroke="#BCBEC0" stroke-miterlimit="10"/>
<path d="M83.6721 335.606C80.1807 330.224 65.1077 329.652 58.7269 329.652C56.8969 329.652 55.1392 330.581 54.2483 332.153C50.2513 339.083 51.3348 345.536 51.3348 345.536C63.5667 356.062 83.6721 343.964 83.6721 343.964C85.5502 338.13 83.6721 335.606 83.6721 335.606Z" fill="white" stroke="#BCBEC0" stroke-miterlimit="10"/>
</svg>
