<svg width="358" height="513" viewBox="0 0 358 513" fill="none" xmlns="http://www.w3.org/2000/svg">
<path d="M223.085 277.507C223.329 276.651 223.597 275.639 223.743 274.472C224.279 270.683 222.793 266.973 220.331 265.079C218.65 263.781 216.359 261.083 213.971 255.686C227.057 249.926 249.624 237.238 258.665 215.286C258.665 215.286 242.776 224.16 226.643 224.575C234.636 221.358 243.604 216.558 252.962 209.293C252.962 209.293 265.976 193.673 263.393 178.182C267.804 172.292 274.798 160.019 275.431 141.052C275.431 141.052 272.629 142.09 268.925 146.371C271.532 135.032 273.238 123.227 273.238 123.227C279.258 130.102 282.011 129.921 282.011 129.921C274.262 115.546 273.921 100.16 273.921 100.16C273.921 88.0684 269.802 81.6595 269.802 81.6595C276.333 82.0227 279.599 77.8193 279.599 77.8193C272.385 75.6138 261.711 68.66 261.711 68.66C272.556 67.5702 273.75 64.0934 273.75 64.0934C260.152 60.4348 252.938 48.7068 252.938 48.7068C242.971 37.1604 234.539 35.3441 234.539 35.3441C242.459 29.1168 240.558 23.7977 240.558 23.7977C232.638 30.025 208.731 27.4562 208.731 27.4562C212.167 21.4106 220.429 20.3208 220.429 20.3208C200.811 14.2751 174.272 24.602 174.272 24.602C135.28 13.6005 120.366 22.8895 120.366 22.8895C128.847 22.8895 131.844 26.0551 131.844 26.0551C93.9978 34.8511 78.4011 48.0322 78.4011 48.0322C88.2709 47.5392 95.1432 51.9502 95.1432 51.9502C67.3859 72.2148 61.196 99.8224 61.196 99.8224C69.4574 93.2318 73.3566 90.0663 73.3566 90.0663C57.9792 124.991 59.3683 148.681 59.3683 148.681C63.2674 138.924 69.4574 133.294 69.4574 133.294C64.4128 149.174 71.0658 160.642 71.0658 160.642C71.0902 164.327 72.0406 170.165 76.086 178.26C76.086 178.26 80.9843 196.086 97.7508 200.886C97.7508 200.886 102.137 202.572 102.381 197.487C102.381 197.487 106.329 203.325 114.883 209.734C104.964 212.821 93.9978 214.015 83.2264 210.72C83.2264 210.72 98.1163 239.677 132.965 254.544C132.161 255.271 131.43 255.816 130.748 256.231C128.847 257.372 127.458 259.267 126.922 261.394C40.6278 377.559 40.5791 430.257 40.5791 430.257C74.4532 414.741 76.1835 426.962 127.58 446.189C125.752 462.847 124.753 480.075 124.753 480.075C126.458 481.606 128.213 482.904 129.992 483.993C128.262 494.554 132.38 503.713 132.38 503.713C144.59 513.781 168.667 505.374 168.667 505.374C172.566 497.979 163.988 489.468 161.137 486.925C164.719 485.862 166.937 484.746 166.937 484.746C166.376 475.95 166.62 466.946 167.229 458.695C172.688 459.863 178.196 460.667 183.703 461.16C184.118 471.487 184.581 479.115 184.581 479.115C186.944 480.153 189.162 480.984 191.307 481.658C190.99 491.388 194.109 499.121 194.109 499.121C206.319 510.356 230.396 500.963 230.396 500.963C235.051 491.155 221.964 479.531 221.964 479.531L220.794 479.427C224.961 476.599 226.789 473.485 226.789 473.485C225.766 469.256 224.937 464.559 224.255 459.629C283.035 450.781 333.212 417.076 333.212 417.076C287.909 404.829 244.238 323.07 223.085 277.585V277.507ZM116.028 160.642C116.028 160.642 115.711 161.836 115.37 163.885C111.422 166.273 111.398 166.299 111.398 166.299C111.349 165.364 111.447 164.327 111.642 163.237C112.495 162.64 113.908 161.732 116.053 160.616L116.028 160.642ZM111.666 171.696C111.666 171.903 111.666 171.877 111.666 171.696ZM111.495 168.686C111.495 168.426 111.471 168.115 111.447 167.803C111.447 168.089 111.471 168.374 111.495 168.686ZM111.422 167.207C111.422 166.973 111.422 166.766 111.374 166.506C111.374 166.662 111.374 166.921 111.422 167.207ZM132.527 124.42C132.527 124.42 131.259 126.21 129.334 129.039C126.58 130.414 124.46 132.671 124.46 132.671C125.094 130.699 126.727 128.442 128.92 126.159C129.968 125.614 131.162 125.017 132.527 124.42ZM142.689 107.295C145.101 106.076 147.977 105.219 151.048 104.623C149.927 105.297 148.513 106.153 146.929 107.165C144.419 107.217 142.689 107.321 142.689 107.321V107.295ZM176.417 97.1758C177.635 97.0201 179 97.0201 180.462 97.1498C181.023 97.9282 181.607 98.7845 182.29 99.8224C182.29 99.8224 181.51 99.7445 180.145 99.6407C178.342 97.6947 176.417 97.1758 176.417 97.1758ZM260.566 115.676C259.225 115.494 258.226 115.365 257.446 115.287C256.935 114.534 256.374 113.782 255.765 113.107C255.765 113.107 256.715 112.692 258.007 112.459C259.64 114.275 260.566 115.676 260.566 115.676ZM261.492 157.01C261.614 159.578 261.711 161.706 261.784 163.263C261.687 163.73 261.614 164.197 261.516 164.664C261.419 162.432 261.394 159.916 261.516 157.01H261.492ZM249.404 100.575C248.917 100.912 248.405 101.327 247.918 101.742C246.894 101.275 245.798 100.86 244.652 100.471C248.064 99.978 249.404 100.575 249.404 100.575ZM103.161 181.322C103.795 182.541 104.258 183.605 104.574 184.41C104.526 184.487 104.477 184.591 104.404 184.669C104.404 184.669 104.014 183.346 103.161 181.322ZM108.668 179.402L108.815 179.116C109.765 181.633 113.616 186.33 116.126 189.21C114.103 187.549 110.447 184.098 108.693 179.402H108.668Z" stroke="#F1F2F2" stroke-width="7" stroke-linecap="round" stroke-linejoin="round"/>
<path d="M53.3733 49.6667C53.3733 49.6667 60.8305 42.5313 71.4557 43.4913C62.2439 32.9309 70.3103 31.5817 78.328 27.5599C78.328 27.5599 66.9229 27.1447 65.3389 4C65.3389 4 60.2943 26.3144 52.301 27.3263C52.301 27.3263 58.759 37.4976 53.3977 49.6667H53.3733Z" stroke="#F1F2F2" stroke-width="7" stroke-linecap="round" stroke-linejoin="round"/>
<path d="M36.2901 88.0424C37.7766 78.7274 36.8506 70.087 48.8649 76.7295C45.7699 67.8297 48.3775 59.7082 49.3279 57.2952C52.0574 59.7861 56.2002 62.9516 60.27 63.6262L56.1759 57.8401L62.6095 60.0974C62.6095 60.0974 54.8599 50.0041 50.2784 49.07L44.917 44.9185L47.354 51.0679H41.6271L46.233 54.2075C46.233 54.2075 47.3052 55.4529 49.0355 57.0357C39.6044 65.1052 29.1253 61.3948 29.1253 61.3948C30.3438 69.8535 11.5059 81.0107 11.5059 81.0107C32.9027 76.47 36.2901 88.0683 36.2901 88.0683V88.0424Z" stroke="#F1F2F2" stroke-width="7" stroke-linecap="round" stroke-linejoin="round"/>
<path d="M45.575 202.39C55.6641 192.764 56.7851 201.353 60.4162 209.993C60.4162 209.993 60.9767 197.876 82.7634 196.552C82.7634 196.552 61.9028 190.792 61.0742 182.256C61.0742 182.256 51.3994 188.95 40.0674 183.034C40.0674 183.034 46.6472 191.078 45.575 202.39Z" stroke="#F1F2F2" stroke-width="7" stroke-linecap="round" stroke-linejoin="round"/>
<path d="M44.6733 174.16L38.8733 176.651L38.9708 170.554L35.9489 175.406C35.9489 175.406 34.7548 176.547 33.2439 178.338C25.8354 168.166 29.4909 157.061 29.4909 157.061C21.522 158.229 11.3841 137.964 11.3841 137.964C15.2833 160.797 4.34122 164.248 4.34122 164.248C13.0656 165.987 21.1808 165.131 14.7471 177.819C23.1547 174.679 30.7338 177.585 33.0002 178.649C30.6119 181.503 27.5657 185.888 26.859 190.195L32.3666 185.94L30.1245 192.764C30.1245 192.764 39.7263 184.669 40.701 179.817L44.6977 174.186L44.6733 174.16Z" stroke="#F1F2F2" stroke-width="7" stroke-linecap="round" stroke-linejoin="round"/>
<path d="M353.976 102.365C353.976 102.365 342.79 100.523 343.813 77.4561C343.813 77.4561 336.307 98.8364 328.314 98.8104C328.314 98.8104 333.529 109.682 326.876 120.995C326.876 120.995 335.04 114.898 345.422 117.207C337.526 105.609 345.617 105.297 354 102.365H353.976Z" stroke="#F1F2F2" stroke-width="7" stroke-linecap="round" stroke-linejoin="round"/>
<path d="M323.903 119.983L319.102 115.209L320.808 121.592L315.154 120.865L319.346 124.55C319.346 124.55 320.272 125.925 321.783 127.715C311.572 134.462 301.629 129.454 301.629 129.454C301.873 137.964 282.011 146.553 282.011 146.553C303.627 144.814 305.675 156.672 305.675 156.672C308.185 147.669 308.233 139.028 319.37 147.124C317.323 137.939 320.808 130.284 322.027 128.001C324.439 130.803 328.192 134.462 332.116 135.655L328.728 129.402L334.845 132.464C334.845 132.464 328.314 121.514 323.928 120.009L323.903 119.983Z" stroke="#F1F2F2" stroke-width="7" stroke-linecap="round" stroke-linejoin="round"/>
<path d="M314.764 56.1272C318.006 42.1418 323.489 48.5767 331.044 53.5325C331.044 53.5325 325.122 43.1537 342.424 29.0386C342.424 29.0386 322.124 36.7708 316.958 30.2062C316.958 30.2062 312.498 41.545 299.996 43.4132C299.996 43.4132 309.671 46.1376 314.764 56.1272Z" stroke="#F1F2F2" stroke-width="7" stroke-linecap="round" stroke-linejoin="round"/>
<path d="M260.493 49.2774C268.632 45.4891 274.895 39.9365 276.26 54.2851C281.548 46.6567 289.347 44.5291 291.784 44.0361C291.321 47.8244 291.101 53.2732 292.807 57.2431L295.122 50.419L296.877 57.3988C296.877 57.3988 300.557 44.9442 298.778 40.3776L299.119 33.3459L295.634 38.8726L292.49 33.7611L292.539 39.5732C292.539 39.5732 292.149 41.2338 291.857 43.6209C280.354 39.651 277.527 28.2603 277.527 28.2603C271.532 33.9946 252.451 23.3044 252.451 23.3044C267.731 39.8586 260.493 49.2514 260.493 49.2514V49.2774Z" stroke="#F1F2F2" stroke-width="7" stroke-linecap="round" stroke-linejoin="round"/>
<path d="M130.382 256.568C40.1892 376.391 40.1892 430.595 40.1892 430.595C79.644 412.536 75.4037 432.048 156.872 456.49C238.341 480.932 332.847 417.414 332.847 417.414C269.534 400.315 209.462 247.487 209.462 247.487L130.382 256.568Z" fill="#BE1E2D" stroke="#911928" stroke-width="0.77" stroke-miterlimit="10"/>
<path d="M141.592 258.281C100.285 245.022 82.8609 211.057 82.8609 211.057C115.663 221.073 150.512 189.573 150.512 189.573L207.513 220.087C226.887 233.268 258.324 215.702 258.324 215.702C245.262 247.461 203.833 259.837 203.833 259.837L141.592 258.255V258.281Z" fill="#BE1E2D" stroke="#911928" stroke-width="0.77" stroke-miterlimit="10"/>
<path d="M235.733 347.72C241.679 351.767 245.359 364.481 245.359 364.481L247.504 378.337C247.406 383.449 241.606 381.139 241.606 381.139V387.419C240.266 393.205 235.709 388.898 235.709 388.898C233.637 394.917 227.959 390.065 227.959 390.065C222.378 393.698 221.16 387.834 221.16 387.834L221.672 373.303C220.039 379.583 217.553 381.217 217.553 381.217C215.311 382.696 214.019 380.569 214.019 380.569C213.751 371.409 215.75 364.144 215.75 364.144L217.48 354.155L235.709 347.72H235.733Z" fill="#C4BDC9" stroke="#978BA0" stroke-linejoin="round"/>
<path d="M239.169 357.865C241.655 361.238 241.63 385.758 241.63 385.758" stroke="#978BA0" stroke-linecap="round" stroke-linejoin="round"/>
<path d="M234.051 363.755C236.537 367.128 235.562 388.898 235.562 388.898" stroke="#978BA0" stroke-linecap="round" stroke-linejoin="round"/>
<path d="M227.033 367.388C229.519 370.761 228.105 389.962 228.105 389.962" stroke="#978BA0" stroke-linecap="round" stroke-linejoin="round"/>
<path d="M107.353 342.089C101.406 346.137 97.7265 358.851 97.7265 358.851L95.5819 372.707C95.6794 377.818 101.479 375.509 101.479 375.509V381.788C102.82 387.574 107.377 383.267 107.377 383.267C109.448 389.287 115.127 384.435 115.127 384.435C120.707 388.067 121.926 382.203 121.926 382.203L121.414 367.673C123.047 373.952 125.533 375.587 125.533 375.587C127.775 377.066 129.066 374.938 129.066 374.938C129.334 365.779 127.336 358.514 127.336 358.514L125.606 348.524L107.377 342.089H107.353Z" fill="#C4BDC9" stroke="#978BA0" stroke-linejoin="round"/>
<path d="M103.916 352.234C101.431 355.607 101.455 380.127 101.455 380.127" stroke="#978BA0" stroke-linecap="round" stroke-linejoin="round"/>
<path d="M109.01 358.125C106.524 361.498 107.499 383.267 107.499 383.267" stroke="#978BA0" stroke-linecap="round" stroke-linejoin="round"/>
<path d="M116.053 361.757C113.567 365.13 114.98 384.331 114.98 384.331" stroke="#978BA0" stroke-linecap="round" stroke-linejoin="round"/>
<path d="M104.574 330.751C98.7987 340.117 86.9306 346.163 86.9306 346.163C87.9541 355.686 95.7525 356.594 95.7525 356.594C106.719 354.933 110.326 361.16 110.326 361.16C115.833 366.661 121.853 360.071 121.853 360.071C129.432 354.207 133.891 357.502 133.891 357.502C141.3 359.707 141.592 355.115 141.592 355.115C136.304 351.093 132.868 337.159 132.868 337.159C127.19 339.91 104.574 330.725 104.574 330.725V330.751Z" fill="#F1F2F2" stroke="#A7A9AC" stroke-width="0.89" stroke-miterlimit="10"/>
<path d="M240.461 337.185C246.236 346.552 258.104 352.598 258.104 352.598C257.081 362.12 249.283 363.028 249.283 363.028C238.316 361.368 234.709 367.595 234.709 367.595C229.202 373.096 223.182 366.505 223.182 366.505C215.603 360.641 211.144 363.936 211.144 363.936C203.735 366.142 203.443 361.549 203.443 361.549C208.731 357.528 215.092 340.169 215.092 340.169C220.77 342.919 240.461 337.159 240.461 337.159V337.185Z" fill="#F1F2F2" stroke="#A7A9AC" stroke-width="0.89" stroke-miterlimit="10"/>
<path d="M127.019 276.028C120.488 276.651 117.052 298.369 117.052 298.369C111.422 314.845 108.449 316.687 108.449 316.687C100.529 322.681 105.354 332.93 105.354 332.93C110.618 339.65 120.951 337.211 120.951 337.211C126.678 341.596 140.569 335.136 140.569 335.136C147.222 326.599 143.444 315.909 143.444 315.909C143.81 299.458 149.049 290.87 149.049 290.87C147.319 285.81 142.738 283.735 142.738 283.735L127.019 276.054V276.028Z" fill="#F1F2F2" stroke="#A7A9AC" stroke-width="1.02" stroke-miterlimit="10"/>
<path d="M221.964 287.367C227.667 287.912 230.664 306.879 230.664 306.879C235.562 321.254 238.17 322.863 238.17 322.863C245.067 328.078 240.875 337.03 240.875 337.03C236.269 342.894 227.252 340.766 227.252 340.766C222.256 344.606 210.145 338.95 210.145 338.95C204.345 331.503 207.635 322.188 207.635 322.188C207.318 307.839 202.736 300.341 202.736 300.341C204.247 295.93 208.244 294.113 208.244 294.113L221.964 287.393V287.367Z" fill="#F1F2F2" stroke="#A7A9AC" stroke-width="0.89" stroke-miterlimit="10"/>
<path d="M130.626 267.726L127.019 276.029C130.967 288.12 147.88 287.938 147.88 287.938L149.683 277.819C143.688 278.208 130.626 267.7 130.626 267.7V267.726Z" fill="#393536" stroke="#231F20" stroke-width="0.99" stroke-miterlimit="10"/>
<path d="M217.529 280.751L221.135 289.054C217.188 301.145 200.275 300.963 200.275 300.963L198.471 290.844C204.466 291.233 217.529 280.725 217.529 280.725V280.751Z" fill="#393536" stroke="#231F20" stroke-width="0.99" stroke-miterlimit="10"/>
<path d="M153.265 238.172C145.418 233.164 139.74 244.166 139.74 244.166C136.304 251.794 132.795 255.141 130.382 256.594C127.506 258.333 125.776 261.706 126.41 265.157C126.946 268.089 128.213 270.087 128.213 270.087C134.013 281.426 153.265 279.713 153.265 279.713C161.405 265.987 153.265 238.198 153.265 238.198V238.172Z" fill="#F1F2F2" stroke="#A7A9AC" stroke-width="1.02" stroke-miterlimit="10"/>
<path d="M200.299 245.255C207.05 239.755 211.924 251.82 211.924 251.82C214.872 260.201 217.894 263.859 219.966 265.468C222.451 267.362 223.914 271.073 223.378 274.861C222.915 278.078 221.818 280.284 221.818 280.284C218.406 290.455 200.275 290.844 200.275 290.844C193.281 275.769 200.275 245.255 200.275 245.255H200.299Z" fill="#F1F2F2" stroke="#A7A9AC" stroke-width="0.99" stroke-miterlimit="10"/>
<path d="M158.846 233.787L153.265 238.172C158.651 249.173 150.292 272.24 150.292 272.24L147.88 294.71C180.901 315.234 207.513 295.073 207.513 295.073C208.195 270.891 200.129 245.255 200.129 245.255C194.426 244.165 188.577 236.719 188.577 236.719L158.822 233.787H158.846Z" fill="#393536" stroke="#231F20" stroke-width="1.02" stroke-miterlimit="10"/>
<path d="M174.175 252.961C169.179 260.953 161.77 280.206 161.77 280.206C164.865 284.876 168.472 284.669 172.956 280.751C177.44 276.833 181.144 271.384 186.457 280.543C191.77 289.702 193.744 274.809 195.742 275.328C197.74 275.847 201.445 277.663 201.445 277.663L183.46 251.716L174.175 252.961Z" fill="#D1D3D4" stroke="#A7A9AC" stroke-width="1.19" stroke-miterlimit="10"/>
<path d="M173.736 243.594C169.423 250.47 163.062 267.05 163.062 267.05C165.718 271.072 168.813 270.89 172.688 267.517C176.563 264.144 179.731 259.448 184.288 267.336C188.845 275.224 190.576 262.38 192.282 262.847C193.987 263.314 197.18 264.871 197.18 264.871L181.705 242.556L173.712 243.646L173.736 243.594Z" fill="#D1D3D4" stroke="#A7A9AC" stroke-width="1.02" stroke-miterlimit="10"/>
<path d="M147.88 294.71C146.783 311.186 143.42 315.909 143.42 315.909C139.57 323.485 136.085 336.588 136.085 336.588C191.477 371.383 215.945 337.393 215.945 337.393C212.216 325.613 208.268 294.71 208.268 294.71C175.125 314.845 147.88 294.71 147.88 294.71Z" fill="#BE1E2D" stroke="#911928" stroke-width="0.99" stroke-miterlimit="10"/>
<path d="M176.027 317.543C177.763 317.543 179.171 315.22 179.171 312.354C179.171 309.488 177.763 307.165 176.027 307.165C174.291 307.165 172.883 309.488 172.883 312.354C172.883 315.22 174.291 317.543 176.027 317.543Z" fill="#D6AB32" stroke="#B7921C" stroke-width="0.77" stroke-miterlimit="10"/>
<path d="M194.061 316.687C195.797 316.687 197.204 314.364 197.204 311.498C197.204 308.631 195.797 306.308 194.061 306.308C192.324 306.308 190.917 308.631 190.917 311.498C190.917 314.364 192.324 316.687 194.061 316.687Z" fill="#D6AB32" stroke="#B7921C" stroke-width="0.77" stroke-miterlimit="10"/>
<path d="M175.442 337.211C177.178 337.211 178.586 334.887 178.586 332.021C178.586 329.155 177.178 326.832 175.442 326.832C173.706 326.832 172.298 329.155 172.298 332.021C172.298 334.887 173.706 337.211 175.442 337.211Z" fill="#D6AB32" stroke="#B7921C" stroke-width="0.77" stroke-miterlimit="10"/>
<path d="M195.328 337.211C197.064 337.211 198.471 334.887 198.471 332.021C198.471 329.155 197.064 326.832 195.328 326.832C193.592 326.832 192.184 329.155 192.184 332.021C192.184 334.887 193.592 337.211 195.328 337.211Z" fill="#D6AB32" stroke="#B7921C" stroke-width="0.77" stroke-miterlimit="10"/>
<path d="M158.846 222.318V233.787C175.856 247.383 188.602 236.719 188.602 236.719V223.927L158.846 222.318Z" fill="#F1F2F2" stroke="#A7A9AC" stroke-width="1.02" stroke-miterlimit="10"/>
<path d="M179.146 250.989C181.771 250.989 183.898 247.202 183.898 242.531C183.898 237.859 181.771 234.072 179.146 234.072C176.522 234.072 174.394 237.859 174.394 242.531C174.394 247.202 176.522 250.989 179.146 250.989Z" fill="#BE1E2D" stroke="#B7921C" stroke-width="1.02" stroke-miterlimit="10"/>
<path d="M129.602 484.33C127.872 494.891 131.991 504.05 131.991 504.05C144.2 514.117 168.277 505.71 168.277 505.71C172.932 496.914 159.845 486.484 159.845 486.484L129.578 484.356L129.602 484.33Z" fill="#393536" stroke="#231F20" stroke-width="0.99" stroke-miterlimit="10"/>
<path d="M191.355 477.48C189.625 489.234 193.744 499.432 193.744 499.432C205.953 510.667 230.03 501.274 230.03 501.274C234.685 491.466 221.598 479.842 221.598 479.842L191.331 477.48H191.355Z" fill="#393536" stroke="#231F20" stroke-width="1.05" stroke-miterlimit="10"/>
<path d="M136.085 336.588C131.942 351.482 132.405 411.316 132.405 411.316C132.185 417.673 130.114 426.209 130.114 426.209C126.434 444.528 124.387 480.413 124.387 480.413C142.738 497.019 166.596 485.057 166.596 485.057C164.768 456.723 171.421 426.209 171.421 426.209C170.495 400.314 177.757 365.649 177.757 365.649C182.899 398.861 183.362 418.166 183.362 418.166C181.754 439.157 184.288 479.453 184.288 479.453C215.262 493.127 226.497 473.848 226.497 473.848C219.381 444.554 221.209 392.764 221.209 392.764C222.135 352.701 216.018 337.393 216.018 337.393C184.313 358.825 136.158 336.588 136.158 336.588H136.085Z" fill="#393536" stroke="#231F20" stroke-width="0.89" stroke-miterlimit="10"/>
<path d="M263.417 154.415C269.29 143.569 275.066 141.467 275.066 141.467C274.14 169.308 259.469 182.749 259.469 182.749C258.543 174.679 263.417 154.415 263.417 154.415Z" fill="#CDC7D1" stroke="#978BA0" stroke-linecap="round" stroke-linejoin="round"/>
<path d="M255.448 113.548C264.733 124.005 262.418 142.816 262.418 142.816C259.323 166.143 262.686 176.599 262.686 176.599C266.805 192.712 252.621 209.682 252.621 209.682C220.136 234.85 192.55 230.88 192.55 230.88C157.481 230.31 133.233 220.424 133.233 220.424C111.569 211.939 102.04 197.798 102.04 197.798C101.772 202.884 97.4096 201.197 97.4096 201.197C80.6432 196.397 75.7448 178.571 75.7448 178.571C68.2633 163.574 71.3582 156.231 71.3582 156.231C74.4532 153.688 89.9281 164.43 89.9281 164.43C99.9928 171.488 104.111 185.084 104.111 185.084C106.426 181.685 107.718 177.741 107.718 177.741C109.521 185.655 117.247 190.74 117.247 190.74C111.837 174.913 115.711 161.057 115.711 161.057C111.837 163.029 110.301 164.456 110.301 164.456C113.128 151.742 132.21 124.861 132.21 124.861C126.532 127.404 123.437 129.661 123.437 129.661C127.311 117.777 153.607 103.351 153.607 103.351C146.393 102.495 141.738 103.351 141.738 103.351C152.315 97.409 181.973 100.237 181.973 100.237C177.855 93.7246 175.661 92.8942 175.661 92.8942C187.139 92.038 211.631 103.922 211.631 103.922L209.828 97.9799C217.821 98.5507 221.94 105.894 221.94 105.894C223.792 100.86 229.787 95.93 229.787 95.93C228.812 98.2653 229.031 100.86 229.031 100.86C236.172 94.6068 246.724 96.8901 246.724 96.8901C242.922 98.3431 242.24 100.315 242.24 100.315C254.815 103.481 261.029 113.029 261.029 113.029C258.373 112.199 255.473 113.574 255.473 113.574L255.448 113.548Z" fill="#C4BDC9" stroke="#978BA0" stroke-width="1.02" stroke-miterlimit="10"/>
<path d="M196.376 156.412C192.623 146.397 171.348 134.954 166.06 135.343" stroke="#444141" stroke-linecap="round" stroke-linejoin="round"/>
<path d="M230.372 156.412C234.125 146.397 252.036 136.511 257.325 136.9" stroke="#444141" stroke-linecap="round" stroke-linejoin="round"/>
<path d="M76.6221 164.353C81.4961 166.714 86.7356 172.059 89.7575 175.432C91.5365 177.404 92.5844 179.999 92.755 182.723C93.0718 188.12 92.9012 193.309 97.0928 193.595" stroke="#978BA0" stroke-miterlimit="10" stroke-linecap="round"/>
<path d="M89.7332 175.432C81.0819 172.162 79.8634 175.432 79.8634 175.432" stroke="#978BA0" stroke-miterlimit="10" stroke-linecap="round"/>
<path d="M175.881 192.661C182.906 192.661 188.602 183.123 188.602 171.358C188.602 159.593 182.906 150.056 175.881 150.056C168.855 150.056 163.16 159.593 163.16 171.358C163.16 183.123 168.855 192.661 175.881 192.661Z" fill="#231F20"/>
<path d="M242.508 190.741C249.224 190.741 254.668 181.633 254.668 170.398C254.668 159.163 249.224 150.056 242.508 150.056C235.792 150.056 230.347 159.163 230.347 170.398C230.347 181.633 235.792 190.741 242.508 190.741Z" fill="#231F20"/>
<path d="M173.931 24.9909C134.939 13.9894 120.025 23.2784 120.025 23.2784C128.506 23.2784 131.503 26.4439 131.503 26.4439C93.6567 35.2399 78.0599 48.421 78.0599 48.421C87.9297 47.928 94.8021 52.339 94.8021 52.339C67.0448 72.6036 60.8548 100.211 60.8548 100.211C69.1162 93.6207 73.0154 90.4551 73.0154 90.4551C57.638 125.38 59.0271 149.069 59.0271 149.069C62.9263 139.313 69.1162 133.683 69.1162 133.683C64.0717 149.562 70.7246 161.031 70.7246 161.031C72.5524 155.426 76.6221 159.085 76.6221 159.085C100.066 168.607 104.916 186.718 104.916 186.718L108.498 179.609C109.936 183.423 118.002 192.167 118.002 192.167C112.714 177.144 116.467 163.496 116.467 163.496L111.081 166.765C110.423 154.207 132.892 128.519 132.892 128.519C128.506 128.442 124.168 133.164 124.168 133.164C127.214 123.486 154.191 107.762 154.191 107.762C148.391 107.399 142.396 107.762 142.396 107.762C155.605 101.145 182.412 104.752 182.412 104.752C180.73 98.862 176.124 97.6425 176.124 97.6425C187.261 96.0856 211.777 108.826 211.777 108.826C212.119 103.688 211.777 103.247 211.777 103.247C217.114 103.974 222.11 110.382 222.11 110.382C225.644 101.95 230.445 101.405 230.445 101.405C229.762 103.974 229.933 105.894 229.933 105.894C244.457 98.9398 249.112 101.042 249.112 101.042C247.041 102.495 244.555 105.063 244.555 105.063C253.425 105.79 260.298 116.143 260.298 116.143C255.131 115.416 254.717 115.676 254.717 115.676C260.298 121.073 261.589 166.324 261.589 166.324C267.706 159.811 272.946 123.641 272.946 123.641C278.965 130.517 281.719 130.336 281.719 130.336C273.969 115.961 273.628 100.574 273.628 100.574C273.628 88.4832 269.51 82.0743 269.51 82.0743C276.041 82.4375 279.306 78.2341 279.306 78.2341C272.093 76.0286 261.419 69.0748 261.419 69.0748C272.263 67.985 273.458 64.5081 273.458 64.5081C259.859 60.8496 252.646 49.1216 252.646 49.1216C242.678 37.5752 234.246 35.7589 234.246 35.7589C242.167 29.5316 240.266 24.2125 240.266 24.2125C232.346 30.4398 208.439 27.871 208.439 27.871C211.875 21.8254 220.136 20.7356 220.136 20.7356C200.519 14.6899 173.98 25.0168 173.98 25.0168L173.931 24.9909Z" fill="#444141" stroke="#231F20" stroke-linecap="round" stroke-linejoin="round"/>
<path d="M221.867 107.632C220.94 94.9438 230.932 81.2697 230.932 81.2697C236.903 74.0565 239.193 80.5432 239.193 80.5432C244.823 89.0798 243.897 126.703 243.897 126.703C242.532 137.938 234.734 153.325 234.734 153.325C240.583 122.188 234.856 91.1815 234.856 91.1815C231.176 91.8042 221.891 107.658 221.891 107.658L221.867 107.632Z" fill="#444141" stroke="#231F20" stroke-linecap="round" stroke-linejoin="round"/>
<path d="M220.477 107.632C221.404 94.9438 211.412 81.2697 211.412 81.2697C205.441 74.0565 203.151 80.5432 203.151 80.5432C197.521 89.0798 198.447 126.703 198.447 126.703C199.812 137.938 207.61 153.325 207.61 153.325C201.761 122.188 207.488 91.1815 207.488 91.1815C211.168 91.8042 220.453 107.658 220.453 107.658L220.477 107.632Z" fill="#444141" stroke="#231F20" stroke-linecap="round" stroke-linejoin="round"/>
<path d="M200.153 205.608L203.272 213.522L207.513 206.957L200.153 205.608Z" fill="#F1F2F2" stroke="#A7A9AC" stroke-linecap="round" stroke-linejoin="round"/>
<path d="M222.573 203.584C220.697 205.219 204.296 206.334 204.296 206.334C201.298 206.412 196.376 204.207 196.376 204.207" fill="#CDC7D1"/>
<path d="M222.573 203.584C220.697 205.219 204.296 206.334 204.296 206.334C201.298 206.412 196.376 204.207 196.376 204.207" stroke="#978BA0" stroke-linecap="round" stroke-linejoin="round"/>
<path d="M53.0079 50.0817C58.3692 37.9126 51.9112 27.7414 51.9112 27.7414C59.9045 26.7295 64.9491 4.41504 64.9491 4.41504C66.5575 27.5598 77.9382 27.9749 77.9382 27.9749C69.8962 31.9707 61.8541 33.32 71.0659 43.9064C60.4407 42.9463 52.9835 50.0817 52.9835 50.0817H53.0079Z" fill="#393536" stroke="#231F20" stroke-width="0.75" stroke-linecap="round" stroke-linejoin="round"/>
<path d="M49.3036 56.9316C39.7262 65.6758 28.7842 61.7837 28.7842 61.7837C30.0027 70.2424 11.1648 81.3997 11.1648 81.3997C32.5615 76.8589 35.9489 88.4572 35.9489 88.4572C37.4355 79.1423 36.5094 70.5019 48.5238 77.1444C44.8195 66.4801 49.3036 56.9576 49.3036 56.9576V56.9316Z" fill="#393536" stroke="#231F20" stroke-width="0.75" stroke-linecap="round" stroke-linejoin="round"/>
<path d="M45.8918 54.5964L41.2859 51.4568H47.0128L44.5758 45.3074L49.9372 49.4589C54.4944 50.393 62.2683 60.4864 62.2683 60.4864L55.8347 58.229L59.9288 64.0152C53.0809 62.8735 45.8918 54.5704 45.8918 54.5704V54.5964Z" fill="#393536" stroke="#231F20" stroke-width="0.75" stroke-linecap="round" stroke-linejoin="round"/>
<path d="M39.7262 183.45C51.0582 189.365 60.733 182.671 60.733 182.671C61.5372 191.208 82.4222 196.968 82.4222 196.968C60.6599 198.291 60.0751 210.408 60.0751 210.408C56.4439 201.794 55.3229 193.18 45.2338 202.806C46.3061 191.519 39.7262 183.45 39.7262 183.45Z" fill="#393536" stroke="#231F20" stroke-width="0.75" stroke-linecap="round" stroke-linejoin="round"/>
<path d="M33.3413 179.376C25.2749 169.023 29.1497 157.451 29.1497 157.451C21.1807 158.618 11.0429 138.354 11.0429 138.354C14.9421 161.187 4 164.638 4 164.638C12.7244 166.376 20.8396 165.52 14.4059 178.208C24.4707 174.446 33.3657 179.376 33.3657 179.376H33.3413Z" fill="#393536" stroke="#231F20" stroke-width="0.75" stroke-linecap="round" stroke-linejoin="round"/>
<path d="M35.5834 175.795L38.6052 170.943L38.5078 177.041L44.3078 174.55L40.3111 180.18C39.3607 185.032 29.7346 193.128 29.7346 193.128L31.9766 186.304L26.4691 190.559C27.6632 183.294 35.559 175.795 35.559 175.795H35.5834Z" fill="#393536" stroke="#231F20" stroke-width="0.75" stroke-linecap="round" stroke-linejoin="round"/>
<path d="M326.511 121.384C333.188 110.071 327.949 99.1993 327.949 99.1993C335.942 99.2253 343.448 77.845 343.448 77.845C342.424 100.912 353.61 102.754 353.61 102.754C345.227 105.686 337.112 105.972 345.032 117.596C334.65 115.286 326.486 121.384 326.486 121.384H326.511Z" fill="#393536" stroke="#231F20" stroke-width="0.75" stroke-linecap="round" stroke-linejoin="round"/>
<path d="M322.051 127.689C311.621 135.11 301.264 129.843 301.264 129.843C301.507 138.353 281.646 146.942 281.646 146.942C303.262 145.203 305.309 157.061 305.309 157.061C307.819 148.058 307.868 139.417 319.005 147.513C316.568 136.537 322.051 127.689 322.051 127.689Z" fill="#393536" stroke="#231F20" stroke-width="0.75" stroke-linecap="round" stroke-linejoin="round"/>
<path d="M318.98 124.939L314.789 121.255L320.443 121.981L318.737 115.598L323.538 120.372C327.924 121.877 334.455 132.827 334.455 132.827L328.338 129.765L331.726 136.018C325.097 134.021 318.956 124.913 318.956 124.913L318.98 124.939Z" fill="#393536" stroke="#231F20" stroke-width="0.75" stroke-linecap="round" stroke-linejoin="round"/>
<path d="M299.655 43.8541C312.157 41.96 316.617 30.6471 316.617 30.6471C321.783 37.2117 342.083 29.4795 342.083 29.4795C324.78 43.5947 330.702 53.9735 330.702 53.9735C323.148 49.0176 317.664 42.5827 314.423 56.5682C309.354 46.5786 299.655 43.8541 299.655 43.8541Z" fill="#393536" stroke="#231F20" stroke-width="0.75" stroke-linecap="round" stroke-linejoin="round"/>
<path d="M292.222 44.2952C280.086 40.5588 277.162 28.6751 277.162 28.6751C271.167 34.4094 252.085 23.7192 252.085 23.7192C267.365 40.2734 260.127 49.6662 260.127 49.6662C268.267 45.878 274.53 40.3253 275.894 54.674C282.231 45.5407 292.174 44.2952 292.174 44.2952H292.222Z" fill="#393536" stroke="#231F20" stroke-width="0.75" stroke-linecap="round" stroke-linejoin="round"/>
<path d="M292.198 39.9885L292.149 34.1764L295.293 39.2879L298.778 33.7612L298.437 40.7929C300.191 45.3855 296.536 57.8141 296.536 57.8141L294.781 50.8343L292.466 57.6584C289.615 50.9381 292.198 39.9885 292.198 39.9885Z" fill="#393536" stroke="#231F20" stroke-width="0.75" stroke-linecap="round" stroke-linejoin="round"/>
</svg>
