<svg width="268" height="511" viewBox="0 0 268 511" fill="none" xmlns="http://www.w3.org/2000/svg">
<path d="M263.944 116.728C250.452 111.96 244.886 96.4161 244.886 96.4161C239.715 82.8839 228.218 69.7375 228.218 69.7375C240.53 68.9382 246.882 60.5873 246.882 60.5873C228.64 63.7844 212.815 44.2715 212.815 44.2715C205.198 28.3414 185.747 21.5891 185.747 21.5891C202.022 15.2226 202.556 5.30079 202.556 5.30079C191.312 14.4233 165.116 5.30079 165.116 5.30079C144.484 -1.47911 135.349 15.2226 135.349 15.2226C115.505 -5.88881 110.614 12.8248 96.5881 15.2226C82.5622 17.6204 71.0659 5.30079 71.0659 5.30079C71.853 13.2382 79.92 19.6047 79.92 19.6047C44.4757 26.7705 17.4919 55.0477 17.4919 55.0477C32.1643 49.067 36.5492 55.0477 36.5492 55.0477C30.1968 76.5449 4 78.5293 4 78.5293C10.7459 88.0928 19.0659 86.4943 19.0659 86.4943C-1.5654 121.138 7.14811 146.218 7.14811 146.218C12.7135 127.119 16.2832 127.504 16.2832 127.504C16.0865 139.493 17.9978 148.588 20.0216 154.872C19.0097 155.754 11.1957 163.333 15.8897 178.657L27.5265 176.59L21.4551 187.228C21.4551 187.228 20.9211 192.41 34.16 199.41C34.16 199.41 45.0097 205.363 47.3989 191.886C47.3989 191.886 63.28 213.686 82.0562 218.868C82.0562 218.868 82.1405 217.71 82.4497 215.919C86.2724 216.883 89.7016 217.49 92.2314 217.848C92.4843 219.199 92.8778 220.411 93.44 221.459C93.44 221.459 100.973 223.774 115.055 224.959H109.715C103.109 225.482 103.222 230.912 103.222 230.912L90.4043 237.912C91.3319 238.05 92.1751 238.463 92.9622 238.987C92.9622 238.987 92.9059 239.015 92.9059 239.042C88.24 241.798 87.0595 244.527 87.0595 244.527C84.2487 247.972 82.8151 251.252 82.1968 252.988C79.2735 252.271 77.2216 251.913 77.2216 251.913L65.3038 276.221L65.5005 280.356C65.107 293.199 55.8032 308.495 55.8032 308.495C61.9589 311.83 63.3362 318.444 63.3362 318.444C55.8032 314.944 52.8238 316.68 52.8238 316.68L47.8768 330.102C48.8324 331.728 49.9286 333.106 51.0811 334.374C45.6843 340.438 42.4238 351.875 42.4238 351.875L39.9503 368.219C40.0627 374.254 46.7524 371.526 46.7524 371.526V378.912C48.2984 385.72 53.5546 380.676 53.5546 380.676C55.9438 387.787 62.493 382.027 62.493 382.027C68.9297 386.298 70.3351 379.408 70.3351 379.408L69.7449 362.293C71.6281 369.679 74.4951 371.636 74.4951 371.636C77.0811 373.4 78.5708 370.865 78.5708 370.865C78.88 360.061 76.5751 351.517 76.5751 351.517L75.3946 344.599C77.0811 344.599 78.1492 344.517 78.1492 344.517C78.1492 344.517 79.0487 342.477 80.9038 332.252C83.4054 318.499 93.5243 288.872 93.5243 288.872L98.5276 277.021L98.0778 278.371L100.074 284.214L101.479 282.836C101.17 285.399 100.889 287.88 100.636 290.167C97.8811 293.254 95.4638 295.376 95.4638 295.376L95.9978 307.31C93.3557 317.039 87.0032 323.13 87.0032 323.13C86.6378 324.535 86.5254 325.693 86.4973 326.63C83.3211 338.701 83.0681 384.259 83.0681 384.259C82.5341 392.003 76.0692 397.708 76.0692 397.708C78.4584 397.488 80.5103 397.24 82.1405 397.019C82.5341 408.567 78.627 434.86 78.627 434.86C82.3935 440.841 87.3968 444.065 92.5686 445.636L91.3881 466.197C83.9395 466.803 78.627 468.401 78.627 470.276V482.43C78.2054 482.127 77.8119 481.823 77.5027 481.493C77.5027 481.493 74.1859 505.085 86.1038 506.132C86.1038 506.132 114.662 509.246 119.159 503.679C119.159 503.679 120.733 495.631 115.983 493.178C115.983 493.178 117.838 484.607 116.77 481.493C116.77 481.493 116.292 481.961 115.308 482.65L117.416 470.276C117.416 468.457 112.441 466.913 105.386 466.252V446.766C113.312 446.05 119.524 443.321 119.524 443.321C122.701 438.967 123.572 429.017 123.656 420.418C126.776 422.045 129.334 422.596 129.334 422.596C126.945 415.458 126.692 412.619 126.692 412.619L132.117 364.498C132.623 364.581 133.241 364.553 133.944 364.415L137.401 420.17C140.324 437.561 140.324 481.382 140.324 481.382C139.79 485.792 137.401 487.336 137.401 487.336L146.199 483.78C146.48 488.245 146.733 491.415 146.733 491.415C148.729 503.293 158.426 503.486 158.426 503.486C178.467 504.451 184.229 501.722 184.229 501.722C189.795 498.029 187.658 491.222 187.658 491.222C185.41 485.572 178.467 483.064 178.467 483.064L178.13 480.28C182.852 481.686 187.658 481.107 187.658 481.107C178.664 472.536 178.664 461.925 178.664 461.925L179.198 402.78C179.76 392.748 178.973 381.062 177.736 370.093C178.861 371.223 180.856 371.912 184.173 369.927C184.173 369.927 190.722 375.109 193.111 368.687C193.111 368.687 198.368 373.235 199.914 367.116V360.447C199.914 360.447 206.603 362.899 206.716 357.47L204.242 342.753C204.242 342.753 200.476 330.847 194.348 325.83C194.685 324.811 194.938 323.708 195.107 322.496L175.263 286.033L173.492 272.556C173.492 272.556 166.268 247.145 157.274 239.621C154.238 236.259 147.492 232.869 147.492 232.869C147.492 232.042 147.323 231.215 147.014 230.416C146.93 229.231 146.817 228.459 146.817 228.459C146.171 227.715 145.468 227.191 144.737 226.723C144.175 226.089 143.697 225.593 143.36 225.289C147.436 225.069 151.68 224.766 156.205 224.297C156.205 224.297 198.255 221.955 217.059 197.067C217.059 197.067 217.256 196.571 217.565 195.717C219.983 199.162 222.428 204.233 221.557 210.104C221.557 210.104 221.36 218.069 230.495 218.261C230.495 218.261 234.88 220.301 235.611 207.981C235.639 207.43 235.583 206.879 235.386 206.383C234.346 203.296 229.933 191.914 220.348 185.823C221.641 179.814 222.456 172.346 220.798 165.896C231.901 162.369 232.659 137.481 232.659 137.481C238.618 145.005 240.586 152.97 240.586 152.97C245.758 137.454 240.586 113.945 240.586 113.945C252.082 122.296 264 116.728 264 116.728H263.944ZM138.722 225.455C138.947 225.951 139.116 226.419 139.256 226.888L138.076 225.593H137.289L137.204 225.51C137.682 225.51 138.188 225.482 138.694 225.455H138.722ZM94.3395 195.138C94.2832 194.422 94.1989 193.788 94.1427 193.236C94.4238 193.044 94.7049 192.823 95.014 192.658C95.014 192.658 94.733 193.622 94.3395 195.138ZM175.684 355.375C176.078 354.438 176.499 353.391 176.865 352.123L176.528 361.025C176.246 359.096 175.994 357.222 175.712 355.403L175.684 355.375ZM149.038 108.763L150.022 108.873C149.853 108.956 149.684 109.039 149.516 109.122C149.516 109.122 149.319 108.956 149.038 108.763Z" stroke="#F9F9F9" stroke-width="7" stroke-linecap="round" stroke-linejoin="round"/>
<path d="M136.698 223.277H109.715L102.041 232.758C85.373 238.215 81.8033 252.602 81.8033 252.602C96.4757 254.145 104.121 262.138 104.121 262.138C102.238 272.253 99.4552 298.904 99.4552 298.904L93.4963 326.133L133.185 337.406L166.128 327.043L171.496 322.633C166.128 306.869 159.382 280.355 159.382 280.355C156.599 262.138 156.402 245.794 156.402 245.794L146.874 234.495L136.698 223.277Z" fill="#699E83" stroke="#426654" stroke-width="0.5" stroke-linejoin="round"/>
<path d="M138.104 223.939H111.12L103.447 233.42C89.7579 236.534 87.0876 242.873 87.0876 242.873C101.76 244.416 105.527 262.799 105.527 262.799C103.643 272.914 100.861 299.565 100.861 299.565L94.9017 326.795L134.59 338.067L167.533 327.704L172.902 323.295C167.533 307.53 160.787 281.017 160.787 281.017C158.004 262.799 157.808 246.456 157.808 246.456L148.279 235.156L138.104 223.939Z" fill="#487059" stroke="#426654" stroke-width="0.5" stroke-linejoin="round"/>
<path d="M193.055 323.267C199.914 327.567 204.158 341.071 204.158 341.071L206.631 355.789C206.519 361.218 199.829 358.765 199.829 358.765V365.435C198.283 371.581 193.027 367.006 193.027 367.006C190.638 373.4 184.089 368.246 184.089 368.246C177.652 372.104 176.247 365.876 176.247 365.876L176.837 350.442C174.954 357.111 172.087 358.848 172.087 358.848C169.501 360.419 168.011 358.159 168.011 358.159C167.702 348.43 170.007 340.713 170.007 340.713L172.002 330.102L193.027 323.267H193.055Z" fill="#54876B" stroke="#426654" stroke-linejoin="round"/>
<path d="M197.018 334.043C199.885 337.626 199.857 363.671 199.857 363.671" stroke="#426654" stroke-linecap="round" stroke-linejoin="round"/>
<path d="M191.116 340.299C193.983 343.882 192.859 367.006 192.859 367.006" stroke="#426654" stroke-linecap="round" stroke-linejoin="round"/>
<path d="M183.021 344.158C185.888 347.741 184.257 368.136 184.257 368.136" stroke="#426654" stroke-linecap="round" stroke-linejoin="round"/>
<path d="M78.5709 468.594V480.969C98.3028 493.426 115.28 480.969 115.28 480.969L117.388 468.594H78.5709Z" fill="#699E83" stroke="#426654" stroke-linejoin="round"/>
<path d="M97.9654 472.949C108.692 472.949 117.388 471 117.388 468.595C117.388 466.19 108.692 464.24 97.9654 464.24C87.2386 464.24 78.5427 466.19 78.5427 468.595C78.5427 471 87.2386 472.949 97.9654 472.949Z" fill="#DD90AF" stroke="#AF6285" stroke-miterlimit="10"/>
<path d="M92.7936 439.215L91.2195 466.583C91.2195 466.583 91.2195 466.748 91.3039 466.803C99.399 472.315 105.386 466.638 105.386 466.638V439.215H92.8217H92.7936Z" fill="#E6E7E8" stroke="#A7A9AC" stroke-linejoin="round"/>
<path d="M81.8033 392.307C83.2649 401.236 78.5427 433.151 78.5427 433.151C91.6973 453.905 119.468 441.64 119.468 441.64C125.624 433.151 123.122 403.689 123.122 403.689L81.8033 392.307Z" fill="#699E83" stroke="#426654" stroke-linejoin="round"/>
<path d="M145.693 455.696C144.709 464.267 146.677 489.733 146.677 489.733C148.672 501.612 158.37 501.805 158.37 501.805C178.411 502.769 184.173 500.041 184.173 500.041C189.738 496.348 187.602 489.54 187.602 489.54C185.353 483.89 178.411 481.382 178.411 481.382L174.644 449.853L145.665 455.696H145.693Z" fill="#699E83" stroke="#426654" stroke-miterlimit="10"/>
<path d="M86.4412 324.948C83.265 337.02 83.012 382.577 83.012 382.577C82.4779 390.322 76.0131 396.027 76.0131 396.027C81.4098 395.503 85.4012 394.869 85.4012 394.869L86.3849 404.984L86.4412 405.618L90.6855 398.342C96.1104 404.819 98.359 406.5 98.359 406.5C99.2866 418.296 99.4271 420.253 99.4271 420.253C103.39 411.571 109.096 406.252 109.096 406.252C112.02 419.343 112.666 419.481 112.666 419.481C113.453 414.686 115.308 411.048 115.308 411.048C119.946 418.957 129.334 420.914 129.334 420.914C126.945 413.776 126.692 410.937 126.692 410.937L133.297 352.316L137.401 418.461C140.324 435.852 140.324 479.673 140.324 479.673C139.79 484.083 137.401 485.626 137.401 485.626L146.396 481.988L153.001 456.054L154.575 479.398C156.964 486.15 159.86 485.626 159.86 485.626C160.113 480.693 161.434 478.874 161.434 478.874C169.107 484.331 171.496 484.056 171.496 484.056C171.749 476.78 173.408 476.283 173.408 476.283C178.889 480.445 187.63 479.398 187.63 479.398C178.636 470.826 178.636 460.216 178.636 460.216L179.17 401.071C180.744 372.545 171.496 330.488 171.496 330.488L86.4412 324.948Z" fill="#603913" stroke="#3C2415" stroke-miterlimit="10"/>
<path d="M157.189 237.94C166.184 245.464 173.408 270.875 173.408 270.875L175.179 284.352L195.023 320.814C193.449 332.335 183.639 334.677 183.639 334.677C179.929 336.496 169.894 334.677 169.894 334.677L160.141 283.304L152.945 253.484L157.189 237.912V237.94Z" fill="#E6E7E8" stroke="#A7A9AC" stroke-width="0.75" stroke-miterlimit="10"/>
<path d="M53.5265 330.488C46.6682 335.256 42.4238 350.221 42.4238 350.221L39.9503 366.565C40.0627 372.6 46.7525 369.872 46.7525 369.872V377.258C48.2984 384.066 53.5546 379.022 53.5546 379.022C55.9438 386.133 62.493 380.372 62.493 380.372C68.9298 384.644 70.3352 377.754 70.3352 377.754L69.7449 360.639C71.6281 368.025 74.4952 369.982 74.4952 369.982C77.0811 371.746 78.5709 369.21 78.5709 369.21C78.88 358.407 76.5752 349.863 76.5752 349.863L74.5795 338.095L53.5546 330.515L53.5265 330.488Z" fill="#699E83" stroke="#426654" stroke-width="0.75" stroke-linejoin="round"/>
<path d="M49.5632 342.449C46.6962 346.446 46.7243 375.329 46.7243 375.329" stroke="#426654" stroke-width="0.75" stroke-linecap="round" stroke-linejoin="round"/>
<path d="M55.4659 349.395C52.5989 353.391 53.7232 379.05 53.7232 379.05" stroke="#426654" stroke-width="0.75" stroke-linecap="round" stroke-linejoin="round"/>
<path d="M63.5611 353.666C60.6941 357.662 62.3243 380.262 62.3243 380.262" stroke="#426654" stroke-width="0.75" stroke-linecap="round" stroke-linejoin="round"/>
<path d="M102.125 260.374C95.492 253.346 77.2498 250.232 77.2498 250.232L65.332 274.54C67.3276 287.962 55.8033 306.786 55.8033 306.786C61.959 310.121 63.3363 316.736 63.3363 316.736C55.8033 313.235 52.8239 314.972 52.8239 314.972L47.8768 328.394C57.799 344.93 78.1212 342.78 78.1212 342.78C78.1212 342.78 79.0206 340.741 80.8758 330.516C83.3774 316.763 93.4963 287.136 93.4963 287.136L104.121 262.028L102.097 260.292L102.125 260.374Z" fill="#E6E7E8" stroke="#A7A9AC" stroke-width="0.75" stroke-miterlimit="10"/>
<path d="M65.332 274.568C72.2747 287.219 74.4672 306.814 74.4672 306.814C68.705 297.14 66.3439 296.644 66.3439 296.644" fill="#E6E7E8"/>
<path d="M65.332 274.568C72.2747 287.219 74.4672 306.814 74.4672 306.814C68.705 297.14 66.3439 296.644 66.3439 296.644" stroke="#A7A9AC" stroke-width="0.75" stroke-miterlimit="10" stroke-linecap="round"/>
<path d="M160.506 276.442C154.547 286.804 145.018 289.919 145.018 289.919C155.334 278.895 159.691 267.622 159.691 267.622C159.55 254.779 155.981 244.912 155.981 244.912L157.161 237.912C154.125 234.55 147.379 231.16 147.379 231.16C147.52 227.136 142.882 223.25 142.882 223.25H138.638C140.493 226.888 138.778 231.545 138.778 231.545C137.598 234.412 131.358 238.16 131.358 238.16C129.643 241.798 129.868 251.251 129.868 251.251L123.403 251.114L123.15 242.046C121.436 234.77 117.332 234.522 117.332 234.522C109.124 230.25 110.192 226.364 110.192 226.364L109.658 223.25C103.053 223.773 103.165 229.203 103.165 229.203L90.3481 236.203C99.5957 237.636 101.451 260.319 101.451 260.319L102.772 262.386L98.0216 276.662L100.017 282.505L108.478 274.209C108.225 282.367 95.3794 293.667 95.3794 293.667L95.9135 305.601C93.2713 315.33 86.9189 321.421 86.9189 321.421C85.7384 326.216 86.9189 328.173 86.9189 328.173C98.3027 341.016 129.784 339.721 129.784 339.721L131.498 362.679C138.497 365.269 173.042 337.654 173.042 337.654C175.825 304.443 160.478 276.442 160.478 276.442H160.506ZM114.605 317.92C113.875 318.83 112.975 319.712 111.963 320.318C110.698 321.035 109.04 320.98 107.831 320.153C106.988 319.574 105.47 318.995 103.25 319.767C103.25 319.767 98.6119 318.224 101.676 314.448C101.676 314.448 105.639 313.814 104.711 309.652C104.711 309.652 106.566 303.947 110.53 308.743C110.53 308.743 111.261 311.444 113.706 313.18C115.308 314.31 115.814 316.432 114.605 317.948V317.92Z" fill="#E6E7E8" stroke="#A7A9AC" stroke-width="0.75" stroke-miterlimit="10"/>
<path d="M130.571 252.326C136.951 246.759 139.172 236.286 139.172 236.286C142.123 237.554 142.826 241.357 142.826 241.357C142.123 248.192 131.358 255.33 131.358 255.33L130.571 252.354V252.326Z" fill="#BE1E2D" stroke="#8E232F" stroke-width="0.75" stroke-miterlimit="10"/>
<path d="M123.235 252.326C116.854 246.759 114.634 236.286 114.634 236.286C111.682 237.554 110.98 241.357 110.98 241.357C111.682 248.192 122.448 255.33 122.448 255.33L123.235 252.354V252.326Z" fill="#BE1E2D" stroke="#8E232F" stroke-width="0.75" stroke-miterlimit="10"/>
<path d="M124.134 259.988C123.741 272.06 117.107 304.471 117.107 304.471L119.777 309.928L124.668 303.176L122.195 313.153L132.595 327.043C133.775 318.362 138.497 306.428 138.497 306.428C136.277 299.152 134.309 284.627 134.309 284.627L129.924 283.718L134.59 281.127C132.595 272.694 129.7 259.988 129.7 259.988H124.134Z" fill="#BE1E2D" stroke="#8E232F" stroke-width="0.75" stroke-miterlimit="10"/>
<path d="M122.42 252.85C125.596 250.397 130.599 252.326 130.599 252.326C132.342 255.44 129.7 259.988 129.7 259.988C128.126 260.897 124.134 259.988 124.134 259.988C121.295 256.625 122.42 252.85 122.42 252.85Z" fill="#BE1E2D" stroke="#8E232F" stroke-width="0.75" stroke-miterlimit="10"/>
<path d="M129.924 251.279C130.121 245.546 135.63 239.538 135.63 239.538C142.18 244.223 143.079 249.542 143.079 249.542C148.841 242.101 146.761 226.777 146.761 226.777C143.501 223.057 138.526 223.277 138.526 223.277C140.521 227.218 139.706 230.718 139.706 230.718C136.755 234.88 131.78 237.002 131.78 237.002C130.206 239.235 129.953 251.279 129.953 251.279H129.924Z" fill="#E6E7E8" stroke="#A7A9AC" stroke-width="0.5" stroke-miterlimit="10"/>
<path d="M123.46 251.169C123.235 245.436 116.742 239.979 116.742 239.979C109.546 244.664 108.562 249.984 108.562 249.984C102.238 242.542 104.515 227.219 104.515 227.219C108.113 223.498 109.687 223.277 109.687 223.277C107.494 227.219 112.273 231.16 112.273 231.16C115.533 235.321 120.986 237.443 120.986 237.443C122.729 239.676 123.46 251.169 123.46 251.169Z" fill="#E6E7E8" stroke="#A7A9AC" stroke-width="0.5" stroke-miterlimit="10"/>
<path d="M77.4466 479.812C81.8034 484.469 99.2585 485.131 99.2585 485.131C111.57 485.131 116.714 479.812 116.714 479.812C117.782 482.926 115.927 491.497 115.927 491.497C120.677 493.95 119.103 501.998 119.103 501.998C114.606 507.565 86.0477 504.451 86.0477 504.451C74.1298 503.403 77.4466 479.812 77.4466 479.812Z" fill="#261D15" stroke="#0F0906" stroke-width="0.51" stroke-miterlimit="10"/>
<path d="M93.7211 186.815C83.1525 192.768 79.9763 213.521 79.9763 213.521C88.9709 216.112 96.6444 216.635 96.6444 216.635L93.7211 186.815Z" fill="#E6E7E8" stroke="#A7A9AC" stroke-miterlimit="10"/>
<path d="M135.377 13.5412C115.533 -7.5702 110.642 11.1434 96.6162 13.5412C82.5902 15.939 71.094 3.6194 71.094 3.6194C71.8811 11.5568 79.9481 17.9233 79.9481 17.9233C44.5038 25.0891 17.52 53.3663 17.52 53.3663C32.1924 47.3856 36.5773 53.3663 36.5773 53.3663C30.2248 74.8635 4.02808 76.8479 4.02808 76.8479C10.774 86.4114 19.094 84.8129 19.094 84.8129C-1.53733 119.457 7.17618 144.537 7.17618 144.537C12.7416 125.437 16.3113 125.823 16.3113 125.823C15.9178 150.903 24.6313 163.553 24.6313 163.553L42.6205 180.228L72.2465 199.878L86.1319 140.568L108.759 108.708L130.683 105.125L167.898 109.094L163.148 134.174L153.619 172.786L186.562 129.378L196.484 153.273L216.975 125.795L219.617 164.546C231.788 162.424 232.575 135.8 232.575 135.8C238.534 143.324 240.502 151.289 240.502 151.289C245.673 135.772 240.502 112.263 240.502 112.263C251.998 120.614 263.916 115.047 263.916 115.047C250.424 110.279 244.858 94.7347 244.858 94.7347C239.686 81.2025 228.19 68.0561 228.19 68.0561C240.502 67.2568 246.854 58.9059 246.854 58.9059C228.612 62.103 212.787 42.5901 212.787 42.5901C205.17 26.66 185.719 19.9077 185.719 19.9077C201.993 13.5412 202.528 3.6194 202.528 3.6194C191.284 12.742 165.088 3.6194 165.088 3.6194C144.456 -3.16051 135.321 13.5412 135.321 13.5412H135.377Z" fill="#603913" stroke="#3C2415" stroke-miterlimit="10"/>
<path d="M34.9752 159.888C40.5125 176.011 42.6488 176.176 42.6488 176.176C45.2909 162.175 47.1461 162.947 47.1461 162.947C46.8931 174.109 65.1352 188.634 65.1352 188.634C59.5698 159.833 73.8769 138.06 73.8769 138.06C73.6239 152.832 75.985 154.403 75.985 154.403C79.1612 126.126 98.4715 112.897 98.4715 112.897C88.9428 114.193 87.3688 116.012 87.3688 116.012C102.182 101.735 125.989 100.715 125.989 100.715C116.742 95.534 114.606 97.0774 114.606 97.0774C129.7 91.3723 149.544 107.44 149.544 107.44C163.823 99.6681 172.817 105.621 172.817 105.621C175.46 126.622 159.578 157.848 159.578 157.848C177.821 132.603 188.136 117.307 188.136 117.307C194.208 129.241 194.236 137.399 194.236 137.399C197.918 125.851 196.597 105.098 196.597 105.098C199.52 123.784 205.339 137.509 205.339 137.509C212.225 126.347 211.157 105.594 211.157 105.594C229.146 131.004 219.617 160.853 219.617 160.853C225.436 174.33 216.975 195.358 216.975 195.358C198.199 220.273 156.121 222.588 156.121 222.588C115.898 226.75 93.412 219.722 93.412 219.722C88.9147 211.151 94.9861 190.921 94.9861 190.921C83.6023 197.398 82.0282 217.131 82.0282 217.131C63.252 211.95 47.3709 190.149 47.3709 190.149C44.9817 203.627 34.132 197.674 34.132 197.674C20.8931 190.673 21.4271 185.492 21.4271 185.492L27.4985 174.853L15.8617 176.92C10.8304 160.577 20.1061 153.053 20.1061 153.053C29.6347 147.872 34.919 159.833 34.919 159.833" fill="#699E83"/>
<path d="M34.9752 159.888C40.5125 176.011 42.6488 176.176 42.6488 176.176C45.2909 162.176 47.1461 162.947 47.1461 162.947C46.8931 174.109 65.1352 188.634 65.1352 188.634C59.5698 159.833 73.8769 138.06 73.8769 138.06C73.6239 152.832 75.985 154.403 75.985 154.403C79.1612 126.126 98.4715 112.897 98.4715 112.897C88.9428 114.193 87.3688 116.012 87.3688 116.012C102.182 101.735 125.989 100.715 125.989 100.715C116.742 95.534 114.606 97.0774 114.606 97.0774C129.7 91.3723 149.544 107.44 149.544 107.44C163.823 99.6681 172.817 105.621 172.817 105.621C175.46 126.622 159.578 157.848 159.578 157.848C177.821 132.603 188.136 117.307 188.136 117.307C194.208 129.241 194.236 137.399 194.236 137.399C197.918 125.851 196.597 105.098 196.597 105.098C199.52 123.784 205.339 137.509 205.339 137.509C212.225 126.347 211.157 105.594 211.157 105.594C229.146 131.004 219.617 160.853 219.617 160.853C225.436 174.33 216.975 195.358 216.975 195.358C198.199 220.273 156.121 222.588 156.121 222.588C115.898 226.75 93.412 219.722 93.412 219.722C88.9147 211.151 94.9861 190.921 94.9861 190.921C83.6023 197.398 82.0282 217.131 82.0282 217.131C63.252 211.95 47.3709 190.15 47.3709 190.15C44.9817 203.627 34.132 197.674 34.132 197.674C20.8931 190.673 21.4271 185.492 21.4271 185.492L27.4985 174.853L15.8617 176.92C10.8304 160.577 20.1061 153.053 20.1061 153.053C29.6347 147.872 34.919 159.833 34.919 159.833" stroke="#426654" stroke-linejoin="round"/>
<path d="M113.144 186.842C121.247 186.842 127.816 175.416 127.816 161.321C127.816 147.226 121.247 135.8 113.144 135.8C105.04 135.8 98.4713 147.226 98.4713 161.321C98.4713 175.416 105.04 186.842 113.144 186.842Z" fill="black"/>
<path d="M202.584 182.956C210.547 182.956 217.003 171.727 217.003 157.876C217.003 144.024 210.547 132.796 202.584 132.796C194.62 132.796 188.164 144.024 188.164 157.876C188.164 171.727 194.62 182.956 202.584 182.956Z" fill="black"/>
<path d="M219.477 183.645C229.624 189.571 234.262 201.532 235.33 204.729C235.498 205.253 235.583 205.804 235.555 206.327C234.824 218.647 230.439 216.608 230.439 216.608C221.304 216.415 221.501 208.45 221.501 208.45C223.075 197.563 213.377 189.378 213.377 189.378C213.349 189.323 213.321 189.267 213.293 189.212C211.438 185.464 215.851 181.55 219.505 183.673L219.477 183.645Z" fill="#DD90AF" stroke="#AF6285" stroke-miterlimit="10"/>
<path d="M89.6173 30.0223C79.4422 29.4987 53.2454 56.7286 53.2454 56.7286C47.427 64.0046 40.5406 85.7774 40.5406 85.7774C37.6173 104.712 40.5406 108.35 40.5406 108.35C50.6033 115.626 58.9233 113.283 58.9233 113.283C96.8973 89.4154 103.896 56.8664 103.896 56.8664C109.462 32.2272 89.6173 30.0223 89.6173 30.0223Z" fill="#699E83" stroke="#426654" stroke-miterlimit="10"/>
<path d="M85.092 38.5935C76.9687 38.1801 56.0563 59.9254 56.0563 59.9254C51.4184 65.7131 45.9093 83.1038 45.9093 83.1038C43.5763 98.207 45.9093 101.128 45.9093 101.128C53.9201 106.916 60.5817 105.07 60.5817 105.07C90.8822 86.0252 96.4757 60.0356 96.4757 60.0356C100.917 40.3573 85.0639 38.5935 85.0639 38.5935H85.092Z" fill="#231F20" stroke="#231F20" stroke-miterlimit="10"/>
<path d="M93.7492 45.0703C89.8984 44.6293 84.6422 49.232 84.6422 49.232C76.3503 45.9247 72.8087 59.5396 72.8087 59.5396C66.1752 57.886 67.2152 65.5203 67.2152 65.5203C59.0638 66.6778 61.3687 77.5918 61.3687 77.5918C54.7352 78.3635 56.0282 90.6831 56.0282 90.6831C47.7363 92.9706 53.6109 102.755 53.6109 102.755C56.5903 107.936 63.3082 103.664 63.3082 103.664C92.9341 82.5251 96.813 60.9176 96.813 60.9176C98.4995 55.3228 96.9255 49.5902 96.0541 46.9169C95.7168 45.9247 94.8455 45.153 93.8055 45.0427L93.7492 45.0703Z" fill="#DD90AF" stroke="#AF6285" stroke-miterlimit="10"/>
<path d="M151.652 192.933C159.831 192.189 166.577 191.941 166.577 191.941C167.252 195.992 164.104 199.382 164.104 199.382C162.277 201.587 146.087 201.477 146.087 201.477C146.058 197.177 151.652 192.933 151.652 192.933Z" fill="#444141" stroke="#231F20" stroke-linecap="round" stroke-linejoin="round"/>
</svg>
