<svg width="967" height="2175" viewBox="0 0 967 2175" fill="none" xmlns="http://www.w3.org/2000/svg">
<path d="M940 18.6499V15.1129H937V11.576H934V8.03906C925 6.86008 917 9.21803 909 2.14417C904.19 -1.64035 897.44 0.646866 890.83 1.08309C888.36 11.2812 885.34 21.3615 882.09 31.3121C883.91 46.4384 882.12 63.7222 888.99 77.5987C890.07 80.7938 889.1 84.6844 888.78 88.5161C889.59 91.5814 890.35 94.6114 890.99 97.6414C888.7 94.9415 888.51 91.7465 888.78 88.5161C887.06 82.0317 885.03 75.3705 882.99 68.1669C882.99 65.809 880.99 72.8828 880.99 71.7038C876.99 62.272 873.99 52.8402 873.99 42.2294C870.99 42.2294 869.99 44.5874 869.99 48.1243C866.27 34.1063 864.21 18.7913 857.24 7.00156C851.03 7.74431 844.62 8.47528 838.99 9.21803C817.99 11.576 798.99 24.5447 779.99 18.6499C762.99 15.1129 744.99 18.6499 727.99 15.1129V11.576C721.99 9.21803 715.99 15.1129 709.99 15.1129C710.99 6.86008 705.99 11.576 702.99 10.397C691.99 2.14417 677.99 10.397 664.99 13.9339C662.99 15.1129 660.99 9.21803 658.99 9.21803C641.99 9.21803 624.99 15.1129 607.99 15.1129C606.99 15.1129 605.99 18.6499 604.99 18.6499C585.99 17.4709 567.99 30.4396 551.99 25.7237C529.99 19.8288 506.99 22.1868 485.99 11.576C479.99 9.21803 473.99 16.2919 467.99 15.1129V11.576H464.99V8.03906C453.99 11.576 444.99 19.8288 434.99 24.5447C429.99 26.9027 422.99 24.5447 416.99 25.7237C395.99 32.7976 375.99 39.8715 353.99 36.3345L347.99 32.7976C337.99 31.6186 326.99 32.7976 316.99 28.0817C302.9 20.5244 287.16 21.6798 271.89 21.0078C267.4 29.6733 262.78 38.3034 257.99 46.9453C253.99 55.1982 247.99 59.9141 244.99 68.1669C237.99 64.63 239.99 81.1357 232.99 75.2408C231.99 74.0618 230.99 70.5249 231.99 68.1669C227.99 72.8828 224.99 76.4198 222.99 82.3147V77.5987C208.99 92.9255 196.99 109.431 188.99 129.474V125.937C178.99 147.158 178.99 173.096 166.99 193.139C168.99 177.812 172.99 162.485 168.99 147.158C168.99 149.516 166.99 151.874 164.99 151.874C163.99 143.622 163.99 136.548 163.99 128.295C159.99 128.295 160.99 135.369 156.99 135.369C178.45 92.1355 201.53 50.8124 226.19 11.352C215.03 10.7035 204.2 12.9082 192.99 15.1129V11.576H189.99V8.03906C183.41 5.2213 177.91 9.13551 172.2 12.248C155.75 34.7783 140.49 57.733 123.99 79.9567C124.99 76.4198 122.99 74.0618 121.99 71.7038C113.99 85.8516 102.99 97.6414 95.99 112.968C87.99 131.832 88.99 154.232 78.99 173.096C77.99 168.38 81.99 164.843 80.99 160.127C65.99 197.854 50.99 243.835 64.99 285.099C65.99 286.278 61.99 288.636 61.99 287.457C56.99 240.298 56.99 195.497 53.99 149.516C52.99 133.011 59.99 115.326 62.99 98.8203C60.25 107.427 50.87 109.184 47.73 117.495C47.48 118.344 47.23 119.193 46.99 120.042C47.16 119.122 47.43 118.285 47.73 117.495C58.69 79.7327 79.93 47.0632 94.64 11.0808C93.42 11.2105 92.21 11.3756 90.99 11.576C88.99 11.576 86.99 13.9339 84.99 15.1129H75.99C73.99 16.2919 71.99 18.6499 69.99 18.6499C64.99 18.6499 60.99 18.6499 57.99 22.1868V25.7237C37.67 26.8673 20.15 13.6392 0 11.7293V2154.96H966V19.8642C957.41 20.0293 948.74 19.6048 940 18.6381V18.6499Z" fill="#474973"/>
<path d="M941 38.6925V35.1556H938V31.6187H935V28.0817C926 26.9027 918 29.2607 910 22.1868C905.19 18.4023 898.44 20.6895 891.83 21.1258C889.36 31.3239 886.34 41.4042 883.09 51.3547C884.91 66.481 883.12 83.7648 889.99 97.6414C891.07 100.836 890.1 104.727 889.78 108.559C890.59 111.624 891.35 114.654 891.99 117.684C889.7 114.984 889.51 111.789 889.78 108.559C888.06 102.074 886.03 95.4131 883.99 88.2096C883.99 85.8516 881.99 92.9255 881.99 91.7465C877.99 82.3147 874.99 72.8829 874.99 62.2721C871.99 62.2721 870.99 64.63 870.99 68.167C867.27 54.1489 865.21 38.834 858.24 27.0442C852.03 27.787 845.62 28.5179 839.99 29.2607C818.99 31.6187 799.99 44.5874 780.99 38.6925C763.99 35.1556 745.99 38.6925 728.99 35.1556V31.6187C722.99 29.2607 716.99 35.1556 710.99 35.1556C711.99 26.9027 706.99 31.6187 703.99 30.4397C692.99 22.1868 678.99 30.4397 665.99 33.9766C663.99 35.1556 661.99 29.2607 659.99 29.2607C642.99 29.2607 625.99 35.1556 608.99 35.1556C607.99 35.1556 606.99 38.6925 605.99 38.6925C586.99 37.5135 568.99 50.4823 552.99 45.7664C530.99 39.8715 507.99 42.2295 486.99 31.6187C480.99 29.2607 474.99 36.3346 468.99 35.1556V31.6187H465.99V28.0817C454.99 31.6187 445.99 39.8715 435.99 44.5874C430.99 46.9454 423.99 44.5874 417.99 45.7664C396.99 52.8403 376.99 59.9141 354.99 56.3772L348.99 52.8403C338.99 51.6613 327.99 52.8403 317.99 48.1243C303.9 40.5671 288.16 41.7225 272.89 41.0505C268.4 49.716 263.78 58.3461 258.99 66.988C254.99 75.2408 248.99 79.9567 245.99 88.2096C238.99 84.6726 240.99 101.178 233.99 95.2834C232.99 94.1045 231.99 90.5675 232.99 88.2096C228.99 92.9255 225.99 96.4624 223.99 102.357V97.6414C209.99 112.968 197.99 129.474 189.99 149.516V145.979C179.99 167.201 179.99 193.139 167.99 213.181C169.99 197.855 173.99 182.528 169.99 167.201C169.99 169.559 167.99 171.917 165.99 171.917C164.99 163.664 164.99 156.59 164.99 148.337C160.99 148.337 161.99 155.411 157.99 155.411C179.45 112.178 202.53 70.855 227.19 31.3946C216.03 30.7462 205.2 32.9509 193.99 35.1556V31.6187H190.99V28.0817C184.41 25.264 178.91 29.1782 173.2 32.2907C156.75 54.8209 141.49 77.7756 124.99 99.9994C125.99 96.4624 123.99 94.1045 122.99 91.7465C114.99 105.894 103.99 117.684 96.99 133.011C88.99 151.874 89.99 174.275 79.99 193.139C78.99 188.423 82.99 184.886 81.99 180.17C66.99 217.897 51.99 263.877 65.99 305.142C66.99 306.32 62.99 308.678 62.99 307.499C57.99 260.34 57.99 215.539 54.99 169.559C53.99 153.053 60.99 135.369 63.99 118.863C61.25 127.47 51.87 129.226 48.73 137.538C48.48 138.387 48.23 139.236 47.99 140.085C48.16 139.165 48.43 138.328 48.73 137.538C59.69 99.7754 80.93 67.1059 95.64 31.1235C94.42 31.2532 93.21 31.4182 91.99 31.6187C89.99 31.6187 87.99 33.9766 85.99 35.1556H76.99C74.99 36.3346 72.99 38.6925 70.99 38.6925C65.99 38.6925 61.99 38.6925 58.99 42.2295V45.7664C38.67 46.91 21.15 33.6819 1 31.7719V2175H967V39.9069C958.41 40.0719 949.74 39.6475 941 38.6807V38.6925Z" fill="#161B33"/>
</svg>
