<svg width="288" height="310" viewBox="0 0 288 310" fill="none" xmlns="http://www.w3.org/2000/svg">
<path d="M54.5128 247.39H255.133C260.036 247.39 264.013 251.366 264.013 256.268C264.013 283.164 242.174 305 215.273 305H94.3838C67.483 305 45.6438 283.164 45.6438 256.268C45.6438 251.366 49.6207 247.39 54.5241 247.39H54.5128Z" fill="url(#paint0_linear_19_154)" stroke="#C99667" stroke-width="8.81" stroke-miterlimit="10"/>
<path d="M218.369 19.9074C203.749 50.8476 196.62 83.8098 189.13 120.206C186.644 119.98 184.124 119.867 181.582 119.867H128.063C125.239 119.867 122.437 120.014 119.68 120.285C109.817 54.0105 83.8426 30.3676 45.9601 38.2523C-14.2475 51.2203 -5.43498 138.212 55.0776 130.305L63.0428 150.254C49.3834 166.238 41.0906 187.271 41.0906 210.338V219.194C41.0906 231.598 50.7618 241.651 62.6813 241.651H246.953C258.873 241.651 268.544 231.598 268.544 219.194V210.338C268.544 180.482 254.647 154.015 233.215 137.546C252.693 106.38 269.843 76.1171 281.469 48.0009C295.366 14.2141 233.96 -13.0774 218.369 19.9187V19.9074Z" fill="url(#paint1_linear_19_154)" stroke="#C99667" stroke-width="8.29" stroke-miterlimit="10"/>
<path d="M55.0776 130.305C55.0776 130.305 77.8885 125.402 85.639 97.8848" stroke="#C99667" stroke-width="8.29" stroke-linecap="round" stroke-linejoin="round"/>
<path d="M146.705 156.467C151.772 156.467 155.879 153.928 155.879 150.796C155.879 147.664 151.772 145.125 146.705 145.125C141.639 145.125 137.531 147.664 137.531 150.796C137.531 153.928 141.639 156.467 146.705 156.467Z" fill="#C99667"/>
<path d="M103.117 172.146C107.984 172.146 111.93 169.708 111.93 166.701C111.93 163.694 107.984 161.256 103.117 161.256C98.2501 161.256 94.3046 163.694 94.3046 166.701C94.3046 169.708 98.2501 172.146 103.117 172.146Z" fill="#C99667"/>
<path d="M204.145 172.146C209.012 172.146 212.957 169.708 212.957 166.701C212.957 163.694 209.012 161.256 204.145 161.256C199.278 161.256 195.332 163.694 195.332 166.701C195.332 169.708 199.278 172.146 204.145 172.146Z" fill="#C99667"/>
<path d="M184.735 195.167C189.583 195.167 193.513 192.74 193.513 189.745C193.513 186.751 189.583 184.323 184.735 184.323C179.886 184.323 175.956 186.751 175.956 189.745C175.956 192.74 179.886 195.167 184.735 195.167Z" fill="#C99667"/>
<path d="M136.085 197.291C140.983 197.291 144.954 194.838 144.954 191.812C144.954 188.787 140.983 186.334 136.085 186.334C131.187 186.334 127.216 188.787 127.216 191.812C127.216 194.838 131.187 197.291 136.085 197.291Z" fill="#C99667"/>
<defs>
<linearGradient id="paint0_linear_19_154" x1="154.817" y1="353.969" x2="154.817" y2="135.637" gradientUnits="userSpaceOnUse">
<stop stop-color="#F7E5B5"/>
<stop offset="0.35" stop-color="#EED7AC"/>
<stop offset="1" stop-color="#D9B595"/>
</linearGradient>
<linearGradient id="paint1_linear_19_154" x1="144.254" y1="107.249" x2="144.254" y2="385.7" gradientUnits="userSpaceOnUse">
<stop stop-color="#F7E5B5"/>
<stop offset="0.35" stop-color="#EED7AC"/>
<stop offset="1" stop-color="#D9B595"/>
</linearGradient>
</defs>
</svg>
